CommissionerFlair-LightItalic.ufo
<glyph name="numbersign" format="2">
  <advance width="678.6947368421053"/>
  <unicode hex="0023"/>
  <outline>
    <contour>
      <point x="-0.6526315789473693" y="156.65263157894736" type="line"/>
      <point x="60.568421052631585" y="159.54736842105262"/>
      <point x="118.61052631578947" y="159.7263157894737"/>
      <point x="168.29473684210527" y="159.7263157894737" type="curve"/>
      <point x="415.43157894736845" y="159.7263157894737" type="line"/>
      <point x="465.11578947368423" y="159.7263157894737"/>
      <point x="522.8" y="159.54736842105262"/>
      <point x="583.6631578947367" y="156.65263157894736" type="curve"/>
      <point x="595.2105263157895" y="214.42105263157896" type="line"/>
      <point x="533.9894736842106" y="211.5263157894737"/>
      <point x="476.12631578947367" y="211.34736842105264"/>
      <point x="426.4421052631579" y="211.34736842105264" type="curve"/>
      <point x="179.30526315789476" y="211.34736842105264" type="line"/>
      <point x="129.62105263157895" y="211.34736842105264"/>
      <point x="71.7578947368421" y="211.5263157894737"/>
      <point x="10.894736842105262" y="214.42105263157896" type="curve"/>
    </contour>
    <contour>
      <point x="65.15789473684211" y="0.0" type="curve"/>
      <point x="131.3263157894737" y="0.0" type="line"/>
      <point x="156.92631578947368" y="68.17894736842105"/>
      <point x="180.10526315789474" y="127.43157894736842"/>
      <point x="214.56842105263158" y="210.78947368421052" type="curve"/>
      <point x="309.77894736842103" y="439.86315789473684" type="line"/>
      <point x="347.06315789473683" y="529.4"/>
      <point x="372.1684210526316" y="585.8631578947368"/>
      <point x="404.1368421052632" y="656.578947368421" type="curve"/>
      <point x="338.32631578947365" y="656.578947368421" type="line"/>
      <point x="312.65263157894736" y="585.1473684210526"/>
      <point x="288.90526315789475" y="527.2210526315789"/>
      <point x="252.62105263157895" y="439.86315789473684" type="curve"/>
      <point x="157.41052631578947" y="210.78947368421052" type="line"/>
      <point x="122.94736842105263" y="128.2526315789474"/>
      <point x="96.41052631578948" y="67.46315789473684"/>
    </contour>
    <contour>
      <point x="116.84210526315789" y="439.1578947368421" type="line"/>
      <point x="178.2421052631579" y="442.05263157894734"/>
      <point x="236.10526315789474" y="442.2315789473684"/>
      <point x="285.7894736842105" y="442.2315789473684" type="curve"/>
      <point x="532.9263157894736" y="442.2315789473684" type="line"/>
      <point x="582.6105263157895" y="442.2315789473684"/>
      <point x="640.4736842105264" y="442.05263157894734"/>
      <point x="701.1578947368421" y="439.1578947368421" type="curve"/>
      <point x="712.8842105263158" y="496.9263157894737" type="line"/>
      <point x="651.4842105263158" y="494.0315789473684"/>
      <point x="593.6210526315789" y="493.85263157894735"/>
      <point x="543.936842105263" y="493.85263157894735" type="curve"/>
      <point x="296.8" y="493.85263157894735" type="line"/>
      <point x="247.11578947368423" y="493.85263157894735"/>
      <point x="189.2526315789474" y="494.0315789473684"/>
      <point x="128.56842105263158" y="496.9263157894737" type="curve"/>
    </contour>
    <contour>
      <point x="300.52631578947376" y="0.0" type="curve"/>
      <point x="366.69473684210527" y="0.0" type="line"/>
      <point x="392.29473684210524" y="68.17894736842105"/>
      <point x="415.47368421052636" y="127.43157894736842"/>
      <point x="449.9368421052631" y="210.78947368421052" type="curve"/>
      <point x="545.1473684210526" y="439.86315789473684" type="line"/>
      <point x="582.4315789473684" y="529.4"/>
      <point x="607.5368421052632" y="585.8631578947368"/>
      <point x="639.5052631578947" y="656.578947368421" type="curve"/>
      <point x="573.6947368421053" y="656.578947368421" type="line"/>
      <point x="548.021052631579" y="585.1473684210526"/>
      <point x="524.2736842105263" y="527.2210526315789"/>
      <point x="487.98947368421057" y="439.86315789473684" type="curve"/>
      <point x="392.77894736842103" y="210.78947368421052" type="line"/>
      <point x="358.31578947368416" y="128.2526315789474"/>
      <point x="331.77894736842103" y="67.46315789473684"/>
    </contour>
  </outline>
</glyph>
<glyph name="dollar" format="2">
  <advance width="558.4421052631579"/>
  <unicode hex="0024"/>
  <outline>
    <contour>
      <point x="257.0736842105263" y="-10.073684210526316" type="curve" smooth="yes"/>
      <point x="403.1263157894737" y="-10.073684210526316"/>
      <point x="475.91578947368424" y="50.31578947368421"/>
      <point x="498.34736842105264" y="158.47368421052633" type="curve" smooth="yes"/>
      <point x="517.6" y="250.55789473684214"/>
      <point x="479.2421052631579" y="312.7368421052632"/>
      <point x="329.8526315789474" y="375.2315789473684" type="curve" smooth="yes"/>
      <point x="205.36842105263156" y="427.7578947368421"/>
      <point x="163.8736842105263" y="462.53684210526313"/>
      <point x="179.54736842105262" y="535.2631578947369" type="curve" smooth="yes"/>
      <point x="196.68421052631578" y="617.6631578947369"/>
      <point x="276.7684210526316" y="637.3368421052631"/>
      <point x="352.61052631578946" y="637.3368421052631" type="curve"/>
      <point x="386.6105263157895" y="637.3368421052631"/>
      <point x="455.75789473684205" y="618.4421052631579"/>
      <point x="535.3684210526316" y="576.6210526315789" type="curve"/>
      <point x="557.4210526315791" y="637.4315789473684" type="line"/>
      <point x="505.52631578947364" y="659.8210526315789"/>
      <point x="419.9368421052631" y="696.7157894736843"/>
      <point x="350.28421052631575" y="696.7157894736843" type="curve" smooth="yes"/>
      <point x="215.02105263157895" y="696.7157894736843"/>
      <point x="138.66315789473686" y="641.642105263158"/>
      <point x="118.23157894736842" y="544.3052631578947" type="curve" smooth="yes"/>
      <point x="95.15789473684211" y="436.2210526315789"/>
      <point x="153.05263157894737" y="384.43157894736845"/>
      <point x="282.86315789473684" y="328.65263157894736" type="curve" smooth="yes"/>
      <point x="390.34736842105264" y="282.58947368421053"/>
      <point x="452.70526315789476" y="242.70526315789473"/>
      <point x="436.8526315789474" y="166.26315789473685" type="curve" smooth="yes"/>
      <point x="416.6105263157895" y="68.8"/>
      <point x="336.42105263157896" y="48.58947368421053"/>
      <point x="258.14736842105265" y="48.58947368421053" type="curve"/>
      <point x="196.2210526315789" y="48.58947368421053"/>
      <point x="119.28421052631579" y="76.84210526315789"/>
      <point x="46.357894736842105" y="118.94736842105264" type="curve"/>
      <point x="25.305263157894736" y="55.88421052631579" type="line"/>
      <point x="78.48421052631578" y="31.31578947368421"/>
      <point x="160.63157894736844" y="-10.073684210526316"/>
    </contour>
    <contour>
      <point x="172.15789473684208" y="-137.0" type="curve"/>
      <point x="233.0" y="-137.0" type="line"/>
      <point x="254.38947368421054" y="-20.0"/>
      <point x="276.2105263157895" y="84.0"/>
      <point x="299.2105263157895" y="192.0" type="curve"/>
      <point x="359.2105263157895" y="474.0" type="line"/>
      <point x="382.2105263157895" y="582.0"/>
      <point x="404.38947368421054" y="686.0"/>
      <point x="433.0" y="803.0" type="curve"/>
      <point x="372.1578947368421" y="803.0" type="line"/>
      <point x="350.76842105263154" y="686.0"/>
      <point x="328.9473684210526" y="582.0"/>
      <point x="305.9473684210526" y="474.0" type="curve"/>
      <point x="245.9473684210526" y="192.0" type="line"/>
      <point x="222.9473684210526" y="84.0"/>
      <point x="200.58947368421047" y="-20.0"/>
    </contour>
  </outline>
</glyph>
<glyph name="quotesingle" format="2">
  <advance width="195.34736842105264"/>
  <unicode hex="0027"/>
  <outline>
    <contour>
      <point x="103.05263157894736" y="446.85263157894735" type="curve"/>
      <point x="153.85263157894738" y="447.85263157894735" type="line"/>
      <point x="176.7157894736842" y="547.4736842105264"/>
      <point x="202.86315789473684" y="646.7368421052631"/>
      <point x="234.0842105263158" y="744.1789473684211" type="curve"/>
      <point x="148.76842105263157" y="742.4631578947368" type="line"/>
      <point x="137.9473684210526" y="645.2"/>
      <point x="123.05263157894737" y="546.9368421052632"/>
    </contour>
  </outline>
</glyph>
<glyph name="parenleft" format="2">
  <advance width="377.77894736842103"/>
  <unicode hex="0028"/>
  <outline>
    <contour>
      <point x="207.42105263157896" y="-117.90526315789474" type="curve"/>
      <point x="267.11578947368423" y="-98.13684210526316" type="line"/>
      <point x="176.1578947368421" y="23.86315789473684"/>
      <point x="110.84210526315789" y="157.56842105263158"/>
      <point x="149.66315789473683" y="338.85263157894735" type="curve" smooth="yes"/>
      <point x="188.4842105263158" y="521.1368421052632"/>
      <point x="307.0842105263158" y="640.421052631579"/>
      <point x="442.40000000000003" y="740.1368421052632" type="curve"/>
      <point x="384.2421052631579" y="765.5473684210526" type="line"/>
      <point x="252.8947368421053" y="665.6315789473683"/>
      <point x="125.09473684210526" y="539.6947368421053"/>
      <point x="84.02105263157894" y="346.14736842105265" type="curve" smooth="yes"/>
      <point x="42.94736842105264" y="153.42105263157893"/>
      <point x="120.56842105263156" y="3.294736842105261"/>
    </contour>
  </outline>
</glyph>
<glyph name="asterisk" format="2">
  <advance width="467.8421052631579"/>
  <unicode hex="002A"/>
  <outline>
    <contour>
      <point x="436.178947368421" y="340.7684210526316" type="curve"/>
      <point x="474.24210526315795" y="381.621052631579" type="line"/>
      <point x="416.09473684210525" y="429.36842105263156"/>
      <point x="358.66315789473686" y="479.11578947368423"/>
      <point x="302.8736842105263" y="529.0421052631579" type="curve"/>
      <point x="249.05263157894734" y="583.9368421052632"/>
      <point x="197.41052631578947" y="638.1894736842105"/>
      <point x="145.94736842105263" y="693.8" type="curve"/>
      <point x="108.70526315789475" y="652.9473684210526" type="line"/>
      <point x="165.85263157894735" y="605.1999999999999"/>
      <point x="223.6421052631579" y="555.2736842105263"/>
      <point x="279.2526315789474" y="504.3473684210526" type="curve"/>
      <point x="332.89473684210526" y="450.4526315789473"/>
      <point x="384.7157894736842" y="396.0210526315789"/>
    </contour>
    <contour>
      <point x="87.36842105263158" y="415.5157894736842" type="line"/>
      <point x="156.54736842105262" y="445.12631578947367"/>
      <point x="225.90526315789472" y="473.378947368421"/>
      <point x="297.08421052631576" y="501.4526315789473" type="curve"/>
      <point x="368.3368421052632" y="524.6631578947367"/>
      <point x="441.2315789473684" y="546.8736842105263"/>
      <point x="513.4842105263158" y="567.0842105263158" type="curve"/>
      <point x="494.7578947368421" y="619.0526315789474" type="line"/>
      <point x="425.57894736842104" y="589.2631578947369"/>
      <point x="356.2210526315789" y="561.0105263157895"/>
      <point x="286.0421052631579" y="533.9368421052632" type="curve"/>
      <point x="213.78947368421052" y="509.7263157894737"/>
      <point x="141.71578947368423" y="488.33684210526314"/>
      <point x="68.46315789473685" y="467.48421052631585" type="curve"/>
    </contour>
    <contour>
      <point x="216.45263157894735" y="301.82105263157894" type="curve"/>
      <point x="270.9578947368421" y="289.7052631578947" type="line"/>
      <point x="282.16842105263163" y="364.6"/>
      <point x="294.7368421052632" y="439.4947368421052"/>
      <point x="307.4842105263158" y="515.0315789473684" type="curve"/>
      <point x="326.09473684210525" y="587.3894736842105"/>
      <point x="344.70526315789476" y="660.5684210526316"/>
      <point x="365.4947368421053" y="732.9263157894737" type="curve"/>
      <point x="311.1684210526316" y="744.8631578947369" type="line"/>
      <point x="299.9578947368421" y="669.9684210526316"/>
      <point x="287.38947368421054" y="595.2526315789473"/>
      <point x="274.6421052631579" y="522.0" type="curve"/>
      <point x="256.0315789473684" y="447.178947368421"/>
      <point x="237.42105263157893" y="374.0"/>
    </contour>
  </outline>
</glyph>
<glyph name="plus" format="2">
  <advance width="586.1894736842105"/>
  <unicode hex="002B"/>
  <outline>
    <contour>
      <point x="219.68421052631578" y="61.242105263157896" type="curve"/>
      <point x="286.7157894736842" y="61.242105263157896" type="line"/>
      <point x="297.35789473684207" y="121.46315789473684"/>
      <point x="308.8947368421052" y="180.14736842105262"/>
      <point x="319.4315789473684" y="229.65263157894736" type="curve"/>
      <point x="348.35789473684207" y="364.82105263157894" type="line"/>
      <point x="359.07368421052627" y="414.86315789473684"/>
      <point x="371.7894736842105" y="472.7263157894737"/>
      <point x="387.4" y="533.7684210526315" type="curve"/>
      <point x="320.36842105263156" y="533.7684210526315" type="line"/>
      <point x="309.7263157894737" y="473.5473684210526"/>
      <point x="298.1894736842105" y="414.86315789473684"/>
      <point x="287.4736842105263" y="364.64210526315793" type="curve"/>
      <point x="258.5473684210526" y="229.65263157894736" type="line"/>
      <point x="248.01052631578946" y="180.14736842105262"/>
      <point x="235.29473684210524" y="121.46315789473684"/>
    </contour>
    <contour>
      <point x="68.58947368421053" y="265.1157894736842" type="line"/>
      <point x="130.81052631578947" y="268.01052631578943"/>
      <point x="188.67368421052632" y="268.1894736842105"/>
      <point x="238.3578947368421" y="268.1894736842105" type="curve"/>
      <point x="357.2842105263158" y="268.1894736842105" type="line"/>
      <point x="406.9684210526316" y="268.1894736842105"/>
      <point x="464.8315789473684" y="268.01052631578943"/>
      <point x="524.6947368421052" y="265.1157894736842" type="curve"/>
      <point x="539.1368421052631" y="329.89473684210526" type="line"/>
      <point x="477.09473684210525" y="327.0"/>
      <point x="419.2315789473684" y="326.82105263157894"/>
      <point x="369.5473684210526" y="326.82105263157894" type="curve"/>
      <point x="250.62105263157892" y="326.82105263157894" type="line"/>
      <point x="200.93684210526314" y="326.82105263157894"/>
      <point x="143.0736842105263" y="327.0"/>
      <point x="83.03157894736843" y="329.89473684210526" type="curve"/>
    </contour>
  </outline>
</glyph>
<glyph name="comma" format="2">
  <advance width="224.37894736842105"/>
  <unicode hex="002C"/>
  <outline>
    <contour>
      <point x="-49.126315789473686" y="-157.0" type="curve"/>
      <point x="-2.915789473684208" y="-155.82105263157894" type="line"/>
      <point x="44.26315789473684" y="-107.43157894736841"/>
      <point x="112.71578947368421" y="-20.673684210526318"/>
      <point x="126.61052631578949" y="46.800000000000004" type="curve" smooth="yes"/>
      <point x="133.22105263157897" y="79.67368421052632"/>
      <point x="124.07368421052632" y="103.65263157894736"/>
      <point x="92.76842105263158" y="109.97894736842105" type="curve"/>
      <point x="51.8421052631579" y="107.54736842105262" type="line"/>
      <point x="50.55789473684211" y="78.0"/>
      <point x="46.2" y="48.45263157894737"/>
      <point x="40.305263157894736" y="19.978947368421053" type="curve"/>
      <point x="28.12631578947369" y="-38.09473684210526"/>
      <point x="-0.45263157894736783" y="-98.17894736842105"/>
    </contour>
  </outline>
</glyph>
<glyph name="hyphen" format="2">
  <advance width="421.7894736842105"/>
  <unicode hex="002D"/>
  <outline>
    <contour>
      <point x="68.41052631578948" y="264.2210526315789" type="line"/>
      <point x="121.73684210526316" y="267.1157894736842"/>
      <point x="171.88421052631577" y="267.29473684210524"/>
      <point x="214.85263157894735" y="267.29473684210524" type="curve"/>
      <point x="257.82105263157894" y="267.29473684210524"/>
      <point x="307.9684210526316" y="267.1157894736842"/>
      <point x="360.9368421052631" y="264.2210526315789" type="curve"/>
      <point x="374.37894736842105" y="329.0" type="line"/>
      <point x="320.23157894736846" y="326.10526315789474"/>
      <point x="269.90526315789475" y="325.9263157894737"/>
      <point x="226.93684210526317" y="325.9263157894737" type="curve"/>
      <point x="183.96842105263158" y="325.9263157894737"/>
      <point x="134.00000000000003" y="326.10526315789474"/>
      <point x="81.85263157894737" y="329.0" type="curve"/>
    </contour>
  </outline>
</glyph>
<glyph name="slash" format="2">
  <advance width="446.41052631578947"/>
  <unicode hex="002F"/>
  <outline>
    <contour>
      <point x="-21.694736842105264" y="0.0" type="curve"/>
      <point x="56.6" y="0.0" type="line"/>
      <point x="100.02105263157894" y="74.0"/>
      <point x="139.41052631578947" y="137.0"/>
      <point x="198.44210526315788" y="228.0" type="curve"/>
      <point x="356.2526315789474" y="474.0" type="line"/>
      <point x="418.2842105263158" y="571.0"/>
      <point x="460.2105263157895" y="636.0"/>
      <point x="513.7473684210527" y="713.0" type="curve"/>
      <point x="435.6315789473685" y="713.0" type="line"/>
      <point x="389.56842105263155" y="636.0"/>
      <point x="349.0" y="571.0"/>
      <point x="288.14736842105265" y="476.17894736842106" type="curve"/>
      <point x="129.1578947368421" y="228.0" type="line"/>
      <point x="70.1263157894737" y="137.0"/>
      <point x="28.200000000000006" y="74.0"/>
    </contour>
  </outline>
</glyph>
<glyph name="one" format="2">
  <advance width="422.6736842105263"/>
  <unicode hex="0031"/>
  <outline>
    <contour>
      <point x="105.9578947368421" y="494.2631578947368" type="line"/>
      <point x="187.67368421052632" y="538.8"/>
      <point x="269.9263157894737" y="579.5473684210526"/>
      <point x="352.821052631579" y="619.9368421052632" type="curve"/>
      <point x="367.87368421052633" y="687.7894736842105" type="line"/>
      <point x="278.4" y="643.7894736842105"/>
      <point x="189.7473684210526" y="600.6105263157895"/>
      <point x="99.63157894736842" y="561.4" type="curve"/>
    </contour>
    <contour>
      <point x="183.86315789473684" y="0.0" type="curve"/>
      <point x="260.2" y="0.0" type="line"/>
      <point x="273.05263157894734" y="73.92631578947369"/>
      <point x="284.8" y="138.03157894736842"/>
      <point x="301.9789473684211" y="219.56842105263158" type="curve"/>
      <point x="350.33684210526314" y="447.3578947368421" type="line"/>
      <point x="367.9789473684211" y="531.2842105263157"/>
      <point x="386.5157894736842" y="611.9263157894736"/>
      <point x="406.0210526315789" y="685.0736842105263" type="curve"/>
      <point x="367.87368421052633" y="687.7894736842105" type="line"/>
      <point x="325.2526315789474" y="655.2947368421053" type="line"/>
      <point x="312.6842105263158" y="581.9052631578948"/>
      <point x="298.22105263157897" y="511.978947368421"/>
      <point x="282.57894736842104" y="438.58947368421053" type="curve"/>
      <point x="236.18947368421053" y="219.56842105263158" type="line"/>
      <point x="219.01052631578946" y="138.03157894736842"/>
      <point x="203.2947368421053" y="73.92631578947369"/>
    </contour>
  </outline>
</glyph>
<glyph name="two" format="2">
  <advance width="550.5157894736842"/>
  <unicode hex="0032"/>
  <outline>
    <contour>
      <point x="-1.863157894736844" y="0.0" type="line"/>
      <point x="442.9894736842105" y="0.0" type="line"/>
      <point x="456.9684210526316" y="65.74736842105264" type="line"/>
      <point x="378.18947368421055" y="60.526315789473685"/>
      <point x="298.66315789473686" y="59.347368421052636"/>
      <point x="220.77894736842106" y="59.347368421052636" type="curve"/>
      <point x="77.47368421052632" y="59.347368421052636" type="line"/>
      <point x="87.1578947368421" y="41.72631578947368" type="line"/>
      <point x="221.9263157894737" y="140.13684210526316" type="line"/>
      <point x="405.2631578947368" y="274.2210526315789"/>
      <point x="505.4947368421053" y="362.10526315789474"/>
      <point x="529.7789473684211" y="479.1684210526316" type="curve" smooth="yes"/>
      <point x="554.2105263157896" y="597.8947368421053"/>
      <point x="495.0526315789474" y="697.7894736842105"/>
      <point x="349.5368421052632" y="697.7894736842105" type="curve" smooth="yes"/>
      <point x="283.71578947368425" y="697.7894736842105"/>
      <point x="185.35789473684207" y="660.9368421052632"/>
      <point x="128.85263157894738" y="640.0105263157895" type="curve"/>
      <point x="123.2" y="566.3684210526316" type="line"/>
      <point x="214.44210526315788" y="613.6526315789474"/>
      <point x="304.5157894736842" y="637.5157894736842"/>
      <point x="338.8" y="637.5157894736842" type="curve"/>
      <point x="442.2736842105263" y="636.1578947368421"/>
      <point x="481.23157894736846" y="572.1052631578948"/>
      <point x="462.3789473684211" y="483.66315789473686" type="curve" smooth="yes"/>
      <point x="439.98947368421057" y="376.0736842105263"/>
      <point x="332.46315789473687" y="289.90526315789475"/>
      <point x="158.02105263157895" y="159.85263157894738" type="curve"/>
      <point x="107.88421052631578" y="123.17894736842105"/>
      <point x="58.46315789473684" y="87.93684210526315"/>
      <point x="9.326315789473682" y="54.51578947368421" type="curve"/>
    </contour>
  </outline>
</glyph>
<glyph name="three" format="2">
  <advance width="567.6436781609195"/>
  <unicode hex="0033"/>
  <outline>
    <contour>
      <point x="240.5632183908046" y="-10.172413793103448" type="curve" smooth="yes"/>
      <point x="396.55172413793105" y="-10.172413793103448"/>
      <point x="474.3333333333333" y="51.43678160919541"/>
      <point x="497.1149425287356" y="158.95402298850576" type="curve" smooth="yes"/>
      <point x="520.1149425287356" y="270.3908045977011"/>
      <point x="442.41379310344826" y="339.6551724137931"/>
      <point x="382.02298850574715" y="355.4367816091954" type="curve"/>
      <point x="383.41379310344826" y="363.39080459770116" type="line"/>
      <point x="462.45977011494256" y="378.0"/>
      <point x="526.8965517241379" y="419.8735632183908"/>
      <point x="544.8965517241379" y="504.264367816092" type="curve" smooth="yes"/>
      <point x="568.5057471264369" y="613.0459770114942"/>
      <point x="487.55172413793105" y="697.9540229885057"/>
      <point x="358.0" y="697.9540229885057" type="curve" smooth="yes"/>
      <point x="294.0" y="697.9540229885057"/>
      <point x="198.82758620689654" y="660.9080459770115"/>
      <point x="143.70114942528738" y="640.0804597701149" type="curve"/>
      <point x="138.01149425287355" y="566.8620689655172" type="line"/>
      <point x="226.8850574712644" y="613.6896551724138"/>
      <point x="314.8390804597701" y="637.4252873563219"/>
      <point x="347.8390804597702" y="637.4252873563219" type="curve"/>
      <point x="440.06896551724134" y="636.0344827586207"/>
      <point x="493.64367816091954" y="586.4597701149426"/>
      <point x="475.98850574712645" y="503.183908045977" type="curve" smooth="yes"/>
      <point x="459.94252873563215" y="428.3448275862069"/>
      <point x="393.71264367816093" y="388.1609195402299"/>
      <point x="259.08045977011494" y="387.37931034482756" type="curve"/>
      <point x="240.34482758620692" y="387.37931034482756"/>
      <point x="220.39080459770116" y="387.7701149425287"/>
      <point x="202.04597701149424" y="389.94252873563215" type="curve"/>
      <point x="188.79310344827587" y="328.632183908046" type="line"/>
      <point x="208.31034482758622" y="330.41379310344826"/>
      <point x="229.6551724137931" y="330.8045977011494"/>
      <point x="249.17241379310346" y="330.8045977011494" type="curve"/>
      <point x="384.8045977011494" y="330.41379310344826"/>
      <point x="451.4252873563218" y="265.7471264367816"/>
      <point x="431.1609195402299" y="171.20689655172416" type="curve" smooth="yes"/>
      <point x="414.50574712643675" y="92.93103448275862"/>
      <point x="359.32183908045977" y="51.356321839080465"/>
      <point x="240.95402298850578" y="49.96551724137932" type="curve"/>
      <point x="177.29885057471267" y="49.96551724137932"/>
      <point x="102.17241379310346" y="79.13793103448276"/>
      <point x="26.90804597701149" y="121.35632183908046" type="curve"/>
      <point x="5.701149425287353" y="56.09195402298851" type="line"/>
      <point x="59.701149425287355" y="32.04597701149425"/>
      <point x="143.48275862068965" y="-10.172413793103448"/>
    </contour>
  </outline>
</glyph>
<glyph name="four" format="2">
  <advance width="596.0344827586207"/>
  <unicode hex="0034"/>
  <outline>
    <contour>
      <point x="310.1954022988506" y="0.0" type="curve"/>
      <point x="386.6206896551724" y="0.0" type="line"/>
      <point x="395.2758620689655" y="62.5632183908046"/>
      <point x="405.6666666666667" y="112.51724137931035"/>
      <point x="421.0574712643678" y="185.86206896551727" type="curve"/>
      <point x="475.88505747126436" y="444.17241379310343" type="line"/>
      <point x="492.4942528735632" y="523.1724137931035"/>
      <point x="509.2758620689655" y="602.1724137931035"/>
      <point x="532.6206896551724" y="685.1724137931035" type="curve"/>
      <point x="454.1954022988506" y="685.1724137931035" type="line"/>
      <point x="417.32183908045977" y="640.3448275862069"/>
      <point x="375.27586206896547" y="593.2988505747127"/>
      <point x="333.8390804597701" y="547.8620689655172" type="curve"/>
      <point x="217.35632183908046" y="420.98850574712645" type="line"/>
      <point x="158.70114942528735" y="356.9425287356322"/>
      <point x="79.04597701149424" y="271.0689655172414"/>
      <point x="24.7816091954023" y="214.97701149425288" type="curve"/>
      <point x="14.310344827586205" y="161.9655172413793" type="line"/>
      <point x="382.1379310344828" y="161.9655172413793" type="line"/>
      <point x="432.6551724137931" y="161.9655172413793"/>
      <point x="505.95402298850576" y="161.57471264367814"/>
      <point x="551.0804597701149" y="158.4022988505747" type="curve"/>
      <point x="565.1149425287357" y="225.22988505747128" type="line"/>
      <point x="518.5977011494253" y="221.66666666666669"/>
      <point x="444.5172413793103" y="221.27586206896552"/>
      <point x="394.0" y="221.27586206896552" type="curve"/>
      <point x="380.2183908045977" y="221.27586206896552" type="line"/>
      <point x="81.52873563218391" y="221.27586206896552" type="line"/>
      <point x="85.48275862068965" y="193.7241379310345" type="line"/>
      <point x="124.74712643678161" y="239.77011494252875"/>
      <point x="165.183908045977" y="285.5977011494253"/>
      <point x="207.22988505747128" y="331.6436781609196" type="curve"/>
      <point x="366.1954022988506" y="504.60919540229884" type="line"/>
      <point x="414.632183908046" y="558.0459770114943"/>
      <point x="462.8965517241379" y="609.9195402298851"/>
      <point x="510.9425287356321" y="658.6206896551724" type="curve"/>
      <point x="451.4137931034483" y="651.2758620689655" type="line"/>
      <point x="439.7586206896552" y="579.448275862069"/>
      <point x="425.14942528735634" y="507.4022988505747"/>
      <point x="409.54022988505744" y="435.18390804597703" type="curve"/>
      <point x="360.0574712643678" y="201.5977011494253" type="line"/>
      <point x="355.1034482758621" y="185.86206896551727" type="line"/>
      <point x="339.71264367816093" y="112.51724137931035"/>
      <point x="328.32183908045977" y="62.5632183908046"/>
    </contour>
  </outline>
</glyph>
<glyph name="five" format="2">
  <advance width="572.6896551724138"/>
  <unicode hex="0035"/>
  <outline>
    <contour>
      <point x="235.5632183908046" y="-10.172413793103448" type="curve" smooth="yes"/>
      <point x="388.33333333333337" y="-10.172413793103448"/>
      <point x="478.55172413793105" y="58.172413793103445"/>
      <point x="507.9425287356322" y="196.90804597701148" type="curve" smooth="yes"/>
      <point x="539.551724137931" y="344.9080459770115"/>
      <point x="445.67816091954023" y="438.86206896551727"/>
      <point x="326.632183908046" y="438.86206896551727" type="curve" smooth="yes"/>
      <point x="274.0574712643678" y="438.86206896551727"/>
      <point x="236.96551724137933" y="425.42528735632186"/>
      <point x="194.65517241379314" y="404.55172413793105" type="curve"/>
      <point x="187.09195402298852" y="404.55172413793105" type="line"/>
      <point x="196.91954022988506" y="451.2988505747126" type="line"/>
      <point x="210.74712643678163" y="516.8735632183908"/>
      <point x="226.183908045977" y="583.8390804597701"/>
      <point x="241.57471264367814" y="650.0229885057471" type="curve"/>
      <point x="209.9425287356322" y="625.8620689655172" type="line"/>
      <point x="312.7701149425288" y="625.8620689655172" type="line"/>
      <point x="392.5977011494253" y="625.8620689655172"/>
      <point x="474.816091954023" y="625.471264367816"/>
      <point x="554.2528735632184" y="619.3448275862069" type="curve"/>
      <point x="567.8965517241379" y="685.1724137931035" type="line"/>
      <point x="176.79310344827587" y="685.1724137931035" type="line"/>
      <point x="165.74712643678163" y="610.0459770114943"/>
      <point x="148.96551724137933" y="526.919540229885"/>
      <point x="130.18390804597703" y="438.4022988505747" type="curve"/>
      <point x="108.40229885057471" y="333.4942528735632" type="line"/>
      <point x="137.86206896551727" y="330.71264367816093" type="line"/>
      <point x="203.04597701149427" y="368.85057471264366"/>
      <point x="245.09195402298846" y="380.67816091954023"/>
      <point x="300.2298850574713" y="380.67816091954023" type="curve"/>
      <point x="394.2413793103448" y="379.28735632183907"/>
      <point x="465.2988505747127" y="321.10344827586204"/>
      <point x="441.2068965517242" y="203.08045977011494" type="curve" smooth="yes"/>
      <point x="419.33333333333337" y="95.32183908045978"/>
      <point x="349.32183908045977" y="51.356321839080465"/>
      <point x="234.95402298850576" y="49.96551724137932" type="curve"/>
      <point x="172.9080459770115" y="49.96551724137932"/>
      <point x="100.17241379310346" y="79.13793103448276"/>
      <point x="26.90804597701149" y="121.35632183908046" type="curve"/>
      <point x="5.701149425287353" y="56.09195402298851" type="line"/>
      <point x="58.701149425287355" y="32.04597701149425"/>
      <point x="140.48275862068968" y="-10.172413793103448"/>
    </contour>
  </outline>
</glyph>
<glyph name="seven" format="2">
  <advance width="522.0947368421052"/>
  <unicode hex="0037"/>
  <outline>
    <contour>
      <point x="58.442105263157885" y="0.0" type="curve"/>
      <point x="145.17894736842106" y="0.0" type="line"/>
      <point x="194.9894736842105" y="83.3157894736842"/>
      <point x="249.0526315789474" y="167.2736842105263"/>
      <point x="303.5473684210526" y="248.7684210526316" type="curve"/>
      <point x="398.0736842105263" y="390.11578947368423" type="line"/>
      <point x="455.0315789473684" y="475.7157894736842"/>
      <point x="507.16842105263163" y="554.3157894736842"/>
      <point x="561.3052631578946" y="632.9473684210526" type="curve"/>
      <point x="572.6736842105263" y="685.0736842105263" type="line"/>
      <point x="117.0" y="685.0736842105263" type="line"/>
      <point x="103.02105263157895" y="618.7894736842105" type="line"/>
      <point x="190.1578947368421" y="624.6526315789474"/>
      <point x="275.93684210526317" y="625.7263157894737"/>
      <point x="360.53684210526313" y="625.7263157894737" type="curve"/>
      <point x="503.81052631578945" y="625.7263157894737" type="line"/>
      <point x="486.32631578947365" y="641.6315789473684" type="line"/>
      <point x="453.9052631578947" y="589.6"/>
      <point x="421.2315789473684" y="538.7473684210527"/>
      <point x="386.4842105263158" y="486.17894736842106" type="curve"/>
      <point x="245.10526315789474" y="274.87368421052633" type="line"/>
      <point x="184.61052631578946" y="184.55789473684212"/>
      <point x="122.11578947368422" y="91.60000000000001"/>
    </contour>
  </outline>
</glyph>
<glyph name="eight" format="2">
  <advance width="603.8620689655172"/>
  <unicode hex="0038"/>
  <outline>
    <contour>
      <point x="279.51724137931035" y="-10.172413793103448" type="curve" smooth="yes"/>
      <point x="429.55172413793105" y="-10.172413793103448"/>
      <point x="510.9425287356322" y="58.04597701149426"/>
      <point x="533.7241379310345" y="166.0" type="curve" smooth="yes"/>
      <point x="558.7241379310345" y="283.4367816091954"/>
      <point x="484.85057471264366" y="348.0919540229885"/>
      <point x="430.8965517241379" y="364.04597701149424" type="curve"/>
      <point x="432.28735632183907" y="371.60919540229884" type="line"/>
      <point x="499.632183908046" y="384.2183908045977"/>
      <point x="562.6781609195402" y="427.264367816092"/>
      <point x="579.2873563218391" y="505.264367816092" type="curve" smooth="yes"/>
      <point x="602.2873563218391" y="612.2183908045977"/>
      <point x="520.9425287356321" y="697.9540229885057"/>
      <point x="373.17241379310343" y="697.9540229885057" type="curve" smooth="yes"/>
      <point x="254.91954022988506" y="697.9540229885057"/>
      <point x="161.57471264367817" y="650.1724137931035"/>
      <point x="141.183908045977" y="553.2183908045978" type="curve" smooth="yes"/>
      <point x="122.57471264367815" y="467.21839080459773"/>
      <point x="174.01149425287358" y="403.39080459770116"/>
      <point x="224.96551724137933" y="384.7816091954023" type="curve"/>
      <point x="223.57471264367817" y="377.21839080459773" type="line"/>
      <point x="162.22988505747128" y="366.82758620689657"/>
      <point x="70.74712643678161" y="330.60919540229884"/>
      <point x="47.13793103448276" y="219.5632183908046" type="curve" smooth="yes"/>
      <point x="23.35632183908046" y="105.2183908045977"/>
      <point x="90.70114942528737" y="-10.172413793103448"/>
    </contour>
    <contour>
      <point x="281.08045977011494" y="50.356321839080465" type="curve"/>
      <point x="138.35632183908046" y="52.13793103448276"/>
      <point x="96.4367816091954" y="131.24137931034483"/>
      <point x="114.70114942528735" y="216.34482758620692" type="curve" smooth="yes"/>
      <point x="134.96551724137933" y="313.88505747126436"/>
      <point x="216.89655172413794" y="340.1954022988506"/>
      <point x="318.4367816091954" y="341.97701149425285" type="curve"/>
      <point x="420.7586206896552" y="340.1954022988506"/>
      <point x="491.5977011494253" y="280.57471264367814"/>
      <point x="470.11494252873564" y="178.20689655172416" type="curve" smooth="yes"/>
      <point x="453.45977011494256" y="97.54022988505747"/>
      <point x="394.0574712643678" y="52.13793103448276"/>
    </contour>
    <contour>
      <point x="338.4712643678161" y="396.98850574712645" type="curve"/>
      <point x="236.32183908045977" y="398.37931034482756"/>
      <point x="187.57471264367817" y="461.60919540229884"/>
      <point x="204.22988505747128" y="538.2758620689656" type="curve" smooth="yes"/>
      <point x="219.66666666666669" y="610.2873563218391"/>
      <point x="286.11494252873564" y="636.8160919540229"/>
      <point x="370.0" y="638.5977011494252" type="curve"/>
      <point x="473.9770114942529" y="636.8160919540229"/>
      <point x="531.1609195402299" y="586.4137931034483"/>
      <point x="513.8965517241379" y="505.96551724137936" type="curve" smooth="yes"/>
      <point x="499.2413793103448" y="436.1264367816092"/>
      <point x="437.8390804597701" y="398.37931034482756"/>
    </contour>
  </outline>
</glyph>
<glyph name="less" format="2">
  <advance width="565.3684210526316"/>
  <unicode hex="003C"/>
  <outline>
    <contour>
      <point x="464.2315789473684" y="74.72631578947369" type="curve"/>
      <point x="478.8526315789474" y="141.86315789473687" type="line"/>
      <point x="410.86315789473684" y="169.2105263157895"/>
      <point x="339.41052631578947" y="203.09473684210525"/>
      <point x="270.95789473684215" y="236.1578947368421" type="curve"/>
      <point x="160.90526315789475" y="288.89473684210526" type="line"/>
      <point x="163.08421052631581" y="296.6842105263158" type="line"/>
      <point x="294.4526315789474" y="349.06315789473683" type="line"/>
      <point x="377.4736842105263" y="382.12631578947367"/>
      <point x="463.13684210526316" y="415.65263157894736"/>
      <point x="542.978947368421" y="443.00000000000006" type="curve"/>
      <point x="558.1368421052631" y="518.6421052631579" type="line"/>
      <point x="491.7368421052631" y="490.0315789473684"/>
      <point x="427.87368421052633" y="464.0315789473684"/>
      <point x="372.5473684210527" y="442.0315789473684" type="curve"/>
      <point x="264.978947368421" y="399.17894736842106" type="line"/>
      <point x="211.1157894736842" y="378.0"/>
      <point x="147.4315789473684" y="353.17894736842106"/>
      <point x="82.38947368421053" y="330.25263157894733" type="curve"/>
      <point x="67.76842105263158" y="263.11578947368423" type="line"/>
      <point x="123.34736842105262" y="240.1894736842105"/>
      <point x="176.85263157894738" y="215.3684210526316"/>
      <point x="220.89473684210526" y="194.18947368421053" type="curve"/>
      <point x="311.0" y="151.33684210526314" type="line"/>
      <point x="356.5052631578947" y="129.33684210526314"/>
      <point x="410.36842105263156" y="102.51578947368421"/>
    </contour>
  </outline>
</glyph>
<glyph name="equal" format="2">
  <advance width="565.3684210526316"/>
  <unicode hex="003D"/>
  <outline>
    <contour>
      <point x="47.48421052631579" y="155.64210526315787" type="line"/>
      <point x="108.88421052631578" y="158.53684210526313"/>
      <point x="166.74736842105264" y="158.7157894736842"/>
      <point x="216.43157894736842" y="158.7157894736842" type="curve"/>
      <point x="311.7789473684211" y="158.7157894736842" type="line"/>
      <point x="361.46315789473687" y="158.7157894736842"/>
      <point x="419.3263157894737" y="158.53684210526313"/>
      <point x="480.0105263157895" y="155.64210526315787" type="curve"/>
      <point x="493.63157894736844" y="220.42105263157896" type="line"/>
      <point x="431.58947368421053" y="217.5263157894737"/>
      <point x="373.7263157894737" y="217.34736842105264"/>
      <point x="324.0421052631579" y="217.34736842105264" type="curve"/>
      <point x="228.69473684210527" y="217.34736842105264" type="line"/>
      <point x="179.0105263157895" y="217.34736842105264"/>
      <point x="121.14736842105262" y="217.5263157894737"/>
      <point x="61.10526315789473" y="220.42105263157896" type="curve"/>
    </contour>
    <contour>
      <point x="92.63157894736842" y="374.58947368421053" type="line"/>
      <point x="154.03157894736842" y="377.4842105263158"/>
      <point x="211.89473684210526" y="377.66315789473686"/>
      <point x="261.57894736842104" y="377.66315789473686" type="curve"/>
      <point x="356.92631578947373" y="377.66315789473686" type="line"/>
      <point x="406.6105263157895" y="377.66315789473686"/>
      <point x="464.47368421052636" y="377.4842105263158"/>
      <point x="525.1578947368422" y="374.58947368421053" type="curve"/>
      <point x="538.7789473684212" y="439.36842105263156" type="line"/>
      <point x="476.7368421052632" y="436.4736842105263"/>
      <point x="418.87368421052633" y="436.29473684210524"/>
      <point x="369.18947368421055" y="436.29473684210524" type="curve"/>
      <point x="273.84210526315786" y="436.29473684210524" type="line"/>
      <point x="224.1578947368421" y="436.29473684210524"/>
      <point x="166.29473684210527" y="436.4736842105263"/>
      <point x="106.25263157894736" y="439.36842105263156" type="curve"/>
    </contour>
  </outline>
</glyph>
<glyph name="greater" format="2">
  <advance width="565.3684210526316"/>
  <unicode hex="003E"/>
  <outline>
    <contour>
      <point x="28.126315789473686" y="74.72631578947369" type="line"/>
      <point x="94.52631578947368" y="103.33684210526316"/>
      <point x="158.38947368421054" y="129.33684210526314"/>
      <point x="213.71578947368423" y="151.33684210526314" type="curve"/>
      <point x="321.2842105263158" y="194.18947368421053" type="line"/>
      <point x="375.14736842105265" y="215.3684210526316"/>
      <point x="438.83157894736837" y="240.1894736842105"/>
      <point x="503.87368421052633" y="263.11578947368423" type="curve"/>
      <point x="518.4947368421052" y="330.25263157894733" type="line"/>
      <point x="462.9157894736842" y="353.17894736842106"/>
      <point x="409.41052631578947" y="378.0"/>
      <point x="365.36842105263156" y="399.17894736842106" type="curve"/>
      <point x="275.2631578947369" y="442.0315789473684" type="line"/>
      <point x="229.7578947368421" y="464.0315789473684"/>
      <point x="175.89473684210526" y="490.85263157894735"/>
      <point x="122.03157894736842" y="518.6421052631579" type="curve"/>
      <point x="107.41052631578948" y="451.5052631578948" type="line"/>
      <point x="175.4" y="424.15789473684214"/>
      <point x="246.85263157894735" y="390.2736842105263"/>
      <point x="315.30526315789473" y="357.2105263157895" type="curve"/>
      <point x="425.3578947368421" y="304.4736842105263" type="line"/>
      <point x="423.17894736842106" y="296.6842105263158" type="line"/>
      <point x="291.8105263157895" y="244.30526315789476" type="line"/>
      <point x="208.78947368421052" y="211.2421052631579"/>
      <point x="123.1263157894737" y="177.71578947368423"/>
      <point x="43.28421052631579" y="150.3684210526316" type="curve"/>
    </contour>
  </outline>
</glyph>
<glyph name="at" format="2">
  <advance width="879.8315789473684"/>
  <unicode hex="0040"/>
  <outline>
    <contour>
      <point x="475.57894736842104" y="-128.26315789473685" type="curve" smooth="yes"/>
      <point x="559.9368421052632" y="-128.26315789473685"/>
      <point x="676.221052631579" y="-90.23157894736842"/>
      <point x="757.9368421052632" y="-54.768421052631574" type="curve"/>
      <point x="757.9368421052632" y="1.484210526315789" type="line"/>
      <point x="654.6105263157895" y="-48.94736842105264"/>
      <point x="543.7157894736843" y="-77.97894736842106"/>
      <point x="475.57894736842104" y="-81.33684210526316" type="curve"/>
      <point x="195.02105263157893" y="-77.97894736842106"/>
      <point x="69.52631578947367" y="117.3578947368421"/>
      <point x="115.2421052631579" y="333.89473684210526" type="curve" smooth="yes"/>
      <point x="157.09473684210525" y="532.0842105263158"/>
      <point x="294.7894736842105" y="619.9157894736842"/>
      <point x="470.57894736842104" y="623.2736842105263" type="curve"/>
      <point x="689.4947368421052" y="619.9157894736842"/>
      <point x="814.6315789473684" y="460.01052631578943"/>
      <point x="773.9894736842106" y="254.97894736842105" type="curve" smooth="yes"/>
      <point x="758.8842105263158" y="179.2736842105263"/>
      <point x="689.7894736842105" y="109.82105263157895"/>
      <point x="643.3684210526316" y="109.10526315789474" type="curve"/>
      <point x="590.6631578947369" y="111.46315789473684"/>
      <point x="570.1684210526315" y="140.56842105263158"/>
      <point x="584.0631578947368" y="209.14736842105262" type="curve"/>
      <point x="603.5578947368421" y="302.8" type="line"/>
      <point x="616.7368421052632" y="362.18947368421055"/>
      <point x="631.2736842105263" y="420.2947368421053"/>
      <point x="650.9894736842106" y="480.14736842105265" type="curve"/>
      <point x="595.1157894736841" y="476.2526315789474" type="line"/>
      <point x="578.9368421052632" y="422.1473684210526" type="line"/>
      <point x="572.5052631578948" y="422.1473684210526" type="line"/>
      <point x="543.1157894736841" y="456.93684210526317"/>
      <point x="487.1578947368421" y="485.9684210526316"/>
      <point x="438.37894736842105" y="485.9684210526316" type="curve" smooth="yes"/>
      <point x="344.7368421052632" y="485.9684210526316"/>
      <point x="273.06315789473683" y="413.9263157894737"/>
      <point x="249.9578947368421" y="302.5052631578947" type="curve" smooth="yes"/>
      <point x="224.77894736842106" y="182.17894736842106"/>
      <point x="272.9263157894737" y="71.92631578947369"/>
      <point x="391.42105263157896" y="71.92631578947369" type="curve" smooth="yes"/>
      <point x="432.7368421052631" y="71.92631578947369"/>
      <point x="480.55789473684206" y="94.28421052631579"/>
      <point x="524.2315789473685" y="139.38947368421054" type="curve"/>
      <point x="530.4842105263158" y="139.38947368421054" type="line"/>
      <point x="539.8842105263158" y="101.31578947368422"/>
      <point x="572.6842105263158" y="62.28421052631579"/>
      <point x="648.578947368421" y="62.28421052631579" type="curve" smooth="yes"/>
      <point x="697.3684210526316" y="62.28421052631579"/>
      <point x="799.9157894736842" y="133.42105263157893"/>
      <point x="821.5263157894736" y="245.4" type="curve" smooth="yes"/>
      <point x="865.9578947368421" y="477.2315789473684"/>
      <point x="715.6631578947369" y="670.2"/>
      <point x="471.7578947368421" y="670.2" type="curve" smooth="yes"/>
      <point x="280.32631578947365" y="670.2"/>
      <point x="113.3157894736842" y="568.1263157894737"/>
      <point x="67.06315789473683" y="342.36842105263156" type="curve" smooth="yes"/>
      <point x="17.557894736842105" y="102.70526315789473"/>
      <point x="165.03157894736842" y="-128.26315789473685"/>
    </contour>
    <contour>
      <point x="404.5473684210526" y="123.57894736842105" type="curve"/>
      <point x="317.86315789473684" y="125.57894736842105"/>
      <point x="285.5157894736842" y="199.45263157894738"/>
      <point x="305.4736842105263" y="294.3157894736842" type="curve" smooth="yes"/>
      <point x="322.32631578947365" y="373.4736842105263"/>
      <point x="369.2421052631579" y="430.77894736842103"/>
      <point x="448.4315789473684" y="432.9578947368421" type="curve"/>
      <point x="492.63157894736844" y="433.42105263157896"/>
      <point x="533.2947368421053" y="409.53684210526313"/>
      <point x="563.5684210526316" y="378.0842105263158" type="curve"/>
      <point x="525.6842105263158" y="202.05263157894737" type="line"/>
      <point x="485.84210526315786" y="147.17894736842103"/>
      <point x="441.35789473684207" y="125.57894736842105"/>
    </contour>
  </outline>
</glyph>
<glyph name="A" format="2">
  <advance width="683.2105263157895"/>
  <unicode hex="0041"/>
  <anchor x="289.5157894736842" y="0.0" name="bottom"/>
  <anchor x="603.9368421052632" y="0.0" name="ogonek"/>
  <anchor x="439.1578947368421" y="713.0" name="top"/>
  <outline>
    <contour>
      <point x="-27.442105263157895" y="0.0" type="curve"/>
      <point x="62.652631578947364" y="0.0" type="line"/>
      <point x="107.21052631578947" y="86.88421052631578"/>
      <point x="157.7684210526316" y="177.76842105263157"/>
      <point x="206.1157894736842" y="262.8315789473684" type="curve"/>
      <point x="425.17894736842106" y="647.1157894736842" type="line"/>
      <point x="432.9684210526316" y="647.1157894736842" type="line"/>
      <point x="489.978947368421" y="261.65263157894736" type="line"/>
      <point x="502.2947368421053" y="178.58947368421053"/>
      <point x="515.5368421052632" y="84.6"/>
      <point x="522.7052631578947" y="0.0" type="curve"/>
      <point x="605.0105263157894" y="0.0" type="line"/>
      <point x="589.8315789473684" y="75.0"/>
      <point x="573.6526315789473" y="163.0"/>
      <point x="561.0842105263158" y="242.2842105263158" type="curve"/>
      <point x="523.021052631579" y="486.82105263157894" type="line"/>
      <point x="509.4526315789474" y="574.0"/>
      <point x="500.59999999999997" y="641.9263157894736"/>
      <point x="494.8210526315789" y="713.0" type="curve"/>
      <point x="386.4947368421053" y="713.0" type="line"/>
      <point x="347.8947368421052" y="638.6421052631579"/>
      <point x="310.6842105263158" y="571.8210526315789"/>
      <point x="261.9368421052632" y="487.4631578947368" type="curve"/>
      <point x="120.41052631578947" y="243.0" type="line"/>
      <point x="75.66315789473684" y="166.0"/>
      <point x="22.5578947368421" y="76.64210526315789"/>
    </contour>
    <contour>
      <point x="140.70526315789473" y="187.43157894736842" type="line"/>
      <point x="522.8210526315789" y="187.43157894736842" type="line"/>
      <point x="530.2526315789473" y="244.2736842105263" type="line"/>
      <point x="157.26315789473682" y="244.2736842105263" type="line"/>
    </contour>
  </outline>
</glyph>
<glyph name="C" format="2">
  <advance width="685.1052631578947"/>
  <unicode hex="0043"/>
  <anchor x="347.38947368421054" y="0.0" name="bottom"/>
  <anchor x="489.17894736842106" y="713.0" name="top"/>
  <outline>
    <contour>
      <point x="381.89473684210526" y="-10.25263157894737" type="curve" smooth="yes"/>
      <point x="449.9684210526316" y="-10.25263157894737"/>
      <point x="527.5052631578949" y="9.74736842105263"/>
      <point x="583.7894736842105" y="37.242105263157896" type="curve"/>
      <point x="592.2315789473685" y="113.34736842105262" type="line"/>
      <point x="529.9789473684211" y="74.63157894736842"/>
      <point x="454.01052631578943" y="52.27368421052631"/>
      <point x="389.1263157894737" y="52.27368421052631" type="curve"/>
      <point x="191.55789473684212" y="55.45263157894736"/>
      <point x="117.32631578947368" y="217.60000000000002"/>
      <point x="153.56842105263158" y="389.0631578947369" type="curve" smooth="yes"/>
      <point x="193.16842105263157" y="575.6736842105263"/>
      <point x="318.2526315789474" y="658.7578947368421"/>
      <point x="480.4526315789474" y="661.9368421052632" type="curve"/>
      <point x="519.0947368421052" y="661.9368421052632"/>
      <point x="602.1263157894738" y="643.578947368421"/>
      <point x="700.3789473684211" y="599.1473684210528" type="curve"/>
      <point x="721.8631578947369" y="669.5052631578948" type="line"/>
      <point x="662.3263157894737" y="692.7894736842105"/>
      <point x="566.6842105263157" y="725.7157894736843"/>
      <point x="486.5684210526316" y="725.7157894736843" type="curve" smooth="yes"/>
      <point x="276.5157894736842" y="725.7157894736843"/>
      <point x="127.73684210526315" y="612.7157894736843"/>
      <point x="82.9157894736842" y="399.7157894736842" type="curve" smooth="yes"/>
      <point x="38.199999999999996" y="187.95789473684212"/>
      <point x="142.77894736842106" y="-10.25263157894737"/>
    </contour>
  </outline>
</glyph>
<glyph name="E" format="2">
  <advance width="593.344827586207"/>
  <unicode hex="0045"/>
  <anchor x="264.8735632183908" y="0.0" name="bottom"/>
  <anchor x="481.47126436781605" y="0.0" name="ogonek"/>
  <anchor x="414.8735632183908" y="713.0" name="top"/>
  <anchor x="135.0" y="713.0" name="topleft"/>
  <outline>
    <contour>
      <point x="42.321839080459775" y="0.0" type="curve"/>
      <point x="122.31034482758622" y="0.0" type="line"/>
      <point x="124.87356321839081" y="10.25287356321839" type="line"/>
      <point x="136.52873563218392" y="90.08045977011494"/>
      <point x="149.74712643678163" y="158.29885057471265"/>
      <point x="168.74712643678163" y="246.68965517241378" type="curve"/>
      <point x="215.01149425287358" y="465.35632183908046" type="line"/>
      <point x="233.4022988505747" y="554.528735632184"/>
      <point x="250.18390804597703" y="623.1379310344828"/>
      <point x="270.7471264367816" y="703.3563218390805" type="curve"/>
      <point x="272.3103448275862" y="713.0" type="line"/>
      <point x="192.3218390804598" y="713.0" type="line"/>
      <point x="179.27586206896552" y="632.7816091954023"/>
      <point x="166.44827586206898" y="563.1724137931035"/>
      <point x="147.44827586206898" y="473.0" type="curve"/>
      <point x="97.05747126436782" y="236.4367816091954" type="line"/>
      <point x="78.66666666666667" y="148.6551724137931"/>
      <point x="62.885057471264375" y="79.82758620689656"/>
    </contour>
    <contour>
      <point x="107.05747126436782" y="0.0" type="line"/>
      <point x="482.2528735632184" y="0.0" type="line"/>
      <point x="496.67816091954023" y="68.2183908045977" type="line"/>
      <point x="422.02298850574715" y="62.87356321839081"/>
      <point x="343.5402298850575" y="61.48275862068966"/>
      <point x="254.44827586206895" y="61.48275862068966" type="curve"/>
      <point x="120.3103448275862" y="61.48275862068966" type="line"/>
    </contour>
    <contour>
      <point x="171.06896551724137" y="331.7586206896552" type="line"/>
      <point x="311.1609195402299" y="331.7586206896552" type="line"/>
      <point x="402.42528735632186" y="331.7586206896552"/>
      <point x="463.86206896551727" y="331.367816091954"/>
      <point x="530.5172413793103" y="329.1954022988506" type="curve"/>
      <point x="544.551724137931" y="396.2413793103448" type="line"/>
      <point x="480.7241379310345" y="392.0689655172414"/>
      <point x="418.2873563218391" y="391.67816091954023"/>
      <point x="325.02298850574715" y="391.67816091954023" type="curve"/>
      <point x="183.9310344827586" y="391.67816091954023" type="line"/>
    </contour>
    <contour>
      <point x="240.67816091954023" y="651.5172413793103" type="line"/>
      <point x="371.59770114942535" y="651.5172413793103" type="line"/>
      <point x="477.2988505747127" y="651.5172413793103"/>
      <point x="550.1724137931035" y="649.735632183908"/>
      <point x="618.0459770114943" y="644.7816091954023" type="curve"/>
      <point x="632.080459770115" y="713.0" type="line"/>
      <point x="253.93103448275863" y="713.0" type="line"/>
    </contour>
  </outline>
</glyph>
<glyph name="F" format="2">
  <advance width="573.6842105263158"/>
  <unicode hex="0046"/>
  <outline>
    <contour>
      <point x="42.221052631578935" y="0.0" type="curve"/>
      <point x="122.34736842105265" y="0.0" type="line"/>
      <point x="134.37894736842108" y="79.74736842105263"/>
      <point x="147.1263157894737" y="147.03157894736842"/>
      <point x="166.1263157894737" y="236.38947368421051" type="curve"/>
      <point x="214.87368421052633" y="465.2" type="line"/>
      <point x="233.23157894736843" y="554.4526315789474"/>
      <point x="250.1263157894737" y="623.0947368421052"/>
      <point x="270.91578947368424" y="703.3789473684211" type="curve"/>
      <point x="272.34736842105264" y="713.0" type="line"/>
      <point x="192.22105263157894" y="713.0" type="line"/>
      <point x="179.18947368421053" y="632.7157894736843"/>
      <point x="166.44210526315788" y="563.2526315789473"/>
      <point x="147.26315789473682" y="473.17894736842106" type="curve"/>
      <point x="96.90526315789472" y="236.38947368421051" type="line"/>
      <point x="78.72631578947367" y="148.67368421052632"/>
      <point x="62.83157894736841" y="79.74736842105263"/>
    </contour>
    <contour>
      <point x="169.52631578947367" y="328.7473684210526" type="line"/>
      <point x="301.37894736842105" y="328.7473684210526" type="line"/>
      <point x="392.69473684210527" y="328.7473684210526"/>
      <point x="453.9052631578947" y="328.3894736842105"/>
      <point x="520.578947368421" y="325.9578947368421" type="curve"/>
      <point x="534.5578947368422" y="393.34736842105264" type="line"/>
      <point x="470.98947368421057" y="389.0947368421053"/>
      <point x="408.6" y="388.7368421052632"/>
      <point x="315.10526315789474" y="388.7368421052632" type="curve"/>
      <point x="182.43157894736842" y="388.7368421052632" type="line"/>
    </contour>
    <contour>
      <point x="239.8842105263158" y="651.4" type="line"/>
      <point x="362.4842105263158" y="651.4" type="line"/>
      <point x="468.18947368421055" y="651.4"/>
      <point x="540.9684210526316" y="649.5052631578947"/>
      <point x="608.9263157894736" y="644.8947368421052" type="curve"/>
      <point x="622.9052631578948" y="713.0" type="line"/>
      <point x="253.14736842105262" y="713.0" type="line"/>
    </contour>
  </outline>
</glyph>
<glyph name="G" format="2">
  <advance width="734.3157894736842"/>
  <unicode hex="0047"/>
  <anchor x="347.38947368421054" y="0.0" name="bottom"/>
  <anchor x="497.38947368421054" y="713.0" name="top"/>
  <outline>
    <contour>
      <point x="399.0736842105263" y="-10.073684210526316" type="curve" smooth="yes"/>
      <point x="471.8210526315789" y="-10.073684210526316"/>
      <point x="564.9368421052632" y="11.56842105263158"/>
      <point x="620.2947368421052" y="31.88421052631579" type="curve"/>
      <point x="619.5473684210525" y="102.91578947368421" type="line"/>
      <point x="545.6526315789474" y="67.37894736842104"/>
      <point x="474.69473684210527" y="51.37894736842105"/>
      <point x="402.7578947368421" y="51.37894736842105" type="curve"/>
      <point x="185.34736842105264" y="54.5578947368421"/>
      <point x="116.61052631578947" y="216.5263157894737"/>
      <point x="153.21052631578948" y="389.42105263157896" type="curve" smooth="yes"/>
      <point x="193.81052631578947" y="579.8526315789474"/>
      <point x="319.4736842105263" y="658.9368421052632"/>
      <point x="480.59999999999997" y="661.9368421052632" type="curve"/>
      <point x="521.2421052631579" y="661.9368421052632"/>
      <point x="609.2736842105262" y="641.1157894736842"/>
      <point x="713.7052631578947" y="589.2947368421053" type="curve"/>
      <point x="735.1894736842105" y="659.4736842105264" type="line"/>
      <point x="670.7578947368421" y="686.8631578947369"/>
      <point x="568.0421052631579" y="725.7157894736843"/>
      <point x="480.85263157894735" y="725.7157894736843" type="curve" smooth="yes"/>
      <point x="271.5578947368421" y="725.7157894736843"/>
      <point x="128.09473684210525" y="612.5052631578948"/>
      <point x="82.9157894736842" y="399.7157894736842" type="curve" smooth="yes"/>
      <point x="37.73684210526315" y="186.2842105263158"/>
      <point x="137.81052631578947" y="-10.073684210526316"/>
    </contour>
    <contour>
      <point x="546.1789473684211" y="31.88421052631579" type="curve"/>
      <point x="620.2947368421052" y="31.88421052631579" type="line"/>
      <point x="632.2210526315789" y="100.03157894736843"/>
      <point x="641.4" y="149.46315789473684"/>
      <point x="651.9368421052632" y="201.25263157894736" type="curve"/>
      <point x="665.1157894736842" y="262.86315789473684"/>
      <point x="676.3684210526316" y="306.11578947368423"/>
      <point x="690.5157894736841" y="354.7263157894737" type="curve"/>
      <point x="610.7157894736843" y="354.7263157894737" type="line"/>
      <point x="605.1473684210528" y="306.11578947368423"/>
      <point x="597.8631578947369" y="262.86315789473684"/>
      <point x="584.6842105263158" y="201.25263157894736" type="curve"/>
      <point x="574.1473684210526" y="149.46315789473684"/>
      <point x="563.2526315789473" y="100.03157894736843"/>
    </contour>
  </outline>
</glyph>
<glyph name="H" format="2">
  <advance width="751.9684210526316"/>
  <unicode hex="0048"/>
  <anchor x="323.89473684210526" y="0.0" name="bottom"/>
  <anchor x="398.89473684210526" y="357.0" name="center"/>
  <anchor x="473.89473684210526" y="713.0" name="top"/>
  <anchor x="135.0736842105263" y="713.0" name="topleft"/>
  <outline>
    <contour>
      <point x="524.1894736842105" y="0.0" type="curve"/>
      <point x="605.3894736842105" y="0.0" type="line"/>
      <point x="617.421052631579" y="79.74736842105263"/>
      <point x="630.1684210526316" y="147.03157894736842"/>
      <point x="649.1684210526316" y="236.38947368421051" type="curve"/>
      <point x="699.5263157894738" y="473.17894736842106" type="line"/>
      <point x="718.7052631578948" y="563.2526315789473"/>
      <point x="734.6" y="632.7157894736843"/>
      <point x="755.3894736842105" y="713.0" type="curve"/>
      <point x="674.1894736842105" y="713.0" type="line"/>
      <point x="661.1578947368421" y="632.7157894736843"/>
      <point x="648.4105263157895" y="563.2526315789473"/>
      <point x="629.2315789473685" y="473.17894736842106" type="curve"/>
      <point x="578.8736842105263" y="236.38947368421051" type="line"/>
      <point x="560.6947368421053" y="148.67368421052632"/>
      <point x="544.8" y="79.74736842105263"/>
    </contour>
    <contour>
      <point x="42.221052631578935" y="0.0" type="curve"/>
      <point x="123.42105263157895" y="0.0" type="line"/>
      <point x="135.45263157894738" y="79.74736842105263"/>
      <point x="148.20000000000002" y="147.03157894736842"/>
      <point x="167.2" y="236.38947368421051" type="curve"/>
      <point x="217.5578947368421" y="473.17894736842106" type="line"/>
      <point x="236.73684210526315" y="563.2526315789473"/>
      <point x="252.6315789473684" y="632.7157894736843"/>
      <point x="273.42105263157896" y="713.0" type="curve"/>
      <point x="192.22105263157894" y="713.0" type="line"/>
      <point x="179.18947368421053" y="632.7157894736843"/>
      <point x="166.44210526315788" y="563.2526315789473"/>
      <point x="147.26315789473682" y="473.17894736842106" type="curve"/>
      <point x="96.90526315789472" y="236.38947368421051" type="line"/>
      <point x="78.72631578947367" y="148.67368421052632"/>
      <point x="62.83157894736841" y="79.74736842105263"/>
    </contour>
    <contour>
      <point x="159.0" y="330.7157894736842" type="line"/>
      <point x="629.6315789473684" y="330.7157894736842" type="line"/>
      <point x="643.0736842105263" y="392.3157894736842" type="line"/>
      <point x="172.44210526315788" y="392.3157894736842" type="line"/>
    </contour>
  </outline>
</glyph>
<glyph name="I" format="2">
  <advance width="272.6842105263158"/>
  <unicode hex="0049"/>
  <anchor x="82.94736842105264" y="0.0" name="bottom"/>
  <anchor x="124.3157894736842" y="0.0" name="ogonek"/>
  <anchor x="232.94736842105263" y="713.0" name="top"/>
  <anchor x="133.7473684210526" y="713.0" name="topleft"/>
  <outline>
    <contour>
      <point x="43.11578947368421" y="0.0" type="curve"/>
      <point x="125.21052631578947" y="0.0" type="line"/>
      <point x="137.2421052631579" y="79.74736842105263"/>
      <point x="149.9894736842105" y="147.03157894736842"/>
      <point x="168.9894736842105" y="236.38947368421051" type="curve"/>
      <point x="219.3473684210526" y="473.17894736842106" type="line"/>
      <point x="238.52631578947367" y="563.2526315789473"/>
      <point x="254.42105263157893" y="632.7157894736843"/>
      <point x="275.2105263157895" y="713.0" type="curve"/>
      <point x="193.1157894736842" y="713.0" type="line"/>
      <point x="180.0842105263158" y="632.7157894736843"/>
      <point x="167.33684210526314" y="563.2526315789473"/>
      <point x="148.15789473684208" y="473.17894736842106" type="curve"/>
      <point x="97.8" y="236.38947368421051" type="line"/>
      <point x="79.62105263157895" y="148.67368421052632"/>
      <point x="63.72631578947369" y="79.74736842105263"/>
    </contour>
  </outline>
</glyph>
<glyph name="J" format="2">
  <advance width="286.38947368421054"/>
  <unicode hex="004A"/>
  <anchor x="96.54736842105262" y="0.0" name="bottom"/>
  <anchor x="246.54736842105262" y="713.0" name="top"/>
  <outline>
    <contour>
      <point x="-71.26315789473685" y="-158.56842105263158" type="curve"/>
      <point x="16.021052631578943" y="-158.56842105263158" type="line"/>
      <point x="62.378947368421045" y="-113.21052631578948"/>
      <point x="127.73684210526315" y="-42.03157894736842"/>
      <point x="149.2736842105263" y="60.11578947368421" type="curve" smooth="yes"/>
      <point x="164.1684210526316" y="129.7684210526316"/>
      <point x="175.9157894736842" y="204.60000000000002"/>
      <point x="193.6315789473684" y="288.178947368421" type="curve"/>
      <point x="233.05263157894737" y="473.17894736842106" type="line"/>
      <point x="252.23157894736843" y="563.2526315789473"/>
      <point x="268.1263157894737" y="632.7157894736843"/>
      <point x="288.91578947368424" y="713.0" type="curve"/>
      <point x="207.7157894736842" y="713.0" type="line"/>
      <point x="194.68421052631578" y="632.7157894736843"/>
      <point x="181.93684210526317" y="563.2526315789473"/>
      <point x="162.7578947368421" y="473.17894736842106" type="curve"/>
      <point x="117.58947368421052" y="261.0842105263158" type="line"/>
      <point x="75.18947368421051" y="64.72631578947369" type="line"/>
      <point x="56.36842105263157" y="-23.557894736842105"/>
      <point x="-2.5157894736842055" y="-95.06315789473685"/>
    </contour>
  </outline>
</glyph>
<glyph name="K" format="2">
  <advance width="664.2105263157894"/>
  <unicode hex="004B"/>
  <anchor x="287.69473684210527" y="0.0" name="bottom"/>
  <anchor x="437.69473684210527" y="713.0" name="top"/>
  <outline>
    <contour>
      <point x="489.0210526315789" y="0.0" type="curve"/>
      <point x="586.7263157894737" y="0.0" type="line"/>
      <point x="532.9473684210526" y="59.89473684210526"/>
      <point x="453.9263157894737" y="156.1157894736842"/>
      <point x="395.83157894736837" y="228.26315789473685" type="curve"/>
      <point x="270.0" y="385.09473684210525" type="line"/>
      <point x="271.2842105263158" y="350.9894736842105" type="line"/>
      <point x="439.2631578947368" y="490.3157894736842" type="line"/>
      <point x="528.8947368421053" y="562.9263157894737"/>
      <point x="618.3473684210526" y="636.0"/>
      <point x="717.5157894736841" y="713.0" type="curve"/>
      <point x="609.5578947368422" y="713.0" type="line"/>
      <point x="522.2315789473683" y="636.7578947368421"/>
      <point x="459.4631578947368" y="583.5473684210526"/>
      <point x="387.58947368421053" y="524.4105263157895" type="curve"/>
      <point x="233.45263157894738" y="398.0315789473684" type="line"/>
      <point x="191.98947368421054" y="398.0315789473684" type="line"/>
      <point x="179.26315789473685" y="338.7578947368421" type="line"/>
      <point x="220.62105263157895" y="338.7578947368421" type="line"/>
      <point x="341.57894736842104" y="188.8421052631579" type="line"/>
      <point x="388.7052631578947" y="131.16842105263157"/>
      <point x="435.65263157894736" y="71.67368421052632"/>
    </contour>
    <contour>
      <point x="42.221052631578935" y="0.0" type="curve"/>
      <point x="123.24210526315791" y="0.0" type="line"/>
      <point x="135.27368421052634" y="79.74736842105263"/>
      <point x="148.02105263157895" y="147.03157894736842"/>
      <point x="167.02105263157895" y="236.38947368421051" type="curve"/>
      <point x="217.37894736842105" y="473.17894736842106" type="line"/>
      <point x="236.55789473684212" y="563.2526315789473"/>
      <point x="252.45263157894738" y="632.7157894736843"/>
      <point x="273.2421052631579" y="713.0" type="curve"/>
      <point x="192.22105263157894" y="713.0" type="line"/>
      <point x="179.18947368421053" y="632.7157894736843"/>
      <point x="166.44210526315788" y="563.2526315789473"/>
      <point x="147.26315789473682" y="473.17894736842106" type="curve"/>
      <point x="96.90526315789472" y="236.38947368421051" type="line"/>
      <point x="78.72631578947367" y="148.67368421052632"/>
      <point x="62.83157894736841" y="79.74736842105263"/>
    </contour>
  </outline>
</glyph>
<glyph name="L" format="2">
  <advance width="568.3263157894736"/>
  <unicode hex="004C"/>
  <anchor x="263.06315789473683" y="0.0" name="bottom"/>
  <anchor x="442.69473684210527" y="357.53684210526313" name="center"/>
  <anchor x="293.2421052631579" y="713.0" name="top"/>
  <anchor x="330.5578947368421" y="495.4315789473684" name="topright"/>
  <outline>
    <contour>
      <point x="42.221052631578935" y="0.0" type="curve"/>
      <point x="123.42105263157895" y="0.0" type="line"/>
      <point x="125.85263157894735" y="10.442105263157895" type="line"/>
      <point x="137.70526315789473" y="90.18947368421053"/>
      <point x="151.45263157894738" y="159.1157894736842"/>
      <point x="169.6315789473684" y="246.83157894736843" type="curve"/>
      <point x="217.5578947368421" y="473.17894736842106" type="line"/>
      <point x="236.73684210526315" y="563.2526315789473"/>
      <point x="252.6315789473684" y="632.7157894736843"/>
      <point x="273.42105263157896" y="713.0" type="curve"/>
      <point x="192.22105263157894" y="713.0" type="line"/>
      <point x="179.18947368421053" y="632.7157894736843"/>
      <point x="166.44210526315788" y="563.2526315789473"/>
      <point x="147.26315789473682" y="473.17894736842106" type="curve"/>
      <point x="96.90526315789472" y="236.38947368421051" type="line"/>
      <point x="78.72631578947367" y="148.67368421052632"/>
      <point x="62.83157894736841" y="79.74736842105263"/>
    </contour>
    <contour>
      <point x="106.90526315789474" y="0.0" type="line"/>
      <point x="480.65263157894736" y="0.0" type="line"/>
      <point x="495.34736842105264" y="71.14736842105263" type="line"/>
      <point x="414.5684210526316" y="65.6421052631579"/>
      <point x="346.61052631578946" y="63.38947368421053"/>
      <point x="229.33684210526314" y="63.38947368421053" type="curve"/>
      <point x="120.70526315789473" y="63.38947368421053" type="line"/>
    </contour>
  </outline>
</glyph>
<glyph name="M" format="2">
  <advance width="953.7578947368421"/>
  <unicode hex="004D"/>
  <anchor x="424.61052631578946" y="0.0" name="bottom"/>
  <anchor x="574.6105263157895" y="713.0" name="top"/>
  <outline>
    <contour>
      <point x="12.905263157894732" y="0.0" type="curve"/>
      <point x="93.06315789473686" y="0.0" type="line"/>
      <point x="132.7263157894737" y="130.93684210526317"/>
      <point x="171.82105263157894" y="254.8736842105263"/>
      <point x="206.42105263157896" y="359.3157894736842" type="curve"/>
      <point x="280.2631578947368" y="584.5894736842105" type="line"/>
      <point x="285.58947368421053" y="584.5894736842105" type="line"/>
      <point x="335.0736842105263" y="339.82105263157894" type="line"/>
      <point x="356.85263157894735" y="226.45263157894735"/>
      <point x="379.30526315789473" y="95.76842105263158"/>
      <point x="395.65263157894736" y="0.0" type="curve"/>
      <point x="456.3578947368421" y="0.0" type="line"/>
      <point x="516.2315789473683" y="101.33684210526316"/>
      <point x="590.1368421052632" y="224.45263157894735"/>
      <point x="661.6526315789474" y="341.46315789473687" type="curve"/>
      <point x="810.7894736842106" y="584.5894736842105" type="line"/>
      <point x="816.1157894736842" y="584.5894736842105" type="line"/>
      <point x="796.0842105263158" y="359.3157894736842" type="line"/>
      <point x="786.978947368421" y="254.8736842105263"/>
      <point x="772.978947368421" y="133.22105263157894"/>
      <point x="755.7263157894737" y="0.0" type="curve"/>
      <point x="836.4947368421052" y="0.0" type="line"/>
      <point x="840.5263157894736" y="79.56842105263158"/>
      <point x="845.0947368421052" y="150.21052631578948"/>
      <point x="852.9157894736842" y="236.38947368421051" type="curve"/>
      <point x="874.378947368421" y="472.82105263157894" type="line"/>
      <point x="882.1999999999999" y="560.4631578947368"/>
      <point x="890.0947368421052" y="631.7157894736843"/>
      <point x="900.3473684210526" y="713.0" type="curve"/>
      <point x="815.6842105263158" y="713.0" type="line"/>
      <point x="753.8105263157895" y="605.1263157894737"/>
      <point x="693.8631578947368" y="506.5052631578947"/>
      <point x="632.1999999999999" y="406.9894736842105" type="curve"/>
      <point x="450.0315789473684" y="112.62105263157895" type="line"/>
      <point x="444.06315789473683" y="112.62105263157895" type="line"/>
      <point x="386.11578947368423" y="406.9894736842105" type="line"/>
      <point x="366.8" y="506.5052631578947"/>
      <point x="347.66315789473686" y="605.6631578947369"/>
      <point x="332.6736842105263" y="713.0" type="curve"/>
      <point x="250.4421052631579" y="713.0" type="line"/>
      <point x="228.05263157894737" y="630.7157894736843"/>
      <point x="205.41052631578947" y="558.8210526315789"/>
      <point x="176.41052631578947" y="472.82105263157894" type="curve"/>
      <point x="97.87368421052632" y="236.38947368421051" type="line"/>
      <point x="68.87368421052632" y="149.56842105263158"/>
      <point x="43.62105263157895" y="79.03157894736843"/>
    </contour>
  </outline>
</glyph>
<glyph name="R" format="2">
  <advance width="668.3333333333334"/>
  <unicode hex="0052"/>
  <anchor x="282.47126436781605" y="0.0" name="bottom"/>
  <anchor x="420.89655172413796" y="713.0" name="top"/>
  <outline>
    <contour>
      <point x="494.4252873563218" y="0.0" type="curve"/>
      <point x="586.9310344827586" y="0.0" type="line"/>
      <point x="548.2758620689655" y="54.60919540229885"/>
      <point x="493.79310344827593" y="138.17241379310346"/>
      <point x="453.0919540229886" y="202.95402298850576" type="curve"/>
      <point x="364.6896551724138" y="343.735632183908" type="line"/>
      <point x="341.9770114942529" y="312.05747126436785" type="line"/>
      <point x="535.7241379310345" y="310.448275862069"/>
      <point x="598.5862068965519" y="381.44827586206895"/>
      <point x="623.9770114942529" y="501.7931034482759" type="curve" smooth="yes"/>
      <point x="650.9310344827587" y="627.9540229885058"/>
      <point x="578.8505747126437" y="715.1724137931035"/>
      <point x="418.98850574712645" y="715.1724137931035" type="curve"/>
      <point x="320.03448275862075" y="715.1724137931035"/>
      <point x="253.35632183908044" y="713.0"/>
      <point x="192.3218390804598" y="713.0" type="curve"/>
      <point x="232.1609195402299" y="653.0804597701149" type="line"/>
      <point x="407.1724137931035" y="653.0804597701149" type="line" smooth="yes"/>
      <point x="483.1839080459771" y="653.0804597701149"/>
      <point x="577.2068965517242" y="628.2528735632184"/>
      <point x="551.1149425287357" y="505.2298850574713" type="curve" smooth="yes"/>
      <point x="526.8505747126437" y="390.9080459770115"/>
      <point x="468.2758620689656" y="359.5977011494253"/>
      <point x="332.9425287356322" y="359.5977011494253" type="curve" smooth="yes"/>
      <point x="178.8850574712644" y="359.5977011494253" type="line"/>
      <point x="166.02298850574715" y="300.28735632183907" type="line"/>
      <point x="333.36781609195407" y="300.28735632183907" type="line"/>
      <point x="295.1724137931035" y="334.7356321839081" type="line"/>
      <point x="392.74712643678157" y="172.9655172413793" type="line"/>
      <point x="426.4942528735632" y="118.0919540229885"/>
      <point x="460.2413793103448" y="61.82758620689655"/>
    </contour>
    <contour>
      <point x="42.321839080459775" y="0.0" type="curve"/>
      <point x="123.09195402298852" y="0.0" type="line"/>
      <point x="135.13793103448276" y="79.82758620689656"/>
      <point x="147.5747126436782" y="147.04597701149424"/>
      <point x="166.57471264367817" y="236.4367816091954" type="curve"/>
      <point x="215.40229885057474" y="465.35632183908046" type="line"/>
      <point x="233.79310344827587" y="554.528735632184"/>
      <point x="250.5747126436782" y="623.1379310344828"/>
      <point x="271.52873563218395" y="703.3563218390805" type="curve"/>
      <point x="192.3218390804598" y="713.0" type="line"/>
      <point x="179.27586206896552" y="632.7816091954023"/>
      <point x="166.44827586206898" y="563.1724137931035"/>
      <point x="147.44827586206898" y="473.0" type="curve"/>
      <point x="97.05747126436782" y="236.4367816091954" type="line"/>
      <point x="78.66666666666667" y="148.6551724137931"/>
      <point x="62.885057471264375" y="79.82758620689656"/>
    </contour>
  </outline>
</glyph>
<glyph name="S" format="2">
  <advance width="582.4252873563219"/>
  <unicode hex="0053"/>
  <anchor x="243.34482758620686" y="0.0" name="bottom"/>
  <anchor x="393.34482758620686" y="713.0" name="top"/>
  <outline>
    <contour>
      <point x="269.95402298850576" y="-10.172413793103448" type="curve" smooth="yes"/>
      <point x="422.55172413793105" y="-10.172413793103448"/>
      <point x="499.7241379310344" y="52.26436781609196"/>
      <point x="523.2873563218391" y="164.08045977011494" type="curve" smooth="yes"/>
      <point x="543.0689655172414" y="258.5977011494253"/>
      <point x="502.67816091954023" y="324.9425287356322"/>
      <point x="345.632183908046" y="391.3793103448276" type="curve" smooth="yes"/>
      <point x="219.31034482758622" y="445.1264367816092"/>
      <point x="178.0" y="482.1724137931035"/>
      <point x="194.6551724137931" y="560.2298850574713" type="curve" smooth="yes"/>
      <point x="212.13793103448273" y="642.816091954023"/>
      <point x="294.4597701149425" y="661.0804597701149"/>
      <point x="370.90804597701145" y="663.0804597701149" type="curve"/>
      <point x="406.51724137931035" y="663.0804597701149"/>
      <point x="480.08045977011494" y="643.2988505747128"/>
      <point x="562.2528735632184" y="598.0804597701149" type="curve"/>
      <point x="583.8505747126437" y="666.9080459770115" type="line"/>
      <point x="528.6781609195403" y="689.5632183908045"/>
      <point x="439.68965517241384" y="725.7816091954023"/>
      <point x="366.60919540229884" y="725.7816091954023" type="curve" smooth="yes"/>
      <point x="226.79310344827584" y="725.7816091954023"/>
      <point x="144.57471264367817" y="669.4367816091954"/>
      <point x="123.40229885057472" y="568.1839080459771" type="curve" smooth="yes"/>
      <point x="100.01149425287358" y="458.44827586206895"/>
      <point x="157.79310344827587" y="399.4137931034483"/>
      <point x="297.5402298850575" y="340.54022988505744" type="curve" smooth="yes"/>
      <point x="408.7701149425288" y="293.8390804597701"/>
      <point x="468.6896551724138" y="252.52873563218392"/>
      <point x="452.0344827586207" y="171.25287356321837" type="curve" smooth="yes"/>
      <point x="431.3333333333333" y="72.01149425287356"/>
      <point x="348.7931034482758" y="54.13793103448276"/>
      <point x="270.5632183908046" y="52.13793103448276" type="curve"/>
      <point x="205.73563218390805" y="52.13793103448276"/>
      <point x="126.2183908045977" y="82.91954022988506"/>
      <point x="49.39080459770115" y="128.35632183908046" type="curve"/>
      <point x="27.574712643678165" y="60.701149425287355" type="line"/>
      <point x="83.57471264367817" y="34.8735632183908"/>
      <point x="169.3103448275862" y="-10.172413793103448"/>
    </contour>
  </outline>
</glyph>
<glyph name="T" format="2">
  <advance width="639.5052631578948"/>
  <unicode hex="0054"/>
  <anchor x="269.0736842105263" y="0.0" name="bottom"/>
  <anchor x="341.74736842105267" y="346.62105263157895" name="center"/>
  <anchor x="419.0736842105263" y="713.0" name="top"/>
  <outline>
    <contour>
      <point x="228.70526315789473" y="0.0" type="curve"/>
      <point x="309.72631578947374" y="0.0" type="line"/>
      <point x="321.75789473684216" y="79.74736842105263"/>
      <point x="334.5052631578948" y="147.03157894736842"/>
      <point x="353.5052631578948" y="236.38947368421051" type="curve"/>
      <point x="402.43157894736845" y="465.2" type="line"/>
      <point x="420.7894736842106" y="554.4526315789474"/>
      <point x="437.68421052631584" y="623.0947368421052"/>
      <point x="458.47368421052636" y="703.3789473684211" type="curve"/>
      <point x="459.90526315789475" y="713.0" type="line"/>
      <point x="378.88421052631577" y="713.0" type="line"/>
      <point x="376.63157894736844" y="703.3789473684211" type="line"/>
      <point x="364.6" y="623.0947368421052"/>
      <point x="351.4947368421053" y="553.6315789473684"/>
      <point x="332.3157894736842" y="465.2" type="curve"/>
      <point x="283.38947368421054" y="236.38947368421051" type="line"/>
      <point x="265.2105263157895" y="148.67368421052632"/>
      <point x="249.31578947368422" y="79.74736842105263"/>
    </contour>
    <contour>
      <point x="116.44210526315791" y="641.8526315789474" type="line"/>
      <point x="174.18947368421053" y="646.5368421052632"/>
      <point x="234.57894736842104" y="649.6105263157895"/>
      <point x="316.89473684210526" y="649.6105263157895" type="curve"/>
      <point x="381.7473684210526" y="649.6105263157895" type="line"/>
      <point x="395.36842105263156" y="713.0" type="line"/>
      <point x="131.13684210526316" y="713.0" type="line"/>
    </contour>
    <contour>
      <point x="428.1578947368421" y="649.6105263157895" type="line"/>
      <point x="493.0105263157895" y="649.6105263157895" type="line"/>
      <point x="575.3263157894737" y="649.6105263157895"/>
      <point x="635.8210526315789" y="647.3578947368421"/>
      <point x="691.3157894736842" y="641.8526315789474" type="curve"/>
      <point x="706.0105263157894" y="713.0" type="line"/>
      <point x="441.77894736842103" y="713.0" type="line"/>
    </contour>
  </outline>
</glyph>
<glyph name="U" format="2">
  <advance width="730.9263157894737"/>
  <unicode hex="0055"/>
  <anchor x="314.2842105263158" y="0.0" name="bottom"/>
  <anchor x="425.05263157894734" y="0.0" name="ogonek"/>
  <anchor x="464.2842105263158" y="713.0" name="top"/>
  <anchor x="791.6526315789473" y="713.0" name="topright"/>
  <outline>
    <contour>
      <point x="331.6421052631579" y="-10.25263157894737" type="curve" smooth="yes"/>
      <point x="529.4105263157895" y="-10.25263157894737"/>
      <point x="611.4842105263158" y="98.10526315789474"/>
      <point x="641.5578947368422" y="239.22105263157894" type="curve" smooth="yes"/>
      <point x="651.2" y="285.2526315789474"/>
      <point x="670.4842105263158" y="380.32631578947365"/>
      <point x="689.9473684210526" y="473.17894736842106" type="curve"/>
      <point x="709.1263157894737" y="563.2526315789473"/>
      <point x="725.0210526315789" y="632.7157894736843"/>
      <point x="745.8105263157894" y="713.0" type="curve"/>
      <point x="664.6105263157895" y="713.0" type="line"/>
      <point x="651.578947368421" y="632.7157894736843"/>
      <point x="638.8315789473684" y="563.2526315789473"/>
      <point x="619.6526315789473" y="473.17894736842106" type="curve"/>
      <point x="572.4421052631578" y="254.33684210526314" type="line" smooth="yes"/>
      <point x="546.9473684210526" y="135.1473684210526"/>
      <point x="490.67368421052635" y="53.98947368421052"/>
      <point x="335.86315789473684" y="52.27368421052631" type="curve"/>
      <point x="179.30526315789473" y="53.98947368421052"/>
      <point x="138.67368421052632" y="157.46315789473684"/>
      <point x="166.81052631578947" y="290.6842105263158" type="curve" smooth="yes"/>
      <point x="206.09473684210525" y="473.17894736842106" type="line"/>
      <point x="225.2736842105263" y="563.2526315789473"/>
      <point x="241.16842105263157" y="632.7157894736843"/>
      <point x="261.9578947368421" y="713.0" type="curve"/>
      <point x="180.93684210526314" y="713.0" type="line"/>
      <point x="167.90526315789475" y="632.7157894736843"/>
      <point x="155.1578947368421" y="563.2526315789473"/>
      <point x="135.97894736842105" y="473.17894736842106" type="curve"/>
      <point x="120.33684210526316" y="399.5052631578947"/>
      <point x="102.97894736842106" y="330.40000000000003"/>
      <point x="95.15789473684211" y="292.47368421052636" type="curve" smooth="yes"/>
      <point x="60.08421052631579" y="129.2842105263158"/>
      <point x="130.5894736842105" y="-10.25263157894737"/>
    </contour>
  </outline>
</glyph>
<glyph name="V" format="2">
  <advance width="680.8842105263159"/>
  <unicode hex="0056"/>
  <anchor x="289.2631578947369" y="0.0" name="bottom"/>
  <anchor x="439.2631578947369" y="713.0" name="top"/>
  <outline>
    <contour>
      <point x="236.9894736842105" y="0.0" type="curve"/>
      <point x="345.5684210526316" y="0.0" type="line"/>
      <point x="382.5263157894737" y="72.82105263157894"/>
      <point x="431.4842105263158" y="160.2842105263158"/>
      <point x="470.41052631578947" y="226.82105263157897" type="curve"/>
      <point x="598.7578947368421" y="450.0" type="line"/>
      <point x="643.1473684210526" y="527.1789473684211"/>
      <point x="703.0736842105263" y="628.5368421052631"/>
      <point x="756.9684210526316" y="713.0" type="curve"/>
      <point x="662.6842105263157" y="713.0" type="line"/>
      <point x="605.8105263157894" y="605.4421052631579"/>
      <point x="539.5789473684212" y="483.6"/>
      <point x="479.7368421052632" y="377.6842105263158" type="curve"/>
      <point x="307.77894736842103" y="73.7578947368421" type="line"/>
      <point x="299.9894736842105" y="73.7578947368421" type="line"/>
      <point x="253.1578947368421" y="375.86315789473684" type="line"/>
      <point x="236.6315789473684" y="482.24210526315784"/>
      <point x="218.0" y="607.0842105263158"/>
      <point x="205.18947368421053" y="713.0" type="curve"/>
      <point x="120.5578947368421" y="713.0" type="line"/>
      <point x="139.81052631578947" y="627.7157894736843"/>
      <point x="158.02105263157893" y="524.7157894736843"/>
      <point x="170.2315789473684" y="449.17894736842106" type="curve"/>
      <point x="205.86315789473684" y="226.82105263157894" type="line"/>
      <point x="216.89473684210526" y="158.82105263157894"/>
      <point x="228.85263157894735" y="71.17894736842105"/>
    </contour>
  </outline>
</glyph>
<glyph name="W" format="2">
  <advance width="1011.8842105263158"/>
  <unicode hex="0057"/>
  <anchor x="452.7263157894737" y="0.0" name="bottom"/>
  <anchor x="602.7263157894737" y="713.0" name="top"/>
  <outline>
    <contour>
      <point x="181.22105263157894" y="0.0" type="curve"/>
      <point x="285.13684210526316" y="0.0" type="line"/>
      <point x="328.9789473684211" y="101.05263157894736"/>
      <point x="386.38947368421054" y="222.9578947368421"/>
      <point x="435.30526315789473" y="323.4736842105263" type="curve"/>
      <point x="576.7684210526315" y="615.8105263157895" type="line"/>
      <point x="584.5578947368421" y="615.8105263157895" type="line"/>
      <point x="605.2947368421052" y="323.4736842105263" type="line"/>
      <point x="612.1473684210525" y="222.6"/>
      <point x="618.9263157894737" y="101.87368421052632"/>
      <point x="623.5263157894736" y="0.0" type="curve"/>
      <point x="730.4105263157894" y="0.0" type="line"/>
      <point x="757.9789473684211" y="68.3578947368421"/>
      <point x="801.5473684210526" y="154.82105263157894"/>
      <point x="837.6526315789474" y="225.82105263157894" type="curve"/>
      <point x="950.3263157894737" y="450.0" type="line"/>
      <point x="990.2526315789473" y="529.6421052631579"/>
      <point x="1041.4315789473685" y="627.8947368421053"/>
      <point x="1090.326315789474" y="713.0" type="curve"/>
      <point x="996.9368421052632" y="713.0" type="line"/>
      <point x="949.4526315789473" y="608.5157894736842"/>
      <point x="890.2210526315789" y="484.821052631579"/>
      <point x="839.4842105263158" y="381.15789473684214" type="curve"/>
      <point x="693.5578947368421" y="82.63157894736842" type="line"/>
      <point x="685.7684210526315" y="82.63157894736842" type="line"/>
      <point x="666.1052631578948" y="380.8" type="line"/>
      <point x="658.7894736842105" y="488.74736842105267"/>
      <point x="652.1894736842105" y="606.8736842105263"/>
      <point x="648.3052631578947" y="713.0" type="curve"/>
      <point x="553.0421052631579" y="713.0" type="line"/>
      <point x="506.0210526315789" y="609.3368421052631"/>
      <point x="447.53684210526313" y="483.6421052631579"/>
      <point x="399.08421052631576" y="381.9789473684211" type="curve"/>
      <point x="255.5473684210526" y="82.63157894736842" type="line"/>
      <point x="247.75789473684208" y="82.63157894736842" type="line"/>
      <point x="226.70526315789473" y="375.05263157894734" type="line"/>
      <point x="218.9263157894737" y="481.3578947368421"/>
      <point x="211.57894736842104" y="607.0526315789474"/>
      <point x="208.05263157894737" y="713.0" type="curve"/>
      <point x="119.2" y="713.0" type="line"/>
      <point x="131.5263157894737" y="629.3578947368421"/>
      <point x="142.45263157894738" y="526.3578947368421"/>
      <point x="149.5578947368421" y="445.89473684210526" type="curve"/>
      <point x="167.87368421052633" y="225.0" type="line"/>
      <point x="173.97894736842105" y="155.82105263157894"/>
      <point x="179.3684210526316" y="71.17894736842105"/>
    </contour>
  </outline>
</glyph>
<glyph name="X" format="2">
  <advance width="676.7157894736841"/>
  <unicode hex="0058"/>
  <outline>
    <contour>
      <point x="-17.694736842105264" y="0.0" type="curve"/>
      <point x="83.41052631578948" y="0.0" type="line"/>
      <point x="135.10526315789474" y="65.34736842105262"/>
      <point x="179.8421052631579" y="120.12631578947368"/>
      <point x="228.86315789473682" y="177.1157894736842" type="curve"/>
      <point x="343.4736842105263" y="312.09473684210525" type="line"/>
      <point x="351.2631578947368" y="312.09473684210525" type="line"/>
      <point x="416.6315789473684" y="177.93684210526317" type="line"/>
      <point x="442.9789473684211" y="124.23157894736842"/>
      <point x="470.7894736842105" y="65.34736842105262"/>
      <point x="498.27368421052626" y="0.0" type="curve"/>
      <point x="590.5894736842106" y="0.0" type="line"/>
      <point x="547.1263157894737" y="74.10526315789474"/>
      <point x="511.9157894736842" y="141.46315789473687"/>
      <point x="473.77894736842103" y="219.17894736842106" type="curve"/>
      <point x="397.86315789473684" y="374.53684210526313" type="line"/>
      <point x="392.43157894736845" y="349.8421052631579" type="line"/>
      <point x="532.4210526315791" y="511.2421052631579" type="line"/>
      <point x="582.8105263157895" y="569.4947368421053"/>
      <point x="645.0210526315789" y="639.2842105263159"/>
      <point x="715.2736842105263" y="713.0" type="curve"/>
      <point x="613.1684210526316" y="713.0" type="line"/>
      <point x="560.578947368421" y="648.4"/>
      <point x="508.4526315789473" y="582.6947368421053"/>
      <point x="458.25263157894733" y="524.9894736842106" type="curve"/>
      <point x="362.77894736842103" y="413.3263157894737" type="line"/>
      <point x="354.9894736842105" y="413.3263157894737" type="line"/>
      <point x="303.7578947368421" y="523.3473684210527" type="line"/>
      <point x="277.41052631578947" y="580.2315789473683"/>
      <point x="249.31578947368422" y="646.1157894736842"/>
      <point x="222.93684210526317" y="713.0" type="curve"/>
      <point x="132.58947368421053" y="713.0" type="line"/>
      <point x="175.76842105263157" y="633.3578947368421"/>
      <point x="208.08421052631581" y="565.6421052631579"/>
      <point x="239.39999999999998" y="498.9263157894737" type="curve"/>
      <point x="307.4947368421053" y="353.2105263157895" type="line"/>
      <point x="312.2842105263158" y="377.01052631578943" type="line"/>
      <point x="162.54736842105262" y="201.86315789473684" type="line"/>
      <point x="99.87368421052632" y="128.61052631578949"/>
      <point x="42.84210526315789" y="64.07368421052631"/>
    </contour>
  </outline>
</glyph>
<glyph name="Y" format="2">
  <advance width="644.0315789473684"/>
  <unicode hex="0059"/>
  <anchor x="270.87368421052633" y="0.0" name="bottom"/>
  <anchor x="421.23157894736846" y="713.0" name="top"/>
  <anchor x="117.82105263157895" y="713.0" name="topleft"/>
  <outline>
    <contour>
      <point x="300.2631578947369" y="286.0421052631579" type="line"/>
      <point x="363.36842105263156" y="286.0421052631579" type="line"/>
      <point x="577.042105263158" y="545.4526315789474" type="line"/>
      <point x="621.6842105263158" y="599.6"/>
      <point x="669.3263157894737" y="656.2105263157895"/>
      <point x="721.0105263157894" y="713.0" type="curve"/>
      <point x="621.3684210526316" y="713.0" type="line"/>
      <point x="548.6105263157895" y="616.2631578947368"/>
      <point x="508.8736842105263" y="565.2"/>
      <point x="444.6421052631579" y="484.7473684210526" type="curve"/>
      <point x="347.0631578947369" y="363.1578947368421" type="line"/>
      <point x="339.4526315789474" y="363.1578947368421" type="line"/>
      <point x="290.7578947368421" y="489.0315789473684" type="line"/>
      <point x="260.4842105263158" y="566.021052631579"/>
      <point x="243.42105263157893" y="613.8"/>
      <point x="209.90526315789472" y="713.0" type="curve"/>
      <point x="121.66315789473686" y="713.0" type="line"/>
      <point x="153.8105263157895" y="647.0315789473684"/>
      <point x="173.98947368421054" y="600.421052631579"/>
      <point x="196.09473684210525" y="545.4526315789474" type="curve"/>
    </contour>
    <contour>
      <point x="230.86315789473687" y="0.0" type="curve"/>
      <point x="312.2421052631579" y="0.0" type="line"/>
      <point x="324.27368421052626" y="79.74736842105263"/>
      <point x="337.021052631579" y="147.03157894736842"/>
      <point x="356.0210526315789" y="236.38947368421051" type="curve"/>
      <point x="379.13684210526316" y="344.4315789473684" type="line"/>
      <point x="308.66315789473686" y="344.4315789473684" type="line"/>
      <point x="285.5473684210527" y="236.38947368421051" type="line"/>
      <point x="267.3684210526316" y="148.67368421052632"/>
      <point x="251.47368421052633" y="79.74736842105263"/>
    </contour>
  </outline>
</glyph>
<glyph name="Z" format="2">
  <advance width="667.0526315789474"/>
  <unicode hex="005A"/>
  <anchor x="281.7578947368421" y="0.0" name="bottom"/>
  <anchor x="356.7578947368421" y="357.0" name="center"/>
  <anchor x="431.7578947368421" y="713.0" name="top"/>
  <outline>
    <contour>
      <point x="-1.6526315789473678" y="0.0" type="line"/>
      <point x="560.2421052631579" y="0.0" type="line"/>
      <point x="575.4000000000001" y="70.17894736842105" type="line"/>
      <point x="490.87368421052633" y="62.67368421052631"/>
      <point x="355.92631578947373" y="61.421052631578945"/>
      <point x="263.6526315789474" y="61.421052631578945" type="curve"/>
      <point x="71.46315789473684" y="61.421052631578945" type="line"/>
      <point x="84.53684210526316" y="27.54736842105263" type="line"/>
      <point x="458.69473684210527" y="414.2736842105263" type="line"/>
      <point x="536.7894736842105" y="495.36842105263156"/>
      <point x="615.2421052631579" y="576.2842105263157"/>
      <point x="693.978947368421" y="653.5157894736842" type="curve"/>
      <point x="706.5263157894736" y="713.0" type="line"/>
      <point x="155.6" y="713.0" type="line"/>
      <point x="141.26315789473685" y="642.9263157894736" type="line"/>
      <point x="246.71578947368423" y="649.5052631578948"/>
      <point x="345.34736842105264" y="651.578947368421"/>
      <point x="432.15789473684214" y="651.578947368421" type="curve"/>
      <point x="642.6315789473683" y="651.578947368421" type="line"/>
      <point x="619.6315789473684" y="678.8842105263158" type="line"/>
      <point x="266.82105263157894" y="312.4315789473684" type="line"/>
      <point x="188.83157894736843" y="231.44210526315788"/>
      <point x="79.81052631578949" y="118.77894736842106"/>
      <point x="9.821052631578949" y="51.83157894736842" type="curve"/>
    </contour>
  </outline>
</glyph>
<glyph name="bracketleft" format="2">
  <advance width="362.89473684210526"/>
  <unicode hex="005B"/>
  <outline>
    <contour>
      <point x="20.578947368421048" y="-115.22105263157894" type="curve"/>
      <point x="92.18947368421053" y="-115.22105263157894" type="line"/>
      <point x="93.62105263157895" y="-104.77894736842106" type="line"/>
      <point x="105.65263157894735" y="-25.03157894736842"/>
      <point x="119.22105263157894" y="43.89473684210526"/>
      <point x="137.4" y="131.61052631578949" type="curve"/>
      <point x="218.50526315789475" y="516.3157894736842" type="line"/>
      <point x="236.86315789473684" y="604.7473684210527"/>
      <point x="252.7578947368421" y="674.2105263157895"/>
      <point x="274.36842105263156" y="754.4947368421052" type="curve"/>
      <point x="276.79999999999995" y="764.1157894736842" type="line"/>
      <point x="205.1894736842105" y="764.1157894736842" type="line"/>
      <point x="191.62105263157895" y="684.6526315789473"/>
      <point x="178.05263157894737" y="613.5473684210526"/>
      <point x="159.69473684210524" y="525.9368421052632" type="curve"/>
      <point x="74.72631578947367" y="121.16842105263157" type="line"/>
      <point x="56.547368421052624" y="34.27368421052632"/>
      <point x="40.652631578947364" y="-35.473684210526315"/>
    </contour>
    <contour>
      <point x="76.74736842105264" y="-115.22105263157894" type="line"/>
      <point x="272.6" y="-115.22105263157894" type="line"/>
      <point x="284.5052631578947" y="-56.48421052631579" type="line"/>
      <point x="236.4" y="-59.09473684210527"/>
      <point x="185.29473684210527" y="-59.631578947368425"/>
      <point x="127.72631578947369" y="-59.631578947368425" type="curve"/>
      <point x="88.11578947368422" y="-59.631578947368425" type="line"/>
    </contour>
    <contour>
      <point x="246.94736842105263" y="708.5263157894736" type="line"/>
      <point x="284.8105263157895" y="708.5263157894736" type="line"/>
      <point x="353.37894736842105" y="708.5263157894736"/>
      <point x="400.30526315789473" y="707.4526315789474"/>
      <point x="444.2315789473684" y="705.378947368421" type="curve"/>
      <point x="457.13684210526316" y="764.1157894736842" type="line"/>
      <point x="258.4947368421053" y="764.1157894736842" type="line"/>
    </contour>
  </outline>
</glyph>
<glyph name="backslash" format="2">
  <advance width="446.41052631578947"/>
  <unicode hex="005C"/>
  <outline>
    <contour>
      <point x="294.21052631578954" y="0.0" type="curve"/>
      <point x="365.0" y="0.0" type="line"/>
      <point x="345.5684210526316" y="74.0"/>
      <point x="327.74736842105267" y="137.0"/>
      <point x="306.3578947368421" y="228.0" type="curve"/>
      <point x="249.11578947368417" y="475.17894736842106" type="line"/>
      <point x="227.54736842105265" y="570.0"/>
      <point x="212.97894736842107" y="636.8210526315789"/>
      <point x="198.73684210526315" y="713.0" type="curve"/>
      <point x="128.30526315789473" y="713.0" type="line"/>
      <point x="150.55789473684214" y="636.0"/>
      <point x="166.84210526315786" y="571.8210526315789"/>
      <point x="188.41052631578944" y="474.82105263157894" type="curve"/>
      <point x="245.4736842105263" y="228.0" type="line"/>
      <point x="267.0421052631579" y="137.0"/>
      <point x="280.78947368421046" y="74.0"/>
    </contour>
  </outline>
</glyph>
<glyph name="asciicircum" format="2">
  <advance width="602.1684210526316"/>
  <unicode hex="005E"/>
  <outline>
    <contour>
      <point x="508.6947368421052" y="384.1578947368421" type="curve"/>
      <point x="568.9263157894736" y="385.33684210526314" type="line"/>
      <point x="520.2526315789473" y="485.09473684210525"/>
      <point x="475.2210526315789" y="585.3157894736842"/>
      <point x="434.87368421052633" y="685.0736842105263" type="curve"/>
      <point x="339.3894736842105" y="685.0736842105263" type="line"/>
      <point x="262.5789473684211" y="587.4947368421052"/>
      <point x="181.18947368421053" y="489.84210526315786"/>
      <point x="91.94736842105262" y="387.33684210526314" type="curve"/>
      <point x="161.0421052631579" y="387.33684210526314" type="line"/>
      <point x="235.77894736842106" y="467.61052631578946"/>
      <point x="307.4421052631579" y="548.3473684210526"/>
      <point x="378.28421052631575" y="628.621052631579" type="curve"/>
      <point x="385.89473684210526" y="628.621052631579" type="line"/>
      <point x="426.13684210526316" y="547.3473684210526"/>
      <point x="465.37894736842105" y="465.4315789473684"/>
    </contour>
  </outline>
</glyph>
<glyph name="underscore" format="2">
  <advance width="394.31578947368416"/>
  <unicode hex="005F"/>
  <outline>
    <contour>
      <point x="-86.01052631578948" y="-112.54736842105262" type="line"/>
      <point x="-24.147368421052633" y="-110.36842105263158"/>
      <point x="34.78947368421053" y="-109.83157894736841"/>
      <point x="83.7578947368421" y="-109.47368421052632" type="curve"/>
      <point x="160.89473684210526" y="-109.47368421052632" type="line"/>
      <point x="209.50526315789472" y="-109.83157894736841"/>
      <point x="268.08421052631576" y="-110.36842105263158"/>
      <point x="328.30526315789473" y="-112.54736842105262" type="curve"/>
      <point x="341.38947368421054" y="-51.55789473684211" type="line"/>
      <point x="279.34736842105264" y="-53.736842105263165"/>
      <point x="220.41052631578947" y="-54.27368421052632"/>
      <point x="171.62105263157895" y="-54.631578947368425" type="curve"/>
      <point x="94.48421052631579" y="-54.631578947368425" type="line"/>
      <point x="45.69473684210526" y="-54.27368421052632"/>
      <point x="-12.88421052631579" y="-53.736842105263165"/>
      <point x="-72.92631578947369" y="-51.55789473684211" type="curve"/>
    </contour>
  </outline>
</glyph>
<glyph name="a" format="2">
  <advance width="522.6436781609195"/>
  <unicode hex="0061"/>
  <anchor x="210.00000000000003" y="0.0" name="bottom"/>
  <anchor x="388.2413793103448" y="0.0" name="ogonek"/>
  <anchor x="316.0" y="495.5632183908046" name="top"/>
  <outline>
    <contour>
      <point x="171.05747126436782" y="-9.781609195402298" type="curve" smooth="yes"/>
      <point x="232.66666666666669" y="-9.781609195402298"/>
      <point x="298.367816091954" y="26.781609195402297"/>
      <point x="340.2413793103448" y="74.74712643678163" type="curve"/>
      <point x="347.8045977011494" y="74.74712643678163" type="line"/>
      <point x="352.2413793103448" y="0.0" type="line"/>
      <point x="418.632183908046" y="0.0" type="line"/>
      <point x="411.45977011494256" y="55.735632183908045"/>
      <point x="409.8045977011494" y="103.2528735632184"/>
      <point x="418.58620689655174" y="145.98850574712645" type="curve"/>
      <point x="432.632183908046" y="211.0" type="line" smooth="yes"/>
      <point x="442.2413793103448" y="254.04597701149427"/>
      <point x="450.632183908046" y="287.6551724137931"/>
      <point x="457.02298850574715" y="317.2183908045977" type="curve" smooth="yes"/>
      <point x="481.19540229885064" y="429.3448275862069"/>
      <point x="426.7701149425288" y="506.3448275862069"/>
      <point x="300.2183908045977" y="506.3448275862069" type="curve" smooth="yes"/>
      <point x="250.48275862068965" y="506.3448275862069"/>
      <point x="175.18390804597703" y="485.90804597701145"/>
      <point x="127.01149425287356" y="474.080459770115" type="curve"/>
      <point x="116.54022988505747" y="406.1609195402299" type="line"/>
      <point x="192.41379310344826" y="432.9885057471264"/>
      <point x="260.0574712643678" y="448.55172413793105"/>
      <point x="286.4942528735632" y="448.55172413793105" type="curve" smooth="yes"/>
      <point x="371.2413793103448" y="448.55172413793105"/>
      <point x="414.7241379310345" y="407.85057471264366"/>
      <point x="392.5862068965517" y="315.51724137931035" type="curve"/>
      <point x="217.83908045977012" y="283.0344827586207" type="line" smooth="yes"/>
      <point x="135.0574712643678" y="267.81609195402297"/>
      <point x="55.79310344827586" y="245.6896551724138"/>
      <point x="35.183908045977006" y="152.6896551724138" type="curve" smooth="yes"/>
      <point x="14.57471264367816" y="61.08045977011494"/>
      <point x="72.44827586206897" y="-9.781609195402298"/>
    </contour>
    <contour>
      <point x="190.0344827586207" y="45.44827586206897" type="curve" smooth="yes"/>
      <point x="126.49425287356323" y="45.44827586206897"/>
      <point x="86.8735632183908" y="79.58620689655173"/>
      <point x="100.9655172413793" y="148.7816091954023" type="curve" smooth="yes"/>
      <point x="112.62068965517241" y="205.6206896551724"/>
      <point x="167.33333333333334" y="220.83908045977012"/>
      <point x="232.7816091954023" y="233.88505747126436" type="curve" smooth="yes"/>
      <point x="335.58620689655174" y="254.75862068965515"/>
      <point x="362.67816091954023" y="263.9770114942529"/>
      <point x="381.7241379310345" y="272.7586206896552" type="curve"/>
      <point x="355.8045977011495" y="150.64367816091954" type="line"/>
      <point x="298.0574712643678" y="72.49425287356323"/>
      <point x="232.0919540229885" y="45.44827586206897"/>
    </contour>
  </outline>
</glyph>
<glyph name="b" format="2">
  <advance width="591.4315789473684"/>
  <unicode hex="0062"/>
  <outline>
    <contour>
      <point x="293.06315789473683" y="-10.25263157894737" type="curve" smooth="yes"/>
      <point x="413.9894736842105" y="-10.25263157894737"/>
      <point x="501.4842105263158" y="78.68421052631578"/>
      <point x="531.4842105263158" y="222.14736842105262" type="curve" smooth="yes"/>
      <point x="562.6631578947369" y="372.5052631578947"/>
      <point x="504.2421052631579" y="506.5052631578947"/>
      <point x="355.3578947368421" y="506.5052631578947" type="curve" smooth="yes"/>
      <point x="303.578947368421" y="506.5052631578947"/>
      <point x="240.23157894736843" y="471.08421052631576"/>
      <point x="204.41052631578947" y="437.11578947368423" type="curve"/>
      <point x="196.62105263157895" y="437.11578947368423" type="line"/>
      <point x="208.7263157894737" y="493.82105263157894" type="line"/>
      <point x="227.08421052631581" y="580.7894736842105"/>
      <point x="246.23157894736843" y="661.0421052631579"/>
      <point x="269.4842105263158" y="742.1473684210526" type="curve"/>
      <point x="183.99999999999997" y="729.5368421052632" type="line"/>
      <point x="175.7578947368421" y="655.5684210526316"/>
      <point x="162.01052631578946" y="577.7473684210527"/>
      <point x="144.36842105263156" y="493.82105263157894" type="curve"/>
      <point x="86.18947368421053" y="219.56842105263158" type="line"/>
      <point x="69.01052631578948" y="138.03157894736842"/>
      <point x="53.294736842105266" y="73.92631578947369"/>
      <point x="33.86315789473684" y="0.0" type="curve"/>
      <point x="91.6736842105263" y="0.0" type="line"/>
      <point x="116.7157894736842" y="77.5263157894737" type="line"/>
      <point x="123.96842105263158" y="77.5263157894737" type="line"/>
      <point x="164.82105263157894" y="26.06315789473684"/>
      <point x="234.85263157894738" y="-10.25263157894737"/>
    </contour>
    <contour>
      <point x="280.71578947368425" y="49.663157894736834" type="curve"/>
      <point x="226.30526315789476" y="50.02105263157894"/>
      <point x="169.78947368421055" y="82.29473684210527"/>
      <point x="133.4105263157895" y="138.2736842105263" type="curve"/>
      <point x="182.0421052631579" y="367.40000000000003" type="line"/>
      <point x="228.1684210526316" y="414.7789473684211"/>
      <point x="288.5052631578947" y="446.12631578947367"/>
      <point x="333.2421052631579" y="447.12631578947367" type="curve"/>
      <point x="449.63157894736844" y="444.12631578947367"/>
      <point x="490.3684210526316" y="346.93684210526317"/>
      <point x="465.94736842105266" y="228.29473684210527" type="curve" smooth="yes"/>
      <point x="444.63157894736844" y="126.17894736842103"/>
      <point x="386.14736842105265" y="52.84210526315788"/>
    </contour>
  </outline>
</glyph>
<glyph name="c" format="2">
  <advance width="496.9894736842105"/>
  <unicode hex="0063"/>
  <anchor x="234.9578947368421" y="0.0" name="bottom"/>
  <anchor x="331.9263157894737" y="495.4315789473684" name="top"/>
  <outline>
    <contour>
      <point x="279.32631578947365" y="-9.715789473684211" type="curve" smooth="yes"/>
      <point x="324.3578947368421" y="-9.715789473684211"/>
      <point x="375.64210526315793" y="7.031578947368422"/>
      <point x="402.64210526315793" y="19.957894736842107" type="curve"/>
      <point x="408.18947368421055" y="86.4421052631579" type="line"/>
      <point x="372.4421052631579" y="65.51578947368421"/>
      <point x="324.5157894736842" y="49.41052631578948"/>
      <point x="287.5578947368421" y="48.58947368421053" type="curve" smooth="yes"/>
      <point x="163.97894736842105" y="50.58947368421053"/>
      <point x="94.8842105263158" y="131.21052631578945"/>
      <point x="123.8421052631579" y="266.6421052631579" type="curve" smooth="yes"/>
      <point x="148.8" y="382.2526315789474"/>
      <point x="227.70526315789476" y="442.12631578947367"/>
      <point x="327.8210526315789" y="447.12631578947367" type="curve"/>
      <point x="361.95789473684215" y="447.12631578947367"/>
      <point x="417.2736842105263" y="432.0210526315789"/>
      <point x="472.1684210526316" y="399.91578947368424" type="curve"/>
      <point x="490.6842105263158" y="462.2947368421053" type="line"/>
      <point x="450.14736842105265" y="481.22105263157897"/>
      <point x="387.17894736842106" y="506.3263157894737"/>
      <point x="328.46315789473687" y="506.3263157894737" type="curve" smooth="yes"/>
      <point x="190.94736842105263" y="506.3263157894737"/>
      <point x="86.8421052631579" y="411.86315789473684"/>
      <point x="58.48421052631579" y="274.9684210526316" type="curve" smooth="yes"/>
      <point x="24.410526315789475" y="109.03157894736843"/>
      <point x="112.60000000000001" y="-9.715789473684211"/>
    </contour>
  </outline>
</glyph>
<glyph name="g" format="2">
  <advance width="540.6896551724138"/>
  <unicode hex="0067"/>
  <anchor x="184.55172413793105" y="-192.0" name="bottom"/>
  <anchor x="305.68965517241384" y="495.5632183908046" name="top"/>
  <outline>
    <contour>
      <point x="174.12643678160916" y="-201.7816091954023" type="curve" smooth="yes"/>
      <point x="287.0344827586207" y="-201.7816091954023"/>
      <point x="404.33333333333337" y="-157.5632183908046"/>
      <point x="424.89655172413796" y="-60.747126436781606" type="curve" smooth="yes"/>
      <point x="441.45977011494256" y="17.45977011494253"/>
      <point x="386.3333333333333" y="71.41379310344828"/>
      <point x="252.45977011494256" y="71.41379310344828" type="curve" smooth="yes"/>
      <point x="214.77011494252872" y="71.41379310344828" type="line" smooth="yes"/>
      <point x="150.52873563218392" y="71.41379310344828"/>
      <point x="129.66666666666669" y="94.25287356321839"/>
      <point x="134.88505747126436" y="120.1264367816092" type="curve" smooth="yes"/>
      <point x="140.93103448275863" y="148.09195402298852"/>
      <point x="178.5402298850575" y="159.48275862068965"/>
      <point x="255.55172413793105" y="169.91954022988506" type="curve" smooth="yes"/>
      <point x="351.42528735632186" y="183.13793103448276"/>
      <point x="429.5057471264368" y="221.9655172413793"/>
      <point x="449.5057471264368" y="320.21839080459773" type="curve" smooth="yes"/>
      <point x="460.72413793103453" y="376.6551724137931"/>
      <point x="444.11494252873564" y="429.1379310344828"/>
      <point x="386.97701149425285" y="469.35632183908046" type="curve"/>
      <point x="367.1609195402299" y="452.8045977011495" type="line"/>
      <point x="430.42528735632186" y="450.8045977011495"/>
      <point x="493.90804597701157" y="447.2413793103449"/>
      <point x="559.1724137931034" y="439.33333333333337" type="curve"/>
      <point x="571.2528735632184" y="495.95402298850576" type="line"/>
      <point x="398.72413793103453" y="495.95402298850576" type="line" smooth="yes"/>
      <point x="348.0344827586207" y="495.95402298850576"/>
      <point x="327.4712643678161" y="506.3448275862069"/>
      <point x="273.48275862068965" y="506.3448275862069" type="curve" smooth="yes"/>
      <point x="172.66666666666666" y="506.3448275862069"/>
      <point x="95.79310344827586" y="458.04597701149424"/>
      <point x="76.57471264367815" y="365.1724137931035" type="curve" smooth="yes"/>
      <point x="57.57471264367817" y="273.1724137931035"/>
      <point x="125.01149425287356" y="212.78160919540227"/>
      <point x="159.7471264367816" y="194.39080459770116" type="curve"/>
      <point x="159.7471264367816" y="187.82758620689654" type="line"/>
      <point x="115.13793103448275" y="177.4367816091954"/>
      <point x="82.01149425287356" y="156.82758620689654"/>
      <point x="73.01149425287356" y="117.26436781609196" type="curve" smooth="yes"/>
      <point x="63.01149425287356" y="71.48275862068965"/>
      <point x="95.40229885057471" y="46.701149425287355"/>
      <point x="110.22988505747126" y="39.310344827586206" type="curve"/>
      <point x="110.22988505747126" y="33.747126436781606" type="line"/>
      <point x="66.01149425287356" y="22.137931034482758"/>
      <point x="2.1379310344827616" y="-8.689655172413794"/>
      <point x="-10.080459770114938" y="-64.5632183908046" type="curve" smooth="yes"/>
      <point x="-29.471264367816087" y="-155.29885057471265"/>
      <point x="66.5632183908046" y="-201.7816091954023"/>
    </contour>
    <contour>
      <point x="179.98850574712645" y="-147.11494252873564" type="curve"/>
      <point x="114.63218390804597" y="-146.7241379310345"/>
      <point x="37.13793103448276" y="-124.67816091954023"/>
      <point x="50.62068965517241" y="-61.8735632183908" type="curve" smooth="yes"/>
      <point x="60.05747126436781" y="-17.25287356321839"/>
      <point x="131.20689655172416" y="6.011494252873562"/>
      <point x="175.81609195402294" y="15.402298850574713" type="curve"/>
      <point x="231.04597701149422" y="15.402298850574713" type="line" smooth="yes"/>
      <point x="349.7586206896551" y="15.402298850574713"/>
      <point x="372.6781609195402" y="-19.080459770114942"/>
      <point x="363.632183908046" y="-60.264367816091955" type="curve" smooth="yes"/>
      <point x="354.367816091954" y="-101.32183908045977"/>
      <point x="296.1379310344828" y="-145.16091954022988"/>
    </contour>
    <contour>
      <point x="227.98850574712642" y="219.75862068965517" type="curve"/>
      <point x="175.14942528735634" y="238.58620689655172"/>
      <point x="123.22988505747128" y="285.6896551724138"/>
      <point x="136.27586206896555" y="352.91954022988506" type="curve" smooth="yes"/>
      <point x="149.5402298850575" y="420.02298850574715"/>
      <point x="202.94252873563218" y="449.3333333333333"/>
      <point x="273.60919540229884" y="449.3333333333333" type="curve"/>
      <point x="346.4022988505747" y="449.3333333333333"/>
      <point x="404.0689655172414" y="397.367816091954"/>
      <point x="388.4137931034483" y="324.8735632183908" type="curve" smooth="yes"/>
      <point x="370.3218390804598" y="241.632183908046"/>
      <point x="294.21839080459773" y="226.80459770114945"/>
    </contour>
  </outline>
</glyph>
<glyph name="h" format="2">
  <advance width="573.3684210526317"/>
  <unicode hex="0068"/>
  <guideline x="61.684210526315795" y="719.1894736842105" angle="4.470799999999997"/>
  <anchor x="248.63157894736838" y="0.0" name="bottom"/>
  <anchor x="319.24210526315784" y="409.0" name="center"/>
  <anchor x="372.3578947368421" y="724.7894736842105" name="top"/>
  <outline>
    <contour>
      <point x="33.86315789473684" y="0.0" type="curve"/>
      <point x="108.76842105263158" y="0.0" type="line"/>
      <point x="121.62105263157896" y="73.92631578947369"/>
      <point x="133.3684210526316" y="138.03157894736842"/>
      <point x="150.0105263157895" y="217.2421052631579" type="curve"/>
      <point x="176.4" y="339.4421052631579" type="line"/>
      <point x="227.8842105263158" y="394.2105263157895"/>
      <point x="298.9684210526316" y="444.4421052631579"/>
      <point x="353.1263157894737" y="444.4421052631579" type="curve" smooth="yes"/>
      <point x="437.06315789473683" y="444.4421052631579"/>
      <point x="459.1263157894737" y="393.2736842105263"/>
      <point x="438.91578947368424" y="299.57894736842104" type="curve"/>
      <point x="422.06315789473683" y="217.2421052631579" type="line"/>
      <point x="405.42105263157896" y="138.03157894736842"/>
      <point x="389.88421052631577" y="73.92631578947369"/>
      <point x="370.81052631578945" y="0.0" type="curve"/>
      <point x="445.3578947368421" y="0.0" type="line"/>
      <point x="457.6736842105263" y="73.92631578947369"/>
      <point x="469.7789473684211" y="138.03157894736842"/>
      <point x="486.95789473684215" y="219.56842105263158" type="curve"/>
      <point x="494.95789473684215" y="257.74736842105267"/>
      <point x="502.5684210526316" y="286.32631578947365"/>
      <point x="508.5684210526316" y="313.6842105263158" type="curve" smooth="yes"/>
      <point x="535.0315789473684" y="434.25263157894733"/>
      <point x="488.8526315789474" y="506.5052631578947"/>
      <point x="378.9263157894737" y="506.5052631578947" type="curve" smooth="yes"/>
      <point x="315.22105263157897" y="506.5052631578947"/>
      <point x="240.4105263157895" y="453.23157894736846"/>
      <point x="198.48421052631582" y="414.1578947368421" type="curve"/>
      <point x="191.33684210526317" y="414.1578947368421" type="line"/>
      <point x="208.7263157894737" y="493.82105263157894" type="line"/>
      <point x="227.08421052631581" y="580.7894736842105"/>
      <point x="246.23157894736843" y="661.042105263158"/>
      <point x="269.48421052631585" y="742.1473684210526" type="curve"/>
      <point x="183.99999999999997" y="729.5368421052632" type="line"/>
      <point x="175.7578947368421" y="655.5684210526316"/>
      <point x="162.01052631578946" y="577.7473684210527"/>
      <point x="144.36842105263156" y="493.82105263157894" type="curve"/>
      <point x="86.18947368421053" y="219.56842105263158" type="line"/>
      <point x="69.01052631578948" y="138.03157894736842"/>
      <point x="53.294736842105266" y="73.92631578947369"/>
    </contour>
  </outline>
</glyph>
<glyph name="k" format="2">
  <advance width="534.0736842105263"/>
  <unicode hex="006B"/>
  <anchor x="222.26315789473682" y="0.0" name="bottom"/>
  <anchor x="374.62105263157895" y="724.7894736842105" name="top"/>
  <outline>
    <contour>
      <point x="372.82105263157894" y="0.0" type="curve"/>
      <point x="465.978947368421" y="0.0" type="line"/>
      <point x="407.09473684210525" y="58.07368421052632"/>
      <point x="353.2842105263158" y="115.50526315789473"/>
      <point x="300.8315789473685" y="173.57894736842104" type="curve"/>
      <point x="214.2736842105263" y="270.09473684210525" type="line"/>
      <point x="224.10526315789474" y="237.49473684210525" type="line"/>
      <point x="329.05263157894734" y="321.9263157894737" type="line"/>
      <point x="401.5052631578948" y="379.82105263157894"/>
      <point x="475.59999999999997" y="437.53684210526313"/>
      <point x="552.7684210526317" y="495.4315789473684" type="curve"/>
      <point x="453.7894736842105" y="495.4315789473684" type="line"/>
      <point x="397.63157894736844" y="448.0421052631579"/>
      <point x="339.22105263157897" y="400.0105263157895"/>
      <point x="281.27368421052637" y="352.62105263157895" type="curve"/>
      <point x="185.5157894736842" y="275.30526315789473" type="line"/>
      <point x="154.0842105263158" y="275.30526315789473" type="line"/>
      <point x="143.78947368421052" y="226.90526315789475" type="line"/>
      <point x="170.6526315789474" y="226.90526315789475" type="line"/>
      <point x="251.15789473684208" y="140.02105263157895" type="line"/>
      <point x="292.82105263157894" y="93.34736842105264"/>
      <point x="333.9473684210526" y="46.67368421052632"/>
    </contour>
    <contour>
      <point x="33.86315789473684" y="0.0" type="curve"/>
      <point x="108.76842105263158" y="0.0" type="line"/>
      <point x="121.4421052631579" y="71.77894736842106"/>
      <point x="132.83157894736843" y="134.09473684210525"/>
      <point x="148.75789473684213" y="211.1578947368421" type="curve"/>
      <point x="208.7263157894737" y="493.82105263157894" type="line"/>
      <point x="227.08421052631581" y="580.7894736842105"/>
      <point x="246.23157894736843" y="661.042105263158"/>
      <point x="269.48421052631585" y="742.1473684210526" type="curve"/>
      <point x="183.99999999999997" y="729.5368421052632" type="line"/>
      <point x="175.7578947368421" y="655.5684210526316"/>
      <point x="162.01052631578946" y="577.7473684210527"/>
      <point x="144.36842105263156" y="493.82105263157894" type="curve"/>
      <point x="86.18947368421053" y="219.56842105263158" type="line"/>
      <point x="69.01052631578948" y="138.03157894736842"/>
      <point x="53.294736842105266" y="73.92631578947369"/>
    </contour>
  </outline>
</glyph>
<glyph name="m" format="2">
  <advance width="879.5052631578948"/>
  <unicode hex="006D"/>
  <anchor x="398.28421052631575" y="0.0" name="bottom"/>
  <anchor x="502.6421052631579" y="495.4315789473684" name="top"/>
  <outline>
    <contour>
      <point x="39.50526315789473" y="0.0" type="curve"/>
      <point x="114.41052631578948" y="0.0" type="line"/>
      <point x="127.26315789473685" y="73.92631578947369"/>
      <point x="139.01052631578946" y="138.03157894736842"/>
      <point x="155.65263157894736" y="217.2421052631579" type="curve"/>
      <point x="182.04210526315788" y="339.4421052631579" type="line"/>
      <point x="233.52631578947367" y="394.2105263157895"/>
      <point x="300.9684210526316" y="444.4421052631579"/>
      <point x="353.48421052631574" y="444.4421052631579" type="curve" smooth="yes"/>
      <point x="427.2105263157895" y="444.4421052631579"/>
      <point x="449.27368421052637" y="393.2736842105263"/>
      <point x="429.0631578947369" y="299.57894736842104" type="curve"/>
      <point x="412.2105263157895" y="217.2421052631579" type="line"/>
      <point x="395.5684210526316" y="138.03157894736842"/>
      <point x="380.0315789473684" y="73.92631578947369"/>
      <point x="360.95789473684215" y="0.0" type="curve"/>
      <point x="435.5052631578947" y="0.0" type="line"/>
      <point x="447.8210526315789" y="73.92631578947369"/>
      <point x="459.9263157894737" y="138.03157894736842"/>
      <point x="477.10526315789474" y="219.56842105263158" type="curve"/>
      <point x="485.10526315789474" y="257.74736842105267"/>
      <point x="492.7157894736842" y="286.3263157894737"/>
      <point x="498.7157894736842" y="313.6842105263158" type="curve" smooth="yes"/>
      <point x="504.07368421052627" y="339.11578947368423"/>
      <point x="506.7157894736842" y="361.5473684210526"/>
      <point x="505.99999999999994" y="382.4421052631579" type="curve"/>
      <point x="503.5684210526316" y="385.72631578947363" type="line"/>
      <point x="500.85263157894735" y="462.2210526315789"/>
      <point x="457.2105263157895" y="506.5052631578947"/>
      <point x="378.4631578947368" y="506.5052631578947" type="curve" smooth="yes"/>
      <point x="315.7894736842105" y="506.5052631578947"/>
      <point x="241.29473684210527" y="452.15789473684214"/>
      <point x="198.57894736842104" y="410.4736842105263" type="curve"/>
      <point x="191.4315789473684" y="410.4736842105263" type="line"/>
      <point x="201.3578947368421" y="499.6842105263158" type="line"/>
      <point x="136.89473684210526" y="495.4315789473684" type="line"/>
      <point x="130.93684210526317" y="419.82105263157894"/>
      <point x="118.01052631578946" y="342.0"/>
      <point x="102.83157894736843" y="269.5684210526316" type="curve"/>
      <point x="91.83157894736843" y="219.56842105263158" type="line"/>
      <point x="74.65263157894738" y="138.03157894736842"/>
      <point x="58.93684210526316" y="73.92631578947369"/>
    </contour>
    <contour>
      <point x="676.9473684210526" y="0.0" type="curve"/>
      <point x="751.4947368421052" y="0.0" type="line"/>
      <point x="763.8105263157894" y="73.92631578947369"/>
      <point x="775.9157894736842" y="138.03157894736842"/>
      <point x="793.0947368421052" y="219.56842105263158" type="curve"/>
      <point x="801.0947368421052" y="257.74736842105267"/>
      <point x="808.7052631578947" y="286.32631578947365"/>
      <point x="814.7052631578947" y="313.6842105263158" type="curve" smooth="yes"/>
      <point x="841.1684210526315" y="434.25263157894733"/>
      <point x="794.9894736842106" y="506.5052631578947"/>
      <point x="694.4526315789475" y="506.5052631578947" type="curve" smooth="yes"/>
      <point x="631.7789473684211" y="506.5052631578947"/>
      <point x="553.3578947368422" y="449.6947368421052"/>
      <point x="509.0" y="406.36842105263156" type="curve"/>
      <point x="500.0315789473684" y="406.36842105263156" type="line"/>
      <point x="498.03157894736836" y="339.4421052631579" type="line"/>
      <point x="549.5157894736842" y="394.2105263157895"/>
      <point x="616.9578947368421" y="444.4421052631579"/>
      <point x="669.4736842105264" y="444.4421052631579" type="curve" smooth="yes"/>
      <point x="743.2" y="444.4421052631579"/>
      <point x="765.2631578947369" y="393.2736842105263"/>
      <point x="745.0526315789473" y="299.57894736842104" type="curve"/>
      <point x="728.2" y="217.2421052631579" type="line"/>
      <point x="711.5578947368421" y="138.03157894736842"/>
      <point x="696.0210526315789" y="73.92631578947369"/>
    </contour>
  </outline>
</glyph>
<glyph name="n" format="2">
  <advance width="579.0105263157895"/>
  <unicode hex="006E"/>
  <anchor x="242.7157894736842" y="0.0" name="bottom"/>
  <anchor x="347.0736842105263" y="495.4315789473684" name="top"/>
  <outline>
    <contour>
      <point x="39.50526315789473" y="0.0" type="curve"/>
      <point x="114.41052631578948" y="0.0" type="line"/>
      <point x="127.26315789473685" y="73.92631578947369"/>
      <point x="139.01052631578946" y="138.03157894736842"/>
      <point x="155.65263157894736" y="217.2421052631579" type="curve"/>
      <point x="182.04210526315788" y="339.4421052631579" type="line"/>
      <point x="233.52631578947367" y="394.2105263157895"/>
      <point x="304.61052631578946" y="444.4421052631579"/>
      <point x="358.7684210526316" y="444.4421052631579" type="curve" smooth="yes"/>
      <point x="442.7052631578947" y="444.4421052631579"/>
      <point x="464.7684210526316" y="393.2736842105263"/>
      <point x="444.5578947368421" y="299.57894736842104" type="curve"/>
      <point x="427.7052631578947" y="217.2421052631579" type="line"/>
      <point x="411.06315789473683" y="138.03157894736842"/>
      <point x="395.52631578947364" y="73.92631578947369"/>
      <point x="376.4526315789474" y="0.0" type="curve"/>
      <point x="451.0" y="0.0" type="line"/>
      <point x="463.31578947368416" y="73.92631578947369"/>
      <point x="475.42105263157896" y="138.03157894736842"/>
      <point x="492.6" y="219.56842105263158" type="curve"/>
      <point x="500.6" y="257.74736842105267"/>
      <point x="508.2105263157895" y="286.32631578947365"/>
      <point x="514.2105263157895" y="313.6842105263158" type="curve" smooth="yes"/>
      <point x="540.6736842105263" y="434.25263157894733"/>
      <point x="494.4947368421053" y="506.5052631578947"/>
      <point x="384.56842105263155" y="506.5052631578947" type="curve" smooth="yes"/>
      <point x="319.0736842105264" y="506.5052631578947"/>
      <point x="241.4736842105263" y="452.15789473684214"/>
      <point x="198.57894736842104" y="410.4736842105263" type="curve"/>
      <point x="191.4315789473684" y="410.4736842105263" type="line"/>
      <point x="201.3578947368421" y="499.6842105263158" type="line"/>
      <point x="136.89473684210526" y="495.4315789473684" type="line"/>
      <point x="130.93684210526317" y="419.82105263157894"/>
      <point x="118.01052631578946" y="342.0"/>
      <point x="102.83157894736843" y="269.5684210526316" type="curve"/>
      <point x="91.83157894736843" y="219.56842105263158" type="line"/>
      <point x="74.65263157894738" y="138.03157894736842"/>
      <point x="58.93684210526316" y="73.92631578947369"/>
    </contour>
  </outline>
</glyph>
<glyph name="p" format="2">
  <advance width="597.0736842105264"/>
  <unicode hex="0070"/>
  <outline>
    <contour>
      <point x="-2.315789473684211" y="-194.7157894736842" type="curve"/>
      <point x="74.48421052631579" y="-192.0" type="line"/>
      <point x="85.80000000000001" y="-118.07368421052631"/>
      <point x="97.36842105263159" y="-53.96842105263158"/>
      <point x="114.83157894736843" y="25.242105263157896" type="curve"/>
      <point x="126.11578947368422" y="75.37894736842105" type="line"/>
      <point x="133.18947368421053" y="75.37894736842105" type="line"/>
      <point x="173.32631578947368" y="25.34736842105263"/>
      <point x="241.7473684210526" y="-10.25263157894737"/>
      <point x="298.7052631578947" y="-10.25263157894737" type="curve" smooth="yes"/>
      <point x="419.6315789473684" y="-10.25263157894737"/>
      <point x="507.12631578947367" y="78.68421052631578"/>
      <point x="537.1263157894738" y="222.14736842105262" type="curve" smooth="yes"/>
      <point x="568.3052631578948" y="372.5052631578947"/>
      <point x="509.88421052631577" y="506.5052631578947"/>
      <point x="361.0" y="506.5052631578947" type="curve" smooth="yes"/>
      <point x="306.9684210526316" y="506.5052631578947"/>
      <point x="241.36842105263156" y="469.36842105263156"/>
      <point x="203.47368421052636" y="432.61052631578946" type="curve"/>
      <point x="195.50526315789475" y="432.61052631578946" type="line"/>
      <point x="202.96842105263158" y="499.6842105263158" type="line"/>
      <point x="136.89473684210526" y="495.4315789473684" type="line"/>
      <point x="130.93684210526317" y="419.82105263157894"/>
      <point x="118.01052631578946" y="342.0"/>
      <point x="102.83157894736843" y="269.5684210526316" type="curve"/>
      <point x="51.01052631578947" y="27.568421052631578" type="line"/>
      <point x="33.83157894736842" y="-53.96842105263158"/>
      <point x="17.11578947368421" y="-120.78947368421052"/>
    </contour>
    <contour>
      <point x="286.3578947368421" y="49.663157894736834" type="curve"/>
      <point x="231.94736842105263" y="50.02105263157894"/>
      <point x="175.43157894736845" y="82.29473684210527"/>
      <point x="139.05263157894737" y="138.2736842105263" type="curve"/>
      <point x="187.68421052631578" y="367.40000000000003" type="line"/>
      <point x="233.8105263157895" y="414.7789473684211"/>
      <point x="294.1473684210526" y="446.12631578947367"/>
      <point x="338.88421052631577" y="447.12631578947367" type="curve"/>
      <point x="455.2736842105263" y="444.12631578947367"/>
      <point x="496.0105263157895" y="346.93684210526317"/>
      <point x="471.58947368421053" y="228.29473684210527" type="curve" smooth="yes"/>
      <point x="450.2736842105263" y="126.17894736842103"/>
      <point x="391.7894736842105" y="52.84210526315788"/>
    </contour>
  </outline>
</glyph>
<glyph name="q" format="2">
  <advance width="585.8947368421052"/>
  <unicode hex="0071"/>
  <outline>
    <contour>
      <point x="334.66315789473686" y="-194.7157894736842" type="curve"/>
      <point x="410.56842105263155" y="-192.0" type="line"/>
      <point x="423.4210526315789" y="-118.07368421052631"/>
      <point x="435.1684210526316" y="-53.96842105263158"/>
      <point x="452.34736842105264" y="27.568421052631578" type="curve"/>
      <point x="503.52631578947364" y="269.5684210526316" type="line"/>
      <point x="518.8842105263158" y="343.3578947368421"/>
      <point x="538.957894736842" y="422.7157894736842"/>
      <point x="564.2842105263159" y="499.6842105263158" type="curve"/>
      <point x="499.46315789473687" y="495.4315789473684" type="line"/>
      <point x="478.4631578947368" y="426.86315789473684" type="line"/>
      <point x="470.6736842105263" y="426.86315789473684" type="line"/>
      <point x="433.2842105263158" y="470.01052631578943"/>
      <point x="363.7894736842105" y="506.5052631578947"/>
      <point x="298.5473684210526" y="506.5052631578947" type="curve" smooth="yes"/>
      <point x="177.62105263157895" y="506.5052631578947"/>
      <point x="90.1263157894737" y="417.56842105263155"/>
      <point x="60.126315789473686" y="274.10526315789474" type="curve" smooth="yes"/>
      <point x="28.947368421052634" y="123.74736842105263"/>
      <point x="87.36842105263159" y="-10.25263157894737"/>
      <point x="236.25263157894736" y="-10.25263157894737" type="curve" smooth="yes"/>
      <point x="285.74736842105267" y="-10.25263157894737"/>
      <point x="347.91578947368424" y="20.06315789473684"/>
      <point x="389.66315789473686" y="68.81052631578947" type="curve"/>
      <point x="397.09473684210525" y="68.81052631578947" type="line"/>
      <point x="387.4526315789474" y="25.242105263157896" type="line"/>
      <point x="370.8105263157895" y="-53.96842105263158"/>
      <point x="354.09473684210525" y="-120.78947368421052"/>
    </contour>
    <contour>
      <point x="258.36842105263156" y="49.12631578947368" type="curve"/>
      <point x="141.97894736842105" y="51.30526315789473"/>
      <point x="100.42105263157895" y="150.13684210526313"/>
      <point x="125.66315789473684" y="267.9578947368421" type="curve" smooth="yes"/>
      <point x="147.8" y="371.7157894736842"/>
      <point x="205.46315789473684" y="443.41052631578947"/>
      <point x="310.89473684210526" y="446.58947368421053" type="curve"/>
      <point x="367.7684210526316" y="445.41052631578947"/>
      <point x="423.4631578947368" y="416.42105263157896"/>
      <point x="461.4842105263158" y="373.5789473684211" type="curve"/>
      <point x="413.67368421052635" y="150.2" type="line"/>
      <point x="372.4736842105263" y="88.0421052631579"/>
      <point x="313.7789473684211" y="50.94736842105262"/>
    </contour>
  </outline>
</glyph>
<glyph name="r" format="2">
  <advance width="401.87368421052633"/>
  <unicode hex="0072"/>
  <anchor x="72.47368421052632" y="0.0" name="bottom"/>
  <anchor x="285.0736842105263" y="495.4315789473684" name="top"/>
  <outline>
    <contour>
      <point x="39.50526315789473" y="0.0" type="curve"/>
      <point x="114.41052631578948" y="0.0" type="line"/>
      <point x="127.26315789473685" y="73.92631578947369"/>
      <point x="139.01052631578946" y="138.03157894736842"/>
      <point x="155.65263157894736" y="217.2421052631579" type="curve"/>
      <point x="174.57894736842107" y="304.69473684210527" type="line"/>
      <point x="245.12631578947367" y="416.47368421052636"/>
      <point x="307.2947368421053" y="440.3263157894737"/>
      <point x="344.64210526315793" y="440.3263157894737" type="curve" smooth="yes"/>
      <point x="362.4631578947368" y="440.3263157894737"/>
      <point x="380.82105263157894" y="436.7894736842105"/>
      <point x="407.43157894736845" y="426.6105263157895" type="curve"/>
      <point x="427.8105263157895" y="495.6842105263158" type="line"/>
      <point x="409.9894736842105" y="501.5052631578947"/>
      <point x="383.63157894736844" y="506.5052631578947"/>
      <point x="361.13684210526316" y="506.5052631578947" type="curve" smooth="yes"/>
      <point x="318.1368421052632" y="506.5052631578947"/>
      <point x="257.7894736842106" y="485.86315789473684"/>
      <point x="194.47368421052633" y="398.15789473684214" type="curve"/>
      <point x="187.32631578947368" y="398.15789473684214" type="line"/>
      <point x="201.3578947368421" y="499.6842105263158" type="line"/>
      <point x="136.89473684210526" y="495.4315789473684" type="line"/>
      <point x="130.93684210526317" y="419.82105263157894"/>
      <point x="118.01052631578946" y="342.0"/>
      <point x="102.83157894736843" y="269.5684210526316" type="curve"/>
      <point x="91.83157894736843" y="219.56842105263158" type="line"/>
      <point x="74.65263157894738" y="138.03157894736842"/>
      <point x="58.93684210526316" y="73.92631578947369"/>
    </contour>
  </outline>
</glyph>
<glyph name="s" format="2">
  <advance width="451.86206896551727"/>
  <unicode hex="0073"/>
  <anchor x="173.51724137931032" y="0.0" name="bottom"/>
  <anchor x="277.9080459770115" y="495.5632183908046" name="top"/>
  <outline>
    <contour>
      <point x="193.29885057471265" y="-10.172413793103448" type="curve" smooth="yes"/>
      <point x="300.11494252873564" y="-10.172413793103448"/>
      <point x="359.45977011494256" y="32.95402298850575"/>
      <point x="374.45977011494256" y="103.9080459770115" type="curve" smooth="yes"/>
      <point x="393.0689655172414" y="191.47126436781608"/>
      <point x="336.5402298850575" y="234.86206896551724"/>
      <point x="247.24137931034483" y="274.4252873563218" type="curve" smooth="yes"/>
      <point x="162.6206896551724" y="312.735632183908"/>
      <point x="148.183908045977" y="338.60919540229884"/>
      <point x="157.01149425287358" y="382.2298850574713" type="curve" smooth="yes"/>
      <point x="169.66666666666669" y="439.5057471264368"/>
      <point x="226.94252873563215" y="446.9425287356322"/>
      <point x="261.5977011494253" y="448.9425287356322" type="curve"/>
      <point x="286.5977011494253" y="448.9425287356322"/>
      <point x="338.2068965517241" y="435.7701149425287"/>
      <point x="399.42528735632186" y="403.3793103448276" type="curve"/>
      <point x="417.45977011494256" y="464.3448275862069" type="line"/>
      <point x="376.28735632183907" y="481.5632183908046"/>
      <point x="308.64367816091954" y="506.3448275862069"/>
      <point x="254.73563218390805" y="506.3448275862069" type="curve" smooth="yes"/>
      <point x="172.183908045977" y="506.3448275862069"/>
      <point x="107.40229885057471" y="465.0"/>
      <point x="91.83908045977012" y="391.35632183908046" type="curve" smooth="yes"/>
      <point x="74.44827586206897" y="311.7931034482759"/>
      <point x="115.71264367816092" y="270.88505747126436"/>
      <point x="200.27586206896552" y="231.27586206896552" type="curve" smooth="yes"/>
      <point x="290.2413793103448" y="189.57471264367817"/>
      <point x="319.7241379310345" y="164.91954022988506"/>
      <point x="308.28735632183907" y="112.816091954023" type="curve" smooth="yes"/>
      <point x="296.2413793103448" y="58.49425287356322"/>
      <point x="241.83908045977012" y="49.229885057471265"/>
      <point x="189.60919540229884" y="47.62068965517241" type="curve"/>
      <point x="146.3448275862069" y="47.62068965517241"/>
      <point x="90.04597701149426" y="69.183908045977"/>
      <point x="37.2183908045977" y="103.183908045977" type="curve"/>
      <point x="18.18390804597701" y="39.8735632183908" type="line"/>
      <point x="58.74712643678161" y="21.04597701149425"/>
      <point x="120.26436781609195" y="-10.172413793103448"/>
    </contour>
  </outline>
</glyph>
<glyph name="u" format="2">
  <advance width="557.2315789473685"/>
  <unicode hex="0075"/>
  <anchor x="226.57894736842104" y="0.0" name="bottom"/>
  <anchor x="426.61052631578946" y="0.0" name="ogonek"/>
  <anchor x="330.7578947368421" y="495.4315789473684" name="top"/>
  <anchor x="580.3789473684211" y="495.4315789473684" name="topright"/>
  <outline>
    <contour>
      <point x="194.36842105263156" y="-10.25263157894737" type="curve" smooth="yes"/>
      <point x="254.9368421052632" y="-10.25263157894737"/>
      <point x="332.53684210526313" y="44.09473684210527"/>
      <point x="375.43157894736845" y="85.77894736842104" type="curve"/>
      <point x="382.5789473684211" y="85.77894736842104" type="line"/>
      <point x="366.9052631578947" y="0.0" type="line"/>
      <point x="427.6842105263158" y="0.0" type="line"/>
      <point x="440.53684210526313" y="73.92631578947369"/>
      <point x="452.1052631578948" y="138.03157894736842"/>
      <point x="469.2842105263158" y="219.56842105263158" type="curve"/>
      <point x="480.64210526315793" y="271.3578947368421" type="line"/>
      <point x="498.3578947368421" y="355.7578947368421"/>
      <point x="514.0736842105264" y="421.5052631578947"/>
      <point x="534.1473684210526" y="495.4315789473684" type="curve"/>
      <point x="458.9578947368421" y="495.4315789473684" type="line"/>
      <point x="447.7473684210526" y="421.5052631578947"/>
      <point x="434.82105263157894" y="355.7578947368421"/>
      <point x="417.3578947368421" y="276.5473684210526" type="curve"/>
      <point x="391.6105263157895" y="155.91578947368424" type="line"/>
      <point x="340.1263157894737" y="101.14736842105263"/>
      <point x="269.0421052631579" y="50.915789473684214"/>
      <point x="219.81052631578947" y="50.915789473684214" type="curve" smooth="yes"/>
      <point x="135.8736842105263" y="50.915789473684214"/>
      <point x="113.81052631578947" y="102.08421052631579"/>
      <point x="133.84210526315786" y="195.77894736842106" type="curve"/>
      <point x="150.23157894736843" y="276.5473684210526" type="line"/>
      <point x="166.69473684210524" y="355.7578947368421"/>
      <point x="183.4105263157895" y="424.22105263157897"/>
      <point x="203.4842105263158" y="498.14736842105265" type="curve"/>
      <point x="126.7578947368421" y="495.4315789473684" type="line"/>
      <point x="115.54736842105262" y="421.5052631578947"/>
      <point x="103.33684210526316" y="356.11578947368423"/>
      <point x="84.8" y="271.3578947368421" type="curve"/>
      <point x="76.8" y="235.6421052631579"/>
      <point x="71.08421052631579" y="209.9263157894737"/>
      <point x="65.08421052631579" y="182.56842105263158" type="curve" smooth="yes"/>
      <point x="38.621052631578955" y="61.99999999999999"/>
      <point x="84.44210526315788" y="-10.25263157894737"/>
    </contour>
  </outline>
</glyph>
<glyph name="v" format="2">
  <advance width="511.5684210526316"/>
  <unicode hex="0076"/>
  <outline>
    <contour>
      <point x="163.90526315789475" y="0.0" type="curve"/>
      <point x="245.48421052631582" y="0.0" type="line"/>
      <point x="279.8736842105263" y="62.17894736842105"/>
      <point x="314.9789473684211" y="123.53684210526316"/>
      <point x="351.4421052631579" y="185.53684210526313" type="curve"/>
      <point x="403.7263157894737" y="273.89473684210526" type="line"/>
      <point x="446.36842105263156" y="347.2526315789474"/>
      <point x="490.83157894736837" y="422.2526315789474"/>
      <point x="538.3684210526316" y="495.4315789473684" type="curve"/>
      <point x="456.0315789473684" y="495.4315789473684" type="line"/>
      <point x="411.08421052631576" y="410.4842105263158"/>
      <point x="364.88421052631577" y="325.7473684210526"/>
      <point x="314.6842105263158" y="237.7263157894737" type="curve"/>
      <point x="220.5684210526316" y="71.32631578947368" type="line"/>
      <point x="212.77894736842106" y="71.32631578947368" type="line"/>
      <point x="188.22105263157894" y="237.7263157894737" type="line"/>
      <point x="174.79999999999998" y="325.7473684210526"/>
      <point x="162.91578947368419" y="410.66315789473686"/>
      <point x="153.21052631578945" y="498.14736842105265" type="curve"/>
      <point x="79.2" y="495.4315789473684" type="line"/>
      <point x="94.73684210526315" y="423.43157894736845"/>
      <point x="108.5578947368421" y="348.0736842105263"/>
      <point x="120.84210526315789" y="275.7157894736842" type="curve"/>
      <point x="135.30526315789476" y="187.53684210526316" type="line"/>
      <point x="145.76842105263157" y="127.0"/>
      <point x="155.69473684210527" y="62.17894736842105"/>
    </contour>
  </outline>
</glyph>
<glyph name="w" format="2">
  <advance width="799.3157894736843"/>
  <unicode hex="0077"/>
  <anchor x="347.7263157894737" y="0.0" name="bottom"/>
  <anchor x="451.90526315789475" y="495.4315789473684" name="top"/>
  <outline>
    <contour>
      <point x="138.90526315789472" y="0.0" type="curve"/>
      <point x="219.87368421052628" y="0.0" type="line"/>
      <point x="259.89473684210526" y="81.41052631578947"/>
      <point x="304.2736842105263" y="168.92631578947368"/>
      <point x="345.5473684210527" y="248.69473684210524" type="curve"/>
      <point x="425.45263157894743" y="403.58947368421053" type="line"/>
      <point x="432.8842105263158" y="403.58947368421053" type="line"/>
      <point x="448.7684210526316" y="251.23157894736843" type="line"/>
      <point x="456.62105263157895" y="171.92631578947368"/>
      <point x="465.1157894736842" y="79.76842105263157"/>
      <point x="470.89473684210526" y="0.0" type="curve"/>
      <point x="558.6210526315789" y="0.0" type="line"/>
      <point x="588.6526315789474" y="61.17894736842105"/>
      <point x="621.2947368421052" y="124.3578947368421"/>
      <point x="656.1157894736841" y="189.53684210526316" type="curve"/>
      <point x="702.7578947368421" y="276.53684210526313" type="line"/>
      <point x="741.7578947368421" y="349.2526315789474"/>
      <point x="780.578947368421" y="421.2526315789474"/>
      <point x="825.6526315789473" y="495.4315789473684" type="curve"/>
      <point x="743.1368421052632" y="495.4315789473684" type="line"/>
      <point x="707.2210526315789" y="418.5157894736842"/>
      <point x="657.8421052631578" y="321.85263157894735"/>
      <point x="614.3894736842104" y="237.29473684210527" type="curve"/>
      <point x="528.4842105263158" y="70.17894736842106" type="line"/>
      <point x="521.6947368421053" y="70.17894736842106" type="line"/>
      <point x="505.70526315789476" y="236.1157894736842" type="line"/>
      <point x="497.38947368421054" y="321.6736842105263"/>
      <point x="489.43157894736845" y="411.87368421052633"/>
      <point x="484.18947368421055" y="495.4315789473684" type="curve"/>
      <point x="412.0842105263158" y="495.4315789473684" type="line"/>
      <point x="369.59999999999997" y="406.58947368421053"/>
      <point x="326.14736842105265" y="320.38947368421054"/>
      <point x="282.51578947368426" y="234.4736842105263" type="curve"/>
      <point x="199.0736842105263" y="70.17894736842106" type="line"/>
      <point x="192.28421052631577" y="70.17894736842106" type="line"/>
      <point x="175.47368421052633" y="231.18947368421053" type="line"/>
      <point x="167.1578947368421" y="315.9263157894737"/>
      <point x="157.5578947368421" y="411.7684210526316"/>
      <point x="152.3157894736842" y="498.14736842105265" type="curve"/>
      <point x="77.30526315789474" y="495.4315789473684" type="line"/>
      <point x="91.37894736842105" y="420.43157894736845"/>
      <point x="100.19999999999999" y="349.89473684210526"/>
      <point x="108.66315789473684" y="276.53684210526313" type="curve"/>
      <point x="119.76842105263157" y="187.71578947368423" type="line"/>
      <point x="127.2315789473684" y="124.53684210526316"/>
      <point x="133.69473684210527" y="62.17894736842105"/>
    </contour>
  </outline>
</glyph>
<glyph name="x" format="2">
  <advance width="528.4315789473684"/>
  <unicode hex="0078"/>
  <outline>
    <contour>
      <point x="-23.442105263157895" y="0.0" type="curve"/>
      <point x="66.96842105263157" y="0.0" type="line"/>
      <point x="104.81052631578947" y="45.95789473684211"/>
      <point x="133.79999999999998" y="79.45263157894738"/>
      <point x="173.89473684210526" y="124.94736842105263" type="curve"/>
      <point x="252.0842105263158" y="212.68421052631578" type="line"/>
      <point x="258.5157894736842" y="212.68421052631578" type="line"/>
      <point x="305.2105263157895" y="122.41052631578948" type="line"/>
      <point x="328.55789473684206" y="77.45263157894738"/>
      <point x="344.978947368421" y="44.6"/>
      <point x="364.61052631578946" y="0.0" type="curve"/>
      <point x="446.58947368421053" y="0.0" type="line"/>
      <point x="408.1263157894737" y="63.07368421052631"/>
      <point x="386.2" y="102.96842105263157"/>
      <point x="359.9894736842105" y="151.14736842105262" type="curve"/>
      <point x="298.56842105263155" y="264.29473684210524" type="line"/>
      <point x="297.4631578947368" y="245.10526315789474" type="line"/>
      <point x="395.9578947368421" y="351.0" type="line"/>
      <point x="441.70526315789476" y="400.178947368421"/>
      <point x="470.5263157894737" y="430.89473684210526"/>
      <point x="533.6315789473686" y="495.4315789473684" type="curve"/>
      <point x="443.04210526315785" y="495.4315789473684" type="line"/>
      <point x="405.842105263158" y="449.47368421052636"/>
      <point x="376.3157894736842" y="415.62105263157895"/>
      <point x="338.32631578947365" y="372.58947368421053" type="curve"/>
      <point x="264.70526315789476" y="289.77894736842103" type="line"/>
      <point x="258.7368421052632" y="289.77894736842103" type="line"/>
      <point x="218.25263157894736" y="372.7684210526316" type="line"/>
      <point x="198.83157894736843" y="413.15789473684214"/>
      <point x="181.4105263157895" y="450.36842105263156"/>
      <point x="161.6" y="498.14736842105265" type="curve"/>
      <point x="84.30526315789473" y="495.4315789473684" type="line"/>
      <point x="119.41052631578948" y="434.0736842105263"/>
      <point x="137.5157894736842" y="398.35789473684207"/>
      <point x="163.3684210526316" y="347.53684210526313" type="curve"/>
      <point x="216.61052631578949" y="241.82105263157894" type="line"/>
      <point x="219.86315789473684" y="262.65263157894736" type="line"/>
      <point x="118.97894736842106" y="151.68421052631578" type="line"/>
      <point x="73.58947368421052" y="101.61052631578947"/>
      <point x="40.66315789473685" y="66.07368421052632"/>
    </contour>
  </outline>
</glyph>
<glyph name="y" format="2">
  <advance width="514.8526315789475"/>
  <unicode hex="0079"/>
  <anchor x="327.4526315789474" y="0.0" name="bottom"/>
  <anchor x="310.3368421052632" y="495.4315789473684" name="top"/>
  <outline>
    <contour>
      <point x="42.96842105263157" y="-194.7157894736842" type="curve"/>
      <point x="125.66315789473684" y="-192.0" type="line"/>
      <point x="165.33684210526317" y="-120.0"/>
      <point x="213.8" y="-38.28421052631579"/>
      <point x="290.90526315789475" y="88.71578947368421" type="curve"/>
      <point x="375.36842105263156" y="228.07368421052632" type="line"/>
      <point x="450.8315789473684" y="353.2526315789474"/>
      <point x="488.47368421052636" y="414.4315789473684"/>
      <point x="539.4736842105262" y="495.4315789473684" type="curve"/>
      <point x="457.67368421052635" y="495.4315789473684" type="line"/>
      <point x="411.72631578947363" y="409.05263157894734"/>
      <point x="364.70526315789476" y="325.6736842105263"/>
      <point x="313.5052631578947" y="236.83157894736843" type="curve"/>
      <point x="216.5684210526316" y="69.89473684210526" type="line"/>
      <point x="208.77894736842106" y="69.89473684210526" type="line"/>
      <point x="185.86315789473687" y="236.18947368421053" type="line"/>
      <point x="173.08421052631581" y="325.38947368421054"/>
      <point x="162.02105263157893" y="408.94736842105266"/>
      <point x="152.6736842105263" y="498.14736842105265" type="curve"/>
      <point x="78.66315789473684" y="495.4315789473684" type="line"/>
      <point x="94.37894736842105" y="424.2526315789474"/>
      <point x="107.02105263157894" y="348.2526315789474"/>
      <point x="118.48421052631579" y="277.0736842105263" type="curve"/>
      <point x="132.7684210526316" y="187.07368421052632" type="line"/>
      <point x="143.4105263157895" y="120.53684210526316"/>
      <point x="152.97894736842105" y="49.89473684210526"/>
      <point x="162.1894736842105" y="-18.28421052631579" type="curve"/>
      <point x="167.05263157894737" y="2.0842105263157897" type="line"/>
      <point x="129.05263157894737" y="-62.70526315789474"/>
      <point x="86.36842105263159" y="-129.9263157894737"/>
    </contour>
  </outline>
</glyph>
<glyph name="z" format="2">
  <advance width="491.66315789473686"/>
  <unicode hex="007A"/>
  <anchor x="191.8315789473684" y="0.0" name="bottom"/>
  <anchor x="244.01052631578946" y="247.7157894736842" name="center"/>
  <anchor x="296.1894736842105" y="495.4315789473684" name="top"/>
  <outline>
    <contour>
      <point x="-11.757894736842108" y="0.0" type="line"/>
      <point x="402.34736842105264" y="0.0" type="line"/>
      <point x="415.0736842105263" y="58.55789473684211" type="line"/>
      <point x="344.18947368421055" y="53.873684210526314"/>
      <point x="249.91578947368424" y="51.62105263157895"/>
      <point x="193.49473684210528" y="51.62105263157895" type="curve"/>
      <point x="68.54736842105264" y="51.62105263157895" type="line"/>
      <point x="76.58947368421053" y="36.357894736842105" type="line"/>
      <point x="286.0842105263158" y="252.31578947368422" type="line"/>
      <point x="349.7157894736842" y="317.76842105263154"/>
      <point x="430.4526315789474" y="398.89473684210526"/>
      <point x="480.7684210526316" y="448.421052631579" type="curve"/>
      <point x="490.42105263157896" y="495.4315789473684" type="line"/>
      <point x="93.85263157894737" y="495.4315789473684" type="line"/>
      <point x="80.94736842105263" y="435.9789473684211" type="line"/>
      <point x="157.83157894736843" y="442.021052631579"/>
      <point x="253.46315789473687" y="443.63157894736844"/>
      <point x="309.06315789473683" y="443.63157894736844" type="curve"/>
      <point x="422.2631578947368" y="443.63157894736844" type="line"/>
      <point x="412.61052631578946" y="468.2526315789474" type="line"/>
      <point x="202.14736842105262" y="249.89473684210526" type="line"/>
      <point x="142.33684210526317" y="187.7263157894737"/>
      <point x="71.52631578947367" y="115.81052631578947"/>
      <point x="-2.8210526315789495" y="41.78947368421053" type="curve"/>
    </contour>
  </outline>
</glyph>
<glyph name="cent" format="2">
  <advance width="496.9894736842105"/>
  <unicode hex="00A2"/>
  <anchor x="234.9578947368421" y="0.0" name="bottom"/>
  <anchor x="331.9263157894737" y="495.4315789473684" name="top"/>
  <outline>
    <contour>
      <point x="168.8" y="-137.0" type="curve"/>
      <point x="227.03157894736842" y="-137.0" type="line"/>
      <point x="248.06315789473683" y="-20.357894736842105"/>
      <point x="270.2421052631579" y="84.0"/>
      <point x="293.2421052631579" y="192.17894736842106" type="curve"/>
      <point x="315.2421052631579" y="294.7157894736842" type="line"/>
      <point x="338.2421052631579" y="402.89473684210526"/>
      <point x="360.2421052631579" y="506.7157894736842"/>
      <point x="389.0315789473684" y="623.8947368421053" type="curve"/>
      <point x="330.8" y="623.8947368421053" type="line"/>
      <point x="309.58947368421053" y="506.89473684210526"/>
      <point x="287.58947368421053" y="402.7157894736842"/>
      <point x="264.58947368421053" y="294.7157894736842" type="curve"/>
      <point x="242.58947368421053" y="192.17894736842106" type="line"/>
      <point x="219.7684210526316" y="84.71578947368421"/>
      <point x="197.58947368421053" y="-19.821052631578947"/>
    </contour>
    <contour>
      <point x="279.32631578947365" y="-9.715789473684211" type="curve" smooth="yes"/>
      <point x="324.3578947368421" y="-9.715789473684211"/>
      <point x="375.64210526315793" y="7.031578947368422"/>
      <point x="402.64210526315793" y="19.957894736842107" type="curve"/>
      <point x="408.18947368421055" y="86.4421052631579" type="line"/>
      <point x="372.4421052631579" y="65.51578947368421"/>
      <point x="324.5157894736842" y="49.41052631578948"/>
      <point x="287.5578947368421" y="48.58947368421053" type="curve" smooth="yes"/>
      <point x="163.97894736842105" y="50.58947368421053"/>
      <point x="94.8842105263158" y="131.21052631578945"/>
      <point x="123.8421052631579" y="266.6421052631579" type="curve" smooth="yes"/>
      <point x="148.8" y="382.2526315789474"/>
      <point x="227.70526315789476" y="442.12631578947367"/>
      <point x="327.8210526315789" y="447.12631578947367" type="curve"/>
      <point x="361.95789473684215" y="447.12631578947367"/>
      <point x="417.2736842105263" y="432.0210526315789"/>
      <point x="472.1684210526316" y="399.91578947368424" type="curve"/>
      <point x="490.6842105263158" y="462.2947368421053" type="line"/>
      <point x="450.14736842105265" y="481.22105263157897"/>
      <point x="387.17894736842106" y="506.3263157894737"/>
      <point x="328.46315789473687" y="506.3263157894737" type="curve" smooth="yes"/>
      <point x="190.94736842105263" y="506.3263157894737"/>
      <point x="86.8421052631579" y="411.86315789473684"/>
      <point x="58.48421052631579" y="274.9684210526316" type="curve" smooth="yes"/>
      <point x="24.410526315789475" y="109.03157894736843"/>
      <point x="112.60000000000001" y="-9.715789473684211"/>
    </contour>
  </outline>
</glyph>
<glyph name="sterling" format="2">
  <advance width="586.8736842105263"/>
  <unicode hex="00A3"/>
  <outline>
    <contour>
      <point x="15.663157894736838" y="0.0" type="line"/>
      <point x="500.5894736842105" y="0.0" type="line"/>
      <point x="514.7473684210527" y="66.64210526315789" type="line"/>
      <point x="427.178947368421" y="60.77894736842105"/>
      <point x="350.1473684210526" y="60.421052631578945"/>
      <point x="220.18947368421053" y="60.421052631578945" type="curve"/>
      <point x="75.94736842105263" y="60.421052631578945" type="line"/>
      <point x="86.6" y="39.45263157894737" type="line"/>
      <point x="179.56842105263158" y="114.69473684210527"/>
      <point x="198.03157894736842" y="176.6526315789474"/>
      <point x="210.31578947368422" y="232.78947368421052" type="curve" smooth="yes"/>
      <point x="260.05263157894734" y="465.05263157894734" type="line" smooth="yes"/>
      <point x="285.1894736842105" y="582.1684210526315"/>
      <point x="340.0736842105263" y="635.4421052631578"/>
      <point x="436.69473684210527" y="636.978947368421" type="curve"/>
      <point x="471.8315789473684" y="636.978947368421"/>
      <point x="528.9684210526316" y="621.8736842105263"/>
      <point x="585.8631578947369" y="590.4105263157895" type="curve"/>
      <point x="606.9894736842105" y="654.2947368421053" type="line"/>
      <point x="563.0210526315789" y="673.042105263158"/>
      <point x="495.5473684210526" y="697.7894736842105"/>
      <point x="432.6842105263158" y="697.7894736842105" type="curve" smooth="yes"/>
      <point x="311.41052631578947" y="697.7894736842105"/>
      <point x="223.54736842105262" y="626.3157894736843"/>
      <point x="192.18947368421053" y="475.9894736842105" type="curve" smooth="yes"/>
      <point x="175.26315789473682" y="399.1052631578947"/>
      <point x="156.41052631578947" y="298.6842105263158"/>
      <point x="139.76842105263157" y="219.29473684210527" type="curve"/>
      <point x="130.12631578947367" y="173.51578947368424"/>
      <point x="111.37894736842107" y="109.98947368421054"/>
      <point x="25.06315789473684" y="43.642105263157895" type="curve"/>
    </contour>
    <contour>
      <point x="83.30526315789474" y="350.35789473684207" type="line"/>
      <point x="145.3473684210526" y="353.25263157894733"/>
      <point x="203.38947368421051" y="353.4315789473684"/>
      <point x="253.07368421052635" y="353.4315789473684" type="curve"/>
      <point x="285.5789473684211" y="353.4315789473684" type="line"/>
      <point x="335.2631578947369" y="353.4315789473684"/>
      <point x="392.94736842105266" y="353.25263157894733"/>
      <point x="452.98947368421057" y="350.35789473684207" type="curve"/>
      <point x="465.00000000000006" y="406.33684210526314" type="line"/>
      <point x="403.7789473684211" y="403.4421052631579"/>
      <point x="345.7368421052632" y="403.2631578947368"/>
      <point x="296.0526315789474" y="403.2631578947368" type="curve"/>
      <point x="263.5473684210527" y="403.2631578947368" type="line"/>
      <point x="213.86315789473684" y="403.2631578947368"/>
      <point x="156.17894736842106" y="403.4421052631579"/>
      <point x="95.3157894736842" y="406.33684210526314" type="curve"/>
    </contour>
  </outline>
</glyph>
<glyph name="currency" format="2">
  <advance width="615.0315789473684"/>
  <unicode hex="00A4"/>
  <outline>
    <contour>
      <point x="307.62105263157895" y="120.15789473684211" type="curve" smooth="yes"/>
      <point x="418.9578947368421" y="120.15789473684211"/>
      <point x="494.2526315789474" y="176.23157894736843"/>
      <point x="517.8631578947368" y="294.95789473684215" type="curve" smooth="yes"/>
      <point x="542.2947368421053" y="416.5052631578947"/>
      <point x="459.0" y="520.3052631578947"/>
      <point x="336.5157894736842" y="520.3052631578947" type="curve" smooth="yes"/>
      <point x="230.92631578947368" y="520.3052631578947"/>
      <point x="148.42105263157896" y="465.05263157894734"/>
      <point x="124.81052631578947" y="346.3263157894737" type="curve" smooth="yes"/>
      <point x="100.37894736842105" y="223.95789473684212"/>
      <point x="181.85263157894735" y="120.15789473684211"/>
    </contour>
    <contour>
      <point x="90.49473684210525" y="58.78947368421053" type="line"/>
      <point x="133.10526315789477" y="102.47368421052632"/>
      <point x="175.0736842105263" y="141.62105263157895"/>
      <point x="211.22105263157894" y="175.58947368421053" type="curve"/>
      <point x="170.82105263157897" y="219.06315789473686" type="line"/>
      <point x="134.85263157894738" y="185.2736842105263"/>
      <point x="91.70526315789473" y="146.4842105263158"/>
      <point x="45.84210526315789" y="107.05263157894737" type="curve"/>
    </contour>
    <contour>
      <point x="311.7684210526316" y="178.2842105263158" type="curve"/>
      <point x="224.61052631578949" y="181.0"/>
      <point x="167.23157894736843" y="251.76842105263154"/>
      <point x="184.26315789473685" y="338.38947368421054" type="curve" smooth="yes"/>
      <point x="200.1157894736842" y="420.9368421052632"/>
      <point x="259.6" y="460.17894736842106"/>
      <point x="333.0842105263158" y="462.7157894736842" type="curve"/>
      <point x="418.13684210526316" y="459.82105263157894"/>
      <point x="475.8" y="388.69473684210527"/>
      <point x="458.94736842105266" y="303.61052631578946" type="curve" smooth="yes"/>
      <point x="442.0947368421053" y="218.9894736842105"/>
      <point x="390.0" y="180.2842105263158"/>
    </contour>
    <contour>
      <point x="196.56842105263158" y="414.18947368421055" type="curve"/>
      <point x="238.68421052631578" y="453.69473684210527" type="line"/>
      <point x="204.7157894736842" y="490.66315789473686"/>
      <point x="165.92631578947368" y="532.8105263157895"/>
      <point x="126.49473684210527" y="578.8526315789474" type="curve"/>
      <point x="79.7684210526316" y="534.7368421052631" type="line"/>
      <point x="122.81052631578947" y="492.94736842105266"/>
      <point x="162.77894736842106" y="450.15789473684214"/>
    </contour>
    <contour>
      <point x="520.178947368421" y="62.78947368421053" type="curve"/>
      <point x="566.9052631578948" y="106.90526315789474" type="line"/>
      <point x="523.8631578947368" y="148.69473684210527"/>
      <point x="483.89473684210526" y="191.4842105263158"/>
      <point x="450.10526315789474" y="227.45263157894735" type="curve"/>
      <point x="407.98947368421057" y="187.94736842105263" type="line"/>
      <point x="441.9578947368421" y="150.97894736842105"/>
      <point x="480.7473684210526" y="108.83157894736843"/>
    </contour>
    <contour>
      <point x="475.8526315789474" y="422.57894736842104" type="line"/>
      <point x="511.8210526315789" y="456.36842105263156"/>
      <point x="554.9684210526316" y="495.1578947368421"/>
      <point x="600.8315789473685" y="534.5894736842105" type="curve"/>
      <point x="556.178947368421" y="582.8526315789474" type="line"/>
      <point x="513.5684210526315" y="539.1684210526315"/>
      <point x="471.6" y="500.021052631579"/>
      <point x="435.4526315789474" y="466.0526315789474" type="curve"/>
    </contour>
  </outline>
</glyph>
<glyph name="yen" format="2">
  <advance width="617.3157894736843"/>
  <unicode hex="00A5"/>
  <outline>
    <contour>
      <point x="284.44210526315794" y="275.8315789473684" type="line"/>
      <point x="344.93684210526317" y="275.8315789473684" type="line"/>
      <point x="546.7894736842105" y="522.8842105263158" type="line"/>
      <point x="593.2526315789474" y="579.6736842105263"/>
      <point x="638.5368421052631" y="635.1052631578947"/>
      <point x="684.0421052631579" y="685.0736842105263" type="curve"/>
      <point x="590.978947368421" y="685.0736842105263" type="line"/>
      <point x="521.5052631578948" y="591.3368421052631"/>
      <point x="487.3368421052632" y="548.1999999999999"/>
      <point x="427.5684210526316" y="473.38947368421054" type="curve"/>
      <point x="329.1684210526316" y="349.9789473684211" type="line"/>
      <point x="321.7368421052632" y="349.9789473684211" type="line"/>
      <point x="276.5052631578948" y="469.0315789473684" type="line"/>
      <point x="248.05263157894734" y="543.9473684210526"/>
      <point x="231.81052631578947" y="590.0526315789474"/>
      <point x="200.1157894736842" y="685.0736842105263" type="curve"/>
      <point x="117.27368421052631" y="685.0736842105263" type="line"/>
      <point x="155.52631578947367" y="602.2105263157895"/>
      <point x="167.98947368421054" y="570.957894736842"/>
      <point x="187.09473684210525" y="522.3473684210526" type="curve"/>
    </contour>
    <contour>
      <point x="217.57894736842107" y="0.0" type="curve"/>
      <point x="295.4526315789474" y="0.0" type="line"/>
      <point x="306.5894736842105" y="76.74736842105263"/>
      <point x="320.23157894736846" y="142.67368421052632"/>
      <point x="338.23157894736846" y="226.03157894736842" type="curve"/>
      <point x="360.34736842105264" y="330.53684210526313" type="line"/>
      <point x="293.021052631579" y="330.53684210526313" type="line"/>
      <point x="270.9052631578948" y="226.21052631578948" type="line"/>
      <point x="252.90526315789475" y="142.85263157894738"/>
      <point x="238.90526315789478" y="76.74736842105263"/>
    </contour>
    <contour>
      <point x="61.021052631578954" y="144.01052631578946" type="line"/>
      <point x="122.24210526315788" y="146.90526315789472"/>
      <point x="180.1052631578947" y="147.0842105263158"/>
      <point x="229.78947368421052" y="147.0842105263158" type="curve"/>
      <point x="345.87368421052633" y="147.0842105263158" type="line"/>
      <point x="395.5578947368422" y="147.0842105263158"/>
      <point x="453.421052631579" y="146.90526315789472"/>
      <point x="514.2842105263157" y="144.01052631578946" type="curve"/>
      <point x="524.578947368421" y="195.5157894736842" type="line"/>
      <point x="463.3578947368421" y="193.5157894736842"/>
      <point x="405.4947368421053" y="193.33684210526314"/>
      <point x="355.81052631578945" y="193.33684210526314" type="curve"/>
      <point x="239.7263157894737" y="193.33684210526314" type="line"/>
      <point x="190.04210526315788" y="193.33684210526314"/>
      <point x="132.17894736842103" y="193.5157894736842"/>
      <point x="71.3157894736842" y="195.5157894736842" type="curve"/>
    </contour>
    <contour>
      <point x="90.16842105263157" y="283.6736842105263" type="line"/>
      <point x="152.03157894736842" y="285.6736842105263"/>
      <point x="209.89473684210526" y="285.85263157894735"/>
      <point x="259.5789473684211" y="285.85263157894735" type="curve"/>
      <point x="375.66315789473686" y="285.85263157894735" type="line"/>
      <point x="425.3473684210527" y="285.85263157894735"/>
      <point x="483.21052631578954" y="285.6736842105263"/>
      <point x="543.4315789473684" y="283.6736842105263" type="curve"/>
      <point x="554.5473684210526" y="335.17894736842106" type="line"/>
      <point x="493.1473684210527" y="332.2842105263158"/>
      <point x="435.28421052631586" y="332.10526315789474"/>
      <point x="385.6" y="332.10526315789474" type="curve"/>
      <point x="269.51578947368426" y="332.10526315789474" type="line"/>
      <point x="219.8315789473684" y="332.10526315789474"/>
      <point x="161.96842105263156" y="332.2842105263158"/>
      <point x="101.28421052631577" y="335.17894736842106" type="curve"/>
    </contour>
  </outline>
</glyph>
<glyph name="brokenbar" format="2">
  <advance width="259.30526315789473"/>
  <unicode hex="00A6"/>
  <outline>
    <contour>
      <point x="125.62105263157895" y="364.2105263157895" type="line"/>
      <point x="184.2526315789474" y="364.2105263157895" type="line"/>
      <point x="203.43157894736842" y="455.2105263157895" type="line"/>
      <point x="226.43157894736842" y="563.2105263157895"/>
      <point x="248.61052631578949" y="667.2105263157895"/>
      <point x="277.22105263157897" y="784.2105263157895" type="curve"/>
      <point x="211.01052631578946" y="784.2105263157895" type="line"/>
      <point x="189.62105263157892" y="667.2105263157895"/>
      <point x="167.79999999999998" y="563.2105263157895"/>
      <point x="144.79999999999998" y="455.2105263157895" type="curve"/>
    </contour>
    <contour>
      <point x="11.010526315789475" y="-155.78947368421052" type="curve"/>
      <point x="77.22105263157894" y="-155.78947368421052" type="line"/>
      <point x="98.61052631578947" y="-38.78947368421053"/>
      <point x="120.43157894736842" y="65.21052631578948"/>
      <point x="143.43157894736842" y="173.21052631578948" type="curve"/>
      <point x="162.43157894736842" y="264.2105263157895" type="line"/>
      <point x="103.8" y="264.2105263157895" type="line"/>
      <point x="84.8" y="173.21052631578948" type="line"/>
      <point x="61.800000000000004" y="65.21052631578948"/>
      <point x="39.442105263157906" y="-38.78947368421053"/>
    </contour>
  </outline>
</glyph>
<glyph name="ordfeminine" format="2">
  <advance width="392.6896551724138"/>
  <unicode hex="00AA"/>
  <outline>
    <contour>
      <point x="186.35632183908046" y="333.4367816091954" type="curve" smooth="yes"/>
      <point x="232.9655172413793" y="333.4367816091954"/>
      <point x="281.8390804597701" y="360.82758620689657"/>
      <point x="314.27586206896547" y="401.04597701149424" type="curve"/>
      <point x="320.0574712643678" y="401.04597701149424" type="line"/>
      <point x="323.66666666666663" y="340.82758620689657" type="line"/>
      <point x="376.55172413793105" y="340.82758620689657" type="line"/>
      <point x="371.7701149425288" y="383.7816091954023"/>
      <point x="369.9425287356322" y="417.51724137931035"/>
      <point x="376.72413793103453" y="452.6896551724138" type="curve"/>
      <point x="387.1609195402299" y="501.6551724137931" type="line" smooth="yes"/>
      <point x="393.7701149425287" y="533.3103448275863"/>
      <point x="402.16091954022994" y="563.3103448275862"/>
      <point x="405.55172413793105" y="580.8275862068966" type="curve" smooth="yes"/>
      <point x="423.9425287356322" y="667.7816091954023"/>
      <point x="382.25287356321843" y="725.7816091954023"/>
      <point x="287.95402298850576" y="725.7816091954023" type="curve" smooth="yes"/>
      <point x="250.0" y="725.7816091954023"/>
      <point x="192.26436781609198" y="709.7816091954023"/>
      <point x="155.0919540229885" y="700.5632183908046" type="curve"/>
      <point x="146.9655172413793" y="645.2413793103449" type="line"/>
      <point x="206.01149425287358" y="666.6321839080459"/>
      <point x="255.91954022988506" y="677.8045977011494"/>
      <point x="275.7471264367816" y="677.8045977011494" type="curve" smooth="yes"/>
      <point x="338.44827586206895" y="677.8045977011494"/>
      <point x="371.32183908045977" y="648.5402298850574"/>
      <point x="355.2298850574713" y="584.1724137931035" type="curve"/>
      <point x="224.70114942528735" y="559.5172413793103" type="line" smooth="yes"/>
      <point x="159.9655172413793" y="547.5172413793103"/>
      <point x="101.0919540229885" y="525.0"/>
      <point x="85.0919540229885" y="453.21839080459773" type="curve" smooth="yes"/>
      <point x="69.0919540229885" y="383.8275862068965"/>
      <point x="113.3103448275862" y="333.4367816091954"/>
    </contour>
    <contour>
      <point x="206.20689655172413" y="379.85057471264366" type="curve" smooth="yes"/>
      <point x="158.63218390804602" y="379.85057471264366"/>
      <point x="125.54022988505747" y="403.11494252873564"/>
      <point x="136.58620689655172" y="456.3448275862069" type="curve" smooth="yes"/>
      <point x="146.41379310344828" y="502.0919540229885"/>
      <point x="189.55172413793102" y="512.3103448275862"/>
      <point x="236.51724137931032" y="522.1379310344828" type="curve" smooth="yes"/>
      <point x="314.0114942528736" y="538.183908045977"/>
      <point x="329.8390804597701" y="543.7931034482759"/>
      <point x="347.88505747126436" y="551.7931034482758" type="curve"/>
      <point x="327.2298850574713" y="456.12643678160924" type="line"/>
      <point x="286.09195402298855" y="396.5057471264368"/>
      <point x="239.51724137931035" y="379.85057471264366"/>
    </contour>
  </outline>
</glyph>
<glyph name="logicalnot" format="2">
  <advance width="565.3684210526316"/>
  <unicode hex="00AC"/>
  <outline>
    <contour>
      <point x="398.06315789473683" y="61.242105263157896" type="curve"/>
      <point x="463.91578947368424" y="61.242105263157896" type="line"/>
      <point x="473.7368421052632" y="120.64210526315789"/>
      <point x="486.0947368421053" y="179.96842105263156"/>
      <point x="496.63157894736844" y="229.47368421052633" type="curve"/>
      <point x="518.3157894736842" y="329.89473684210526" type="line"/>
      <point x="456.2736842105263" y="327.0"/>
      <point x="398.41052631578947" y="326.82105263157894"/>
      <point x="348.7263157894737" y="326.82105263157894" type="curve"/>
      <point x="249.79999999999998" y="326.82105263157894" type="line"/>
      <point x="200.1157894736842" y="326.82105263157894"/>
      <point x="142.25263157894736" y="327.0"/>
      <point x="82.21052631578948" y="329.89473684210526" type="curve"/>
      <point x="68.58947368421053" y="265.1157894736842" type="line"/>
      <point x="129.98947368421054" y="268.01052631578943"/>
      <point x="187.85263157894738" y="268.1894736842105"/>
      <point x="237.53684210526316" y="268.1894736842105" type="curve"/>
      <point x="336.46315789473687" y="268.1894736842105" type="line"/>
      <point x="382.0736842105263" y="268.1894736842105"/>
      <point x="435.6842105263158" y="268.01052631578943"/>
      <point x="491.1157894736842" y="265.1157894736842" type="curve"/>
      <point x="453.82105263157894" y="308.94736842105266" type="line"/>
      <point x="436.9263157894737" y="229.65263157894736" type="line"/>
      <point x="426.38947368421054" y="180.14736842105262"/>
      <point x="413.6736842105263" y="120.64210526315789"/>
    </contour>
  </outline>
</glyph>
<glyph name="registered" format="2">
  <advance width="566.6526315789474"/>
  <unicode hex="00AE"/>
  <outline>
    <contour>
      <point x="339.61052631578946" y="258.66315789473686" type="curve" smooth="yes"/>
      <point x="491.9789473684211" y="258.66315789473686"/>
      <point x="583.4421052631578" y="362.4526315789474"/>
      <point x="583.4421052631578" y="501.9578947368421" type="curve" smooth="yes"/>
      <point x="583.4421052631578" y="636.7473684210527"/>
      <point x="496.5157894736842" y="744.8947368421053"/>
      <point x="337.7157894736842" y="744.8947368421053" type="curve" smooth="yes"/>
      <point x="180.45263157894738" y="744.8947368421053"/>
      <point x="91.42105263157896" y="638.5684210526316"/>
      <point x="91.42105263157896" y="501.77894736842103" type="curve" smooth="yes"/>
      <point x="91.42105263157896" y="370.88421052631577"/>
      <point x="173.9894736842105" y="258.66315789473686"/>
    </contour>
    <contour>
      <point x="238.6" y="365.4947368421053" type="curve"/>
      <point x="282.9473684210526" y="365.4947368421053" type="line"/>
      <point x="280.2315789473684" y="397.4947368421053"/>
      <point x="279.8736842105263" y="424.4947368421053"/>
      <point x="279.8736842105263" y="459.4947368421053" type="curve"/>
      <point x="279.8736842105263" y="551.4947368421052" type="line"/>
      <point x="279.8736842105263" y="585.7789473684211"/>
      <point x="280.2315789473684" y="613.2421052631579"/>
      <point x="282.76842105263154" y="644.7052631578947" type="curve"/>
      <point x="238.06315789473683" y="650.4947368421052" type="line"/>
      <point x="240.9578947368421" y="618.4947368421052"/>
      <point x="241.13684210526316" y="590.4947368421052"/>
      <point x="241.13684210526316" y="555.4947368421052" type="curve"/>
      <point x="241.13684210526316" y="459.4947368421053" type="line"/>
      <point x="241.13684210526316" y="424.4947368421053"/>
      <point x="240.9578947368421" y="397.4947368421053"/>
    </contour>
    <contour>
      <point x="339.43157894736845" y="293.85263157894735" type="curve"/>
      <point x="203.2421052631579" y="296.3894736842105"/>
      <point x="127.86315789473684" y="376.1473684210526"/>
      <point x="127.86315789473684" y="501.77894736842103" type="curve" smooth="yes"/>
      <point x="127.86315789473684" y="627.0947368421052"/>
      <point x="205.77894736842106" y="707.3473684210526"/>
      <point x="337.89473684210526" y="709.8842105263158" type="curve"/>
      <point x="470.36842105263156" y="707.3473684210526"/>
      <point x="546.1789473684211" y="628.2"/>
      <point x="546.1789473684211" y="501.9578947368421" type="curve" smooth="yes"/>
      <point x="546.1789473684211" y="375.28421052631575"/>
      <point x="468.93684210526317" y="296.3894736842105"/>
    </contour>
    <contour>
      <point x="411.4842105263158" y="365.4947368421053" type="curve"/>
      <point x="466.3684210526316" y="365.4947368421053" type="line"/>
      <point x="446.0842105263158" y="387.4947368421053"/>
      <point x="421.1578947368421" y="419.6736842105263"/>
      <point x="399.2315789473684" y="447.85263157894735" type="curve"/>
      <point x="355.37894736842105" y="504.2105263157895" type="line"/>
      <point x="340.7263157894737" y="486.88421052631577" type="line"/>
      <point x="411.2631578947368" y="486.88421052631577"/>
      <point x="437.7263157894737" y="525.0631578947368"/>
      <point x="437.7263157894737" y="571.6" type="curve" smooth="yes"/>
      <point x="437.7263157894737" y="628.1368421052632"/>
      <point x="398.7263157894737" y="651.8526315789474"/>
      <point x="338.61052631578946" y="651.8526315789474" type="curve"/>
      <point x="296.64210526315793" y="651.8526315789474"/>
      <point x="263.2105263157895" y="650.4947368421052"/>
      <point x="238.06315789473683" y="650.4947368421052" type="curve"/>
      <point x="267.4736842105263" y="616.3368421052631" type="line"/>
      <point x="337.0736842105263" y="616.3368421052631" type="line" smooth="yes"/>
      <point x="359.5684210526316" y="616.3368421052631"/>
      <point x="397.4526315789474" y="614.5157894736842"/>
      <point x="397.4526315789474" y="569.4526315789474" type="curve" smooth="yes"/>
      <point x="397.4526315789474" y="527.2105263157895"/>
      <point x="368.4947368421053" y="514.2842105263157"/>
      <point x="325.3263157894737" y="514.2842105263157" type="curve" smooth="yes"/>
      <point x="272.5473684210526" y="514.2842105263157" type="line"/>
      <point x="272.5473684210526" y="483.4526315789474" type="line"/>
      <point x="338.2631578947368" y="483.4526315789474" type="line"/>
      <point x="314.0" y="499.0315789473684" type="line"/>
      <point x="362.9578947368421" y="434.6736842105263" type="line"/>
      <point x="379.70526315789476" y="412.85263157894735"/>
      <point x="395.81052631578945" y="391.3157894736842"/>
    </contour>
  </outline>
</glyph>
<glyph name="plusminus" format="2">
  <advance width="565.3684210526316"/>
  <unicode hex="00B1"/>
  <outline>
    <contour>
      <point x="11.27368421052632" y="-3.0736842105263156" type="line"/>
      <point x="72.49473684210527" y="-0.17894736842105263"/>
      <point x="130.53684210526316" y="0.0"/>
      <point x="180.22105263157894" y="0.0" type="curve"/>
      <point x="279.14736842105265" y="0.0" type="line"/>
      <point x="328.8315789473684" y="0.0"/>
      <point x="386.5157894736842" y="-0.17894736842105263"/>
      <point x="447.37894736842105" y="-3.0736842105263156" type="curve"/>
      <point x="461.00000000000006" y="61.70526315789474" type="line"/>
      <point x="399.6" y="58.810526315789474"/>
      <point x="341.7368421052632" y="58.631578947368425"/>
      <point x="292.0526315789474" y="58.631578947368425" type="curve"/>
      <point x="193.12631578947367" y="58.631578947368425" type="line"/>
      <point x="143.44210526315788" y="58.631578947368425"/>
      <point x="85.57894736842105" y="58.810526315789474"/>
      <point x="24.894736842105267" y="61.70526315789474" type="curve"/>
    </contour>
    <contour>
      <point x="86.98947368421054" y="353.6842105263158" type="line"/>
      <point x="149.21052631578948" y="356.57894736842104"/>
      <point x="207.07368421052632" y="356.7578947368421"/>
      <point x="256.75789473684205" y="356.7578947368421" type="curve"/>
      <point x="355.6842105263158" y="356.7578947368421" type="line"/>
      <point x="405.36842105263156" y="356.7578947368421"/>
      <point x="463.2315789473684" y="356.57894736842104"/>
      <point x="523.0947368421052" y="353.6842105263158" type="curve"/>
      <point x="536.7157894736841" y="418.46315789473687" type="line"/>
      <point x="475.4947368421053" y="415.5684210526316"/>
      <point x="417.63157894736844" y="415.38947368421054"/>
      <point x="367.94736842105266" y="415.38947368421054" type="curve"/>
      <point x="269.0210526315789" y="415.38947368421054" type="line"/>
      <point x="219.33684210526317" y="415.38947368421054"/>
      <point x="161.47368421052633" y="415.5684210526316"/>
      <point x="100.61052631578947" y="418.46315789473687" type="curve"/>
    </contour>
    <contour>
      <point x="228.8" y="153.38947368421051" type="curve"/>
      <point x="295.65263157894736" y="153.38947368421051" type="line"/>
      <point x="306.29473684210524" y="213.61052631578949"/>
      <point x="317.83157894736837" y="272.29473684210524"/>
      <point x="328.36842105263156" y="321.9789473684211" type="curve"/>
      <point x="355.86315789473684" y="450.1684210526316" type="line"/>
      <point x="366.4" y="499.85263157894735"/>
      <point x="379.1157894736842" y="557.7157894736843"/>
      <point x="394.7263157894737" y="618.7578947368421" type="curve"/>
      <point x="327.87368421052633" y="618.7578947368421" type="line"/>
      <point x="317.2315789473684" y="558.5368421052632"/>
      <point x="305.69473684210527" y="499.85263157894735"/>
      <point x="295.15789473684214" y="450.1684210526316" type="curve"/>
      <point x="267.66315789473686" y="321.9789473684211" type="line"/>
      <point x="257.12631578947367" y="272.29473684210524"/>
      <point x="244.41052631578947" y="213.61052631578949"/>
    </contour>
  </outline>
</glyph>
<glyph name="micro" format="2">
  <advance width="556.5157894736842"/>
  <unicode hex="00B5"/>
  <outline>
    <contour>
      <point x="-20.884210526315783" y="-194.7157894736842" type="curve"/>
      <point x="55.9157894736842" y="-192.0" type="line"/>
      <point x="67.23157894736842" y="-118.07368421052631"/>
      <point x="78.8" y="-53.96842105263158"/>
      <point x="96.26315789473684" y="25.242105263157896" type="curve" smooth="yes"/>
      <point x="105.65263157894736" y="69.08421052631579" type="line"/>
      <point x="79.7578947368421" y="69.08421052631579" type="line"/>
      <point x="93.47368421052632" y="18.347368421052632"/>
      <point x="133.43157894736842" y="-10.25263157894737"/>
      <point x="200.09473684210525" y="-10.25263157894737" type="curve" smooth="yes"/>
      <point x="258.5157894736842" y="-10.25263157894737"/>
      <point x="333.7894736842106" y="44.27368421052631"/>
      <point x="376.5368421052632" y="87.77894736842104" type="curve"/>
      <point x="383.68421052631584" y="87.77894736842104" type="line"/>
      <point x="389.43157894736845" y="0.0" type="line"/>
      <point x="453.4631578947368" y="0.0" type="line"/>
      <point x="446.56842105263155" y="55.863157894736844"/>
      <point x="445.5368421052632" y="105.72631578947369"/>
      <point x="454.2526315789474" y="147.94736842105263" type="curve"/>
      <point x="480.46315789473687" y="271.71578947368425" type="line"/>
      <point x="498.17894736842106" y="355.93684210526317"/>
      <point x="516.2526315789474" y="421.6842105263157"/>
      <point x="531.0" y="495.4315789473684" type="curve"/>
      <point x="458.77894736842103" y="495.4315789473684" type="line"/>
      <point x="447.56842105263155" y="421.5052631578947"/>
      <point x="434.6421052631579" y="355.7578947368421"/>
      <point x="417.17894736842106" y="276.5473684210526" type="curve"/>
      <point x="391.43157894736845" y="155.91578947368424" type="line"/>
      <point x="339.94736842105266" y="101.14736842105263"/>
      <point x="268.86315789473684" y="50.915789473684214"/>
      <point x="219.63157894736844" y="50.915789473684214" type="curve" smooth="yes"/>
      <point x="135.69473684210527" y="50.915789473684214"/>
      <point x="113.63157894736842" y="102.08421052631579"/>
      <point x="133.66315789473683" y="195.77894736842106" type="curve"/>
      <point x="150.05263157894737" y="276.5473684210526" type="line"/>
      <point x="166.69473684210524" y="355.57894736842104"/>
      <point x="187.2315789473684" y="424.22105263157897"/>
      <point x="200.8736842105263" y="498.14736842105265" type="curve"/>
      <point x="126.57894736842105" y="495.4315789473684" type="line"/>
      <point x="115.36842105263158" y="421.5052631578947"/>
      <point x="103.15789473684211" y="356.11578947368423"/>
      <point x="84.62105263157895" y="271.3578947368421" type="curve"/>
      <point x="32.442105263157906" y="27.568421052631578" type="line"/>
      <point x="15.263157894736846" y="-53.96842105263158"/>
      <point x="-1.452631578947364" y="-120.78947368421052"/>
    </contour>
  </outline>
</glyph>
<glyph name="paragraph" format="2">
  <advance width="538.4631578947368"/>
  <unicode hex="00B6"/>
  <outline>
    <contour>
      <point x="257.64210526315793" y="304.2315789473684" type="curve" smooth="yes"/>
      <point x="262.2210526315789" y="304.2315789473684" type="line"/>
      <point x="341.85263157894735" y="713.0" type="line"/>
      <point x="304.89473684210526" y="713.0" type="line"/>
      <point x="206.37894736842108" y="713.0"/>
      <point x="119.63157894736842" y="646.2105263157895"/>
      <point x="95.27368421052631" y="529.2421052631579" type="curve" smooth="yes"/>
      <point x="70.91578947368421" y="413.7368421052632"/>
      <point x="130.8842105263158" y="304.2315789473684"/>
    </contour>
    <contour>
      <point x="131.13684210526318" y="-174.53684210526316" type="curve"/>
      <point x="186.07368421052632" y="-174.53684210526316" type="line"/>
      <point x="208.00000000000003" y="-57.357894736842105"/>
      <point x="229.82105263157897" y="47.284210526315796"/>
      <point x="252.82105263157897" y="155.46315789473684" type="curve"/>
      <point x="301.0" y="383.0" type="line"/>
      <point x="324.0" y="491.17894736842106"/>
      <point x="346.17894736842106" y="595.8210526315789"/>
      <point x="374.7894736842105" y="713.0" type="curve"/>
      <point x="323.10526315789474" y="713.0" type="line"/>
      <point x="298.10526315789474" y="595.8210526315789"/>
      <point x="276.10526315789474" y="491.17894736842106"/>
      <point x="253.10526315789474" y="383.0" type="curve"/>
      <point x="204.9263157894737" y="155.46315789473684" type="line"/>
      <point x="181.9263157894737" y="47.284210526315796"/>
      <point x="159.74736842105264" y="-57.357894736842105"/>
    </contour>
    <contour>
      <point x="272.4105263157894" y="-174.53684210526316" type="curve"/>
      <point x="327.3473684210526" y="-174.53684210526316" type="line"/>
      <point x="348.7368421052631" y="-57.357894736842105"/>
      <point x="370.55789473684206" y="47.284210526315796"/>
      <point x="393.55789473684206" y="155.46315789473684" type="curve"/>
      <point x="441.7368421052631" y="383.0" type="line"/>
      <point x="464.7368421052631" y="491.17894736842106"/>
      <point x="486.9157894736842" y="595.8210526315789"/>
      <point x="515.5263157894736" y="713.0" type="curve"/>
      <point x="460.05263157894734" y="713.0" type="line"/>
      <point x="438.6631578947368" y="595.8210526315789"/>
      <point x="416.84210526315786" y="491.17894736842106"/>
      <point x="393.84210526315786" y="383.0" type="curve"/>
      <point x="345.6631578947368" y="155.46315789473684" type="line"/>
      <point x="322.6631578947368" y="47.284210526315796"/>
      <point x="300.48421052631574" y="-57.357894736842105"/>
    </contour>
    <contour>
      <point x="332.1578947368421" y="666.8947368421053" type="line"/>
      <point x="431.0842105263158" y="666.8947368421053" type="line"/>
      <point x="480.7684210526316" y="666.8947368421053"/>
      <point x="538.4526315789474" y="666.7157894736843"/>
      <point x="598.4947368421052" y="663.821052631579" type="curve"/>
      <point x="609.0736842105263" y="713.0" type="line"/>
      <point x="548.0315789473684" y="713.0"/>
      <point x="490.1684210526316" y="713.0"/>
      <point x="440.4842105263158" y="713.0" type="curve"/>
      <point x="341.55789473684206" y="713.0" type="line"/>
    </contour>
  </outline>
</glyph>
<glyph name="ordmasculine" format="2">
  <advance width="454.14736842105265"/>
  <unicode hex="00BA"/>
  <outline>
    <contour>
      <point x="267.61052631578946" y="333.0315789473684" type="curve" smooth="yes"/>
      <point x="369.08421052631576" y="333.0315789473684"/>
      <point x="446.90526315789475" y="404.4947368421052"/>
      <point x="469.2631578947368" y="509.92631578947373" type="curve" smooth="yes"/>
      <point x="493.4421052631579" y="623.2842105263157"/>
      <point x="433.0105263157895" y="725.7157894736843"/>
      <point x="306.821052631579" y="725.7157894736843" type="curve" smooth="yes"/>
      <point x="212.55789473684212" y="725.7157894736843"/>
      <point x="128.34736842105264" y="662.0"/>
      <point x="105.16842105263159" y="549.4631578947369" type="curve" smooth="yes"/>
      <point x="81.98947368421052" y="437.5684210526316"/>
      <point x="139.24210526315792" y="333.0315789473684"/>
    </contour>
    <contour>
      <point x="269.9684210526316" y="380.7473684210526" type="curve"/>
      <point x="176.92631578947368" y="383.10526315789474"/>
      <point x="140.75789473684213" y="455.8736842105263"/>
      <point x="158.61052631578949" y="542.6736842105264" type="curve" smooth="yes"/>
      <point x="174.82105263157894" y="623.0842105263157"/>
      <point x="230.66315789473683" y="675.8210526315789"/>
      <point x="306.2842105263158" y="678.0" type="curve"/>
      <point x="391.4736842105263" y="675.4631578947368"/>
      <point x="435.13684210526316" y="610.5473684210526"/>
      <point x="415.64210526315793" y="515.8947368421053" type="curve" smooth="yes"/>
      <point x="399.43157894736845" y="438.1263157894737"/>
      <point x="345.5894736842105" y="383.10526315789474"/>
    </contour>
  </outline>
</glyph>
<glyph name="AE" format="2">
  <advance width="968.5057471264367"/>
  <unicode hex="00C6"/>
  <anchor x="456.5862068965517" y="0.0" name="bottom"/>
  <anchor x="606.5862068965516" y="713.0" name="top"/>
  <outline>
    <contour>
      <point x="-40.51724137931034" y="0.0" type="curve"/>
      <point x="53.25287356321838" y="0.0" type="line"/>
      <point x="114.04597701149426" y="85.0919540229885"/>
      <point x="184.8390804597701" y="181.79310344827587"/>
      <point x="247.367816091954" y="264.66666666666663" type="curve"/>
      <point x="542.2298850574713" y="653.0804597701149" type="line"/>
      <point x="560.3563218390805" y="653.0804597701149" type="line"/>
      <point x="610.4137931034483" y="653.0804597701149" type="line"/>
      <point x="627.9655172413793" y="713.0" type="line"/>
      <point x="502.2988505747127" y="713.0" type="line"/>
      <point x="452.2068965517241" y="640.2183908045977"/>
      <point x="399.94252873563215" y="569.8275862068966"/>
      <point x="339.85057471264366" y="490.39080459770116" type="curve"/>
      <point x="150.44827586206895" y="241.60919540229884" type="line"/>
      <point x="93.18390804597702" y="165.60919540229884"/>
      <point x="23.528735632183906" y="76.0"/>
    </contour>
    <contour>
      <point x="166.11494252873564" y="187.367816091954" type="line"/>
      <point x="493.94252873563215" y="187.367816091954" type="line"/>
      <point x="501.5057471264368" y="244.33333333333334" type="line"/>
      <point x="182.66666666666666" y="244.33333333333334" type="line"/>
    </contour>
    <contour>
      <point x="417.0919540229885" y="0.0" type="curve"/>
      <point x="497.0804597701149" y="0.0" type="line"/>
      <point x="499.6436781609195" y="10.25287356321839" type="line"/>
      <point x="511.2988505747126" y="90.08045977011494"/>
      <point x="525.5172413793103" y="160.29885057471265"/>
      <point x="543.5172413793103" y="245.29885057471262" type="curve"/>
      <point x="590.1724137931034" y="465.9655172413793" type="line"/>
      <point x="608.5632183908045" y="553.9195402298851"/>
      <point x="624.9540229885057" y="623.1379310344828"/>
      <point x="645.5172413793102" y="703.3563218390805" type="curve"/>
      <point x="647.0804597701149" y="713.0" type="line"/>
      <point x="567.0919540229885" y="713.0" type="line"/>
      <point x="554.0459770114942" y="632.7816091954023"/>
      <point x="541.6091954022988" y="563.9540229885058"/>
      <point x="522.2183908045977" y="472.39080459770116" type="curve"/>
      <point x="472.2183908045977" y="236.0" type="line"/>
      <point x="453.43678160919535" y="147.48275862068965"/>
      <point x="437.6551724137931" y="79.82758620689656"/>
    </contour>
    <contour>
      <point x="481.8275862068965" y="0.0" type="line"/>
      <point x="857.0229885057471" y="0.0" type="line"/>
      <point x="871.448275862069" y="68.2183908045977" type="line"/>
      <point x="796.7931034482758" y="62.87356321839081"/>
      <point x="718.3103448275862" y="61.48275862068966"/>
      <point x="629.2183908045977" y="61.48275862068966" type="curve"/>
      <point x="495.0804597701149" y="61.48275862068966" type="line"/>
    </contour>
    <contour>
      <point x="545.8390804597701" y="331.7586206896552" type="line"/>
      <point x="685.9310344827586" y="331.7586206896552" type="line"/>
      <point x="777.1954022988506" y="331.7586206896552"/>
      <point x="838.6321839080459" y="331.367816091954"/>
      <point x="905.2873563218391" y="329.1954022988506" type="curve"/>
      <point x="919.3218390804598" y="396.2413793103448" type="line"/>
      <point x="855.4942528735631" y="392.0689655172414"/>
      <point x="793.0574712643678" y="391.67816091954023"/>
      <point x="699.7931034482758" y="391.67816091954023" type="curve"/>
      <point x="558.7011494252873" y="391.67816091954023" type="line"/>
    </contour>
    <contour>
      <point x="615.448275862069" y="651.5172413793103" type="line"/>
      <point x="746.3678160919541" y="651.5172413793103" type="line"/>
      <point x="852.0689655172414" y="651.5172413793103"/>
      <point x="924.9425287356322" y="649.735632183908"/>
      <point x="992.816091954023" y="644.7816091954023" type="curve"/>
      <point x="1006.8505747126437" y="713.0" type="line"/>
      <point x="628.7011494252873" y="713.0" type="line"/>
    </contour>
  </outline>
</glyph>
<glyph name="multiply" format="2">
  <advance width="561.8736842105263"/>
  <unicode hex="00D7"/>
  <outline>
    <contour>
      <point x="421.70526315789476" y="83.33684210526314" type="curve"/>
      <point x="471.7894736842105" y="126.5578947368421" type="line"/>
      <point x="436.10526315789474" y="167.16842105263157"/>
      <point x="402.6" y="207.67368421052632"/>
      <point x="373.1684210526316" y="244.92631578947368" type="curve"/>
      <point x="258.35789473684207" y="390.0526315789474" type="line"/>
      <point x="231.21052631578948" y="424.37894736842105"/>
      <point x="197.42105263157896" y="468.98947368421057"/>
      <point x="165.34736842105264" y="513.6736842105264" type="curve"/>
      <point x="114.26315789473684" y="470.0947368421053" type="line"/>
      <point x="150.9473684210526" y="429.12631578947367"/>
      <point x="184.09473684210528" y="389.33684210526314"/>
      <point x="213.5263157894737" y="352.08421052631576" type="curve"/>
      <point x="328.5157894736842" y="206.60000000000002" type="line"/>
      <point x="357.76842105263154" y="169.34736842105264"/>
      <point x="389.09473684210525" y="128.02105263157895"/>
    </contour>
    <contour>
      <point x="77.5578947368421" y="80.26315789473685" type="line"/>
      <point x="129.5263157894737" y="126.58947368421052"/>
      <point x="175.9263157894737" y="165.2736842105263"/>
      <point x="219.0736842105263" y="200.8842105263158" type="curve"/>
      <point x="399.8736842105263" y="348.7578947368421" type="line"/>
      <point x="442.20000000000005" y="383.36842105263156"/>
      <point x="493.77894736842103" y="423.1578947368421"/>
      <point x="546.6421052631579" y="463.41052631578947" type="curve"/>
      <point x="505.0315789473685" y="514.9263157894738" type="line"/>
      <point x="454.70526315789476" y="470.06315789473683"/>
      <point x="405.2" y="428.09473684210525"/>
      <point x="363.69473684210527" y="394.12631578947367" type="curve"/>
      <point x="187.0" y="249.53684210526313" type="line"/>
      <point x="142.21052631578948" y="213.10526315789474"/>
      <point x="91.16842105263159" y="172.67368421052635"/>
      <point x="36.94736842105263" y="131.59999999999997" type="curve"/>
    </contour>
  </outline>
</glyph>
